<?xml version="1.0" encoding="utf-8" standalone="no"?>
<!DOCTYPE svg PUBLIC "-//W3C//DTD SVG 1.1//EN"
  "http://www.w3.org/Graphics/SVG/1.1/DTD/svg11.dtd">
<svg xmlns:xlink="http://www.w3.org/1999/xlink" width="544.4pt" height="427.04pt" viewBox="0 0 544.4 427.04" xmlns="http://www.w3.org/2000/svg" version="1.1">
 <metadata>
  <rdf:RDF xmlns:dc="http://purl.org/dc/elements/1.1/" xmlns:cc="http://creativecommons.org/ns#" xmlns:rdf="http://www.w3.org/1999/02/22-rdf-syntax-ns#">
   <cc:Work>
    <dc:type rdf:resource="http://purl.org/dc/dcmitype/StillImage"/>
    <dc:date>2026-06-21T15:35:57.716373</dc:date>
    <dc:format>image/svg+xml</dc:format>
    <dc:creator>
     <cc:Agent>
      <dc:title>Matplotlib v3.9.4, https://matplotlib.org/</dc:title>
     </cc:Agent>
    </dc:creator>
   </cc:Work>
  </rdf:RDF>
 </metadata>
 <defs>
  <style type="text/css">*{stroke-linejoin: round; stroke-linecap: butt}</style>
 </defs>
 <g id="figure_1">
  <g id="patch_1">
   <path d="M 0 427.04 
L 544.4 427.04 
L 544.4 0 
L 0 0 
z
" style="fill: #ffffff"/>
  </g>
  <g id="axes_1">
   <g id="patch_2">
    <path d="M 7.2 416.34 
L 537.2 416.34 
L 537.2 7.2 
L 7.2 7.2 
z
" style="fill: #ffffff"/>
   </g>
   <g id="line2d_1">
    <path d="M 327.911392 94.113785 
L 327.911392 25.797273 
" clip-path="url(#pcb2db1e444)" style="fill: none; stroke-dasharray: 1.85,0.8; stroke-dashoffset: 0; stroke: #bbbbbb; stroke-width: 0.5"/>
   </g>
   <g id="line2d_2">
    <path d="M 164.756114 132.067403 
L 164.756114 63.750891 
" clip-path="url(#pcb2db1e444)" style="fill: none; stroke-dasharray: 1.85,0.8; stroke-dashoffset: 0; stroke: #bbbbbb; stroke-width: 0.5"/>
   </g>
   <g id="line2d_3">
    <path d="M 255.883729 170.02102 
L 255.883729 101.704508 
" clip-path="url(#pcb2db1e444)" style="fill: none; stroke-dasharray: 1.85,0.8; stroke-dashoffset: 0; stroke: #bbbbbb; stroke-width: 0.5"/>
   </g>
   <g id="line2d_4">
    <path d="M 316.168135 207.974638 
L 316.168135 139.658126 
" clip-path="url(#pcb2db1e444)" style="fill: none; stroke-dasharray: 1.85,0.8; stroke-dashoffset: 0; stroke: #bbbbbb; stroke-width: 0.5"/>
   </g>
   <g id="line2d_5">
    <path d="M 374.928876 245.928256 
L 374.928876 177.611744 
" clip-path="url(#pcb2db1e444)" style="fill: none; stroke-dasharray: 1.85,0.8; stroke-dashoffset: 0; stroke: #bbbbbb; stroke-width: 0.5"/>
   </g>
   <g id="line2d_6">
    <path d="M 413.321166 283.881874 
L 413.321166 215.565362 
" clip-path="url(#pcb2db1e444)" style="fill: none; stroke-dasharray: 1.85,0.8; stroke-dashoffset: 0; stroke: #bbbbbb; stroke-width: 0.5"/>
   </g>
   <g id="line2d_7">
    <path d="M 7.2 382.56128 
L 537.2 382.56128 
" clip-path="url(#pcb2db1e444)" style="fill: none; stroke-dasharray: 0.5,2.5; stroke-dashoffset: 0; stroke: #cccccc; stroke-width: 0.5"/>
   </g>
   <g id="line2d_8">
    <path d="M 7.2 344.607662 
L 537.2 344.607662 
" clip-path="url(#pcb2db1e444)" style="fill: none; stroke-dasharray: 0.5,2.5; stroke-dashoffset: 0; stroke: #cccccc; stroke-width: 0.5"/>
   </g>
   <g id="line2d_9">
    <path d="M 7.2 306.654045 
L 537.2 306.654045 
" clip-path="url(#pcb2db1e444)" style="fill: none; stroke-dasharray: 0.5,2.5; stroke-dashoffset: 0; stroke: #cccccc; stroke-width: 0.5"/>
   </g>
   <g id="line2d_10">
    <path d="M 7.2 268.700427 
L 537.2 268.700427 
" clip-path="url(#pcb2db1e444)" style="fill: none; stroke-dasharray: 0.5,2.5; stroke-dashoffset: 0; stroke: #cccccc; stroke-width: 0.5"/>
   </g>
   <g id="line2d_11">
    <path d="M 7.2 230.746809 
L 537.2 230.746809 
" clip-path="url(#pcb2db1e444)" style="fill: none; stroke-dasharray: 0.5,2.5; stroke-dashoffset: 0; stroke: #cccccc; stroke-width: 0.5"/>
   </g>
   <g id="line2d_12">
    <path d="M 7.2 192.793191 
L 537.2 192.793191 
" clip-path="url(#pcb2db1e444)" style="fill: none; stroke-dasharray: 0.5,2.5; stroke-dashoffset: 0; stroke: #cccccc; stroke-width: 0.5"/>
   </g>
   <g id="line2d_13">
    <path d="M 7.2 154.839573 
L 537.2 154.839573 
" clip-path="url(#pcb2db1e444)" style="fill: none; stroke-dasharray: 0.5,2.5; stroke-dashoffset: 0; stroke: #cccccc; stroke-width: 0.5"/>
   </g>
   <g id="line2d_14">
    <path d="M 7.2 116.885955 
L 537.2 116.885955 
" clip-path="url(#pcb2db1e444)" style="fill: none; stroke-dasharray: 0.5,2.5; stroke-dashoffset: 0; stroke: #cccccc; stroke-width: 0.5"/>
   </g>
   <g id="line2d_15">
    <path d="M 7.2 78.932338 
L 537.2 78.932338 
" clip-path="url(#pcb2db1e444)" style="fill: none; stroke-dasharray: 0.5,2.5; stroke-dashoffset: 0; stroke: #cccccc; stroke-width: 0.5"/>
   </g>
   <g id="line2d_16">
    <path d="M 7.2 40.97872 
L 537.2 40.97872 
" clip-path="url(#pcb2db1e444)" style="fill: none; stroke-dasharray: 0.5,2.5; stroke-dashoffset: 0; stroke: #cccccc; stroke-width: 0.5"/>
   </g>
   <g id="line2d_17">
    <path d="M 532.693197 416.34 
L 532.693197 375.426 
" clip-path="url(#pcb2db1e444)" style="fill: none; stroke-dasharray: 1.85,0.8; stroke-dashoffset: 0; stroke: #bbbbbb; stroke-width: 0.5"/>
   </g>
   <g id="line2d_18">
    <path d="M 82.012925 416.34 
L 82.012925 7.2 
" clip-path="url(#pcb2db1e444)" style="fill: none; stroke-dasharray: 1.85,0.8; stroke-dashoffset: 0; stroke: #bbbbbb; stroke-width: 0.5"/>
   </g>
   <g id="patch_3">
    <path d="M 160.249312 94.113785 
L 377.486222 94.113785 
L 377.486222 63.750891 
L 160.249312 63.750891 
L 160.249312 94.113785 
z
" clip-path="url(#pcb2db1e444)" style="fill: none; opacity: 0"/>
   </g>
   <g id="patch_4">
    <path d="M 332.418195 56.160167 
L 32.438095 56.160167 
L 32.438095 25.797273 
L 332.418195 25.797273 
L 332.418195 56.160167 
z
" clip-path="url(#pcb2db1e444)" style="fill: none; opacity: 0"/>
   </g>
   <g id="patch_5">
    <path d="M 260.390532 132.067403 
L 115.181285 132.067403 
L 115.181285 101.704508 
L 260.390532 101.704508 
L 260.390532 132.067403 
z
" clip-path="url(#pcb2db1e444)" style="fill: none; opacity: 0"/>
   </g>
   <g id="patch_6">
    <path d="M 320.674938 170.02102 
L 206.308899 170.02102 
L 206.308899 139.658126 
L 320.674938 139.658126 
L 320.674938 170.02102 
z
" clip-path="url(#pcb2db1e444)" style="fill: none; opacity: 0"/>
   </g>
   <g id="patch_7">
    <path d="M 379.435679 207.974638 
L 266.593305 207.974638 
L 266.593305 177.611744 
L 379.435679 177.611744 
L 379.435679 207.974638 
z
" clip-path="url(#pcb2db1e444)" style="fill: none; opacity: 0"/>
   </g>
   <g id="patch_8">
    <path d="M 417.827969 245.928256 
L 325.354046 245.928256 
L 325.354046 215.565362 
L 417.827969 215.565362 
L 417.827969 245.928256 
z
" clip-path="url(#pcb2db1e444)" style="fill: none; opacity: 0"/>
   </g>
   <g id="patch_9">
    <path d="M 449.657735 283.881874 
L 363.746336 283.881874 
L 363.746336 253.51898 
L 449.657735 253.51898 
L 449.657735 283.881874 
z
" clip-path="url(#pcb2db1e444)" style="fill: none; opacity: 0"/>
   </g>
   <g id="patch_10">
    <path d="M 479.262971 321.835492 
L 395.576102 321.835492 
L 395.576102 291.472597 
L 479.262971 291.472597 
L 479.262971 321.835492 
z
" clip-path="url(#pcb2db1e444)" style="fill: none; opacity: 0"/>
   </g>
   <g id="patch_11">
    <path d="M 508.591873 359.789109 
L 425.181338 359.789109 
L 425.181338 329.426215 
L 508.591873 329.426215 
L 508.591873 359.789109 
z
" clip-path="url(#pcb2db1e444)" style="fill: none; opacity: 0"/>
   </g>
   <g id="patch_12">
    <path d="M 537.2 397.742727 
L 454.510241 397.742727 
L 454.510241 367.379833 
L 537.2 367.379833 
L 537.2 397.742727 
z
" clip-path="url(#pcb2db1e444)" style="fill: none; opacity: 0"/>
   </g>
   <g id="patch_13">
    <path d="M 327.911392 78.932338 
L 321.072683 94.113785 
L 321.072683 94.113785 
L 164.756114 94.113785 
L 164.756114 63.750891 
L 321.072683 63.750891 
L 321.072683 63.750891 
z
" clip-path="url(#pcb2db1e444)" style="fill: #ff0051; stroke: #ff0051; stroke-linejoin: miter"/>
   </g>
   <g id="patch_14">
    <path d="M 82.012925 40.97872 
L 88.851635 25.797273 
L 88.851635 25.797273 
L 327.911392 25.797273 
L 327.911392 56.160167 
L 88.851635 56.160167 
L 88.851635 56.160167 
z
" clip-path="url(#pcb2db1e444)" style="fill: #008bfb; stroke: #008bfb; stroke-linejoin: miter"/>
   </g>
   <g id="patch_15">
    <path d="M 164.756114 116.885955 
L 171.594824 101.704508 
L 171.594824 101.704508 
L 255.883729 101.704508 
L 255.883729 132.067403 
L 171.594824 132.067403 
L 171.594824 132.067403 
z
" clip-path="url(#pcb2db1e444)" style="fill: #008bfb; stroke: #008bfb; stroke-linejoin: miter"/>
   </g>
   <g id="patch_16">
    <path d="M 255.883729 154.839573 
L 262.722439 139.658126 
L 262.722439 139.658126 
L 316.168135 139.658126 
L 316.168135 170.02102 
L 262.722439 170.02102 
L 262.722439 170.02102 
z
" clip-path="url(#pcb2db1e444)" style="fill: #008bfb; stroke: #008bfb; stroke-linejoin: miter"/>
   </g>
   <g id="patch_17">
    <path d="M 316.168135 192.793191 
L 323.006845 177.611744 
L 323.006845 177.611744 
L 374.928876 177.611744 
L 374.928876 207.974638 
L 323.006845 207.974638 
L 323.006845 207.974638 
z
" clip-path="url(#pcb2db1e444)" style="fill: #008bfb; stroke: #008bfb; stroke-linejoin: miter"/>
   </g>
   <g id="patch_18">
    <path d="M 374.928876 230.746809 
L 381.767586 215.565362 
L 381.767586 215.565362 
L 413.321166 215.565362 
L 413.321166 245.928256 
L 381.767586 245.928256 
L 381.767586 245.928256 
z
" clip-path="url(#pcb2db1e444)" style="fill: #008bfb; stroke: #008bfb; stroke-linejoin: miter"/>
   </g>
   <g id="patch_19">
    <path d="M 413.321166 268.700427 
L 420.159876 253.51898 
L 420.159876 253.51898 
L 445.150932 253.51898 
L 445.150932 283.881874 
L 420.159876 283.881874 
L 420.159876 283.881874 
z
" clip-path="url(#pcb2db1e444)" style="fill: #008bfb; stroke: #008bfb; stroke-linejoin: miter"/>
   </g>
   <g id="patch_20">
    <path d="M 445.150932 306.654045 
L 451.989642 291.472597 
L 451.989642 291.472597 
L 474.756168 291.472597 
L 474.756168 321.835492 
L 451.989642 321.835492 
L 451.989642 321.835492 
z
" clip-path="url(#pcb2db1e444)" style="fill: #008bfb; stroke: #008bfb; stroke-linejoin: miter"/>
   </g>
   <g id="patch_21">
    <path d="M 474.756168 344.607662 
L 481.594878 329.426215 
L 481.594878 329.426215 
L 504.085071 329.426215 
L 504.085071 359.789109 
L 481.594878 359.789109 
L 481.594878 359.789109 
z
" clip-path="url(#pcb2db1e444)" style="fill: #008bfb; stroke: #008bfb; stroke-linejoin: miter"/>
   </g>
   <g id="patch_22">
    <path d="M 504.085071 382.56128 
L 510.92378 367.379833 
L 510.92378 367.379833 
L 532.693197 367.379833 
L 532.693197 397.742727 
L 510.92378 397.742727 
L 510.92378 397.742727 
z
" clip-path="url(#pcb2db1e444)" style="fill: #008bfb; stroke: #008bfb; stroke-linejoin: miter"/>
   </g>
   <g id="matplotlib.axis_1">
    <g id="xtick_1">
     <g id="line2d_19">
      <defs>
       <path id="me622265602" d="M 0 0 
L 0 3.5 
" style="stroke: #000000; stroke-width: 0.8"/>
      </defs>
      <g>
       <use xlink:href="#me622265602" x="20.428317" y="416.34" style="stroke: #000000; stroke-width: 0.8"/>
      </g>
     </g>
    </g>
    <g id="xtick_2">
     <g id="line2d_20">
      <g>
       <use xlink:href="#me622265602" x="86.255885" y="416.34" style="stroke: #000000; stroke-width: 0.8"/>
      </g>
     </g>
    </g>
    <g id="xtick_3">
     <g id="line2d_21">
      <g>
       <use xlink:href="#me622265602" x="152.083453" y="416.34" style="stroke: #000000; stroke-width: 0.8"/>
      </g>
     </g>
    </g>
    <g id="xtick_4">
     <g id="line2d_22">
      <g>
       <use xlink:href="#me622265602" x="217.911021" y="416.34" style="stroke: #000000; stroke-width: 0.8"/>
      </g>
     </g>
    </g>
    <g id="xtick_5">
     <g id="line2d_23">
      <g>
       <use xlink:href="#me622265602" x="283.738589" y="416.34" style="stroke: #000000; stroke-width: 0.8"/>
      </g>
     </g>
    </g>
    <g id="xtick_6">
     <g id="line2d_24">
      <g>
       <use xlink:href="#me622265602" x="349.566157" y="416.34" style="stroke: #000000; stroke-width: 0.8"/>
      </g>
     </g>
    </g>
    <g id="xtick_7">
     <g id="line2d_25">
      <g>
       <use xlink:href="#me622265602" x="415.393725" y="416.34" style="stroke: #000000; stroke-width: 0.8"/>
      </g>
     </g>
    </g>
    <g id="xtick_8">
     <g id="line2d_26">
      <g>
       <use xlink:href="#me622265602" x="481.221293" y="416.34" style="stroke: #000000; stroke-width: 0.8"/>
      </g>
     </g>
    </g>
   </g>
   <g id="matplotlib.axis_2">
    <g id="ytick_1"/>
    <g id="ytick_2"/>
    <g id="ytick_3"/>
    <g id="ytick_4"/>
    <g id="ytick_5"/>
    <g id="ytick_6"/>
    <g id="ytick_7"/>
    <g id="ytick_8"/>
    <g id="ytick_9"/>
    <g id="ytick_10"/>
    <g id="ytick_11"/>
    <g id="ytick_12"/>
    <g id="ytick_13"/>
    <g id="ytick_14"/>
    <g id="ytick_15"/>
    <g id="ytick_16"/>
    <g id="ytick_17"/>
    <g id="ytick_18"/>
    <g id="ytick_19"/>
    <g id="ytick_20"/>
   </g>
   <g id="patch_23">
    <path d="M 7.2 416.34 
L 537.2 416.34 
" style="fill: none; stroke: #000000; stroke-width: 0.8; stroke-linejoin: miter; stroke-linecap: square"/>
   </g>
  </g>
  <g id="axes_2">
   <g id="matplotlib.axis_3">
    <g id="xtick_9">
     <g id="line2d_27">
      <g>
       <use xlink:href="#me622265602" x="532.693197" y="416.34" style="stroke: #000000; stroke-width: 0.8"/>
      </g>
     </g>
    </g>
    <g id="xtick_10">
     <g id="line2d_28">
      <g>
       <use xlink:href="#me622265602" x="532.693197" y="416.34" style="stroke: #000000; stroke-width: 0.8"/>
      </g>
     </g>
    </g>
   </g>
   <g id="patch_24">
    <path d="M 7.2 416.34 
L 537.2 416.34 
" style="fill: none; stroke: #000000; stroke-width: 0.8; stroke-linejoin: miter; stroke-linecap: square"/>
   </g>
  </g>
  <g id="axes_3">
   <g id="matplotlib.axis_4">
    <g id="xtick_11">
     <g id="line2d_29">
      <defs>
       <path id="m74d5eeeb32" d="M 0 0 
L 0 -3.5 
" style="stroke: #000000; stroke-width: 0.8"/>
      </defs>
      <g>
       <use xlink:href="#m74d5eeeb32" x="82.012925" y="7.2" style="stroke: #000000; stroke-width: 0.8"/>
      </g>
     </g>
    </g>
    <g id="xtick_12">
     <g id="line2d_30">
      <g>
       <use xlink:href="#m74d5eeeb32" x="82.012925" y="7.2" style="stroke: #000000; stroke-width: 0.8"/>
      </g>
     </g>
    </g>
   </g>
   <g id="patch_25">
    <path d="M 7.2 416.34 
L 537.2 416.34 
" style="fill: none; stroke: #000000; stroke-width: 0.8; stroke-linejoin: miter; stroke-linecap: square"/>
   </g>
  </g>
 </g>
 <defs>
  <clipPath id="pcb2db1e444">
   <rect x="7.2" y="7.2" width="530" height="409.14"/>
  </clipPath>
 </defs>
</svg>
