<?xml version="1.0" encoding="utf-8" standalone="no"?>
<!DOCTYPE svg PUBLIC "-//W3C//DTD SVG 1.1//EN"
  "http://www.w3.org/Graphics/SVG/1.1/DTD/svg11.dtd">
<svg xmlns:xlink="http://www.w3.org/1999/xlink" width="544.4pt" height="427.04pt" viewBox="0 0 544.4 427.04" xmlns="http://www.w3.org/2000/svg" version="1.1">
 <metadata>
  <rdf:RDF xmlns:dc="http://purl.org/dc/elements/1.1/" xmlns:cc="http://creativecommons.org/ns#" xmlns:rdf="http://www.w3.org/1999/02/22-rdf-syntax-ns#">
   <cc:Work>
    <dc:type rdf:resource="http://purl.org/dc/dcmitype/StillImage"/>
    <dc:date>2026-06-21T14:29:41.364871</dc:date>
    <dc:format>image/svg+xml</dc:format>
    <dc:creator>
     <cc:Agent>
      <dc:title>Matplotlib v3.9.4, https://matplotlib.org/</dc:title>
     </cc:Agent>
    </dc:creator>
   </cc:Work>
  </rdf:RDF>
 </metadata>
 <defs>
  <style type="text/css">*{stroke-linejoin: round; stroke-linecap: butt}</style>
 </defs>
 <g id="figure_1">
  <g id="patch_1">
   <path d="M 0 427.04 
L 544.4 427.04 
L 544.4 0 
L 0 0 
z
" style="fill: #ffffff"/>
  </g>
  <g id="axes_1">
   <g id="patch_2">
    <path d="M 7.2 416.34 
L 537.2 416.34 
L 537.2 7.2 
L 7.2 7.2 
z
" style="fill: #ffffff"/>
   </g>
   <g id="line2d_1">
    <path d="M 322.092851 94.113785 
L 322.092851 25.797273 
" clip-path="url(#p5bb16437cd)" style="fill: none; stroke-dasharray: 1.85,0.8; stroke-dashoffset: 0; stroke: #bbbbbb; stroke-width: 0.5"/>
   </g>
   <g id="line2d_2">
    <path d="M 183.493253 132.067403 
L 183.493253 63.750891 
" clip-path="url(#p5bb16437cd)" style="fill: none; stroke-dasharray: 1.85,0.8; stroke-dashoffset: 0; stroke: #bbbbbb; stroke-width: 0.5"/>
   </g>
   <g id="line2d_3">
    <path d="M 151.053673 170.02102 
L 151.053673 101.704508 
" clip-path="url(#p5bb16437cd)" style="fill: none; stroke-dasharray: 1.85,0.8; stroke-dashoffset: 0; stroke: #bbbbbb; stroke-width: 0.5"/>
   </g>
   <g id="line2d_4">
    <path d="M 119.147833 207.974638 
L 119.147833 139.658126 
" clip-path="url(#p5bb16437cd)" style="fill: none; stroke-dasharray: 1.85,0.8; stroke-dashoffset: 0; stroke: #bbbbbb; stroke-width: 0.5"/>
   </g>
   <g id="line2d_5">
    <path d="M 91.425822 245.928256 
L 91.425822 177.611744 
" clip-path="url(#p5bb16437cd)" style="fill: none; stroke-dasharray: 1.85,0.8; stroke-dashoffset: 0; stroke: #bbbbbb; stroke-width: 0.5"/>
   </g>
   <g id="line2d_6">
    <path d="M 74.374322 283.881874 
L 74.374322 215.565362 
" clip-path="url(#p5bb16437cd)" style="fill: none; stroke-dasharray: 1.85,0.8; stroke-dashoffset: 0; stroke: #bbbbbb; stroke-width: 0.5"/>
   </g>
   <g id="line2d_7">
    <path d="M 7.2 382.56128 
L 537.2 382.56128 
" clip-path="url(#p5bb16437cd)" style="fill: none; stroke-dasharray: 0.5,2.5; stroke-dashoffset: 0; stroke: #cccccc; stroke-width: 0.5"/>
   </g>
   <g id="line2d_8">
    <path d="M 7.2 344.607662 
L 537.2 344.607662 
" clip-path="url(#p5bb16437cd)" style="fill: none; stroke-dasharray: 0.5,2.5; stroke-dashoffset: 0; stroke: #cccccc; stroke-width: 0.5"/>
   </g>
   <g id="line2d_9">
    <path d="M 7.2 306.654045 
L 537.2 306.654045 
" clip-path="url(#p5bb16437cd)" style="fill: none; stroke-dasharray: 0.5,2.5; stroke-dashoffset: 0; stroke: #cccccc; stroke-width: 0.5"/>
   </g>
   <g id="line2d_10">
    <path d="M 7.2 268.700427 
L 537.2 268.700427 
" clip-path="url(#p5bb16437cd)" style="fill: none; stroke-dasharray: 0.5,2.5; stroke-dashoffset: 0; stroke: #cccccc; stroke-width: 0.5"/>
   </g>
   <g id="line2d_11">
    <path d="M 7.2 230.746809 
L 537.2 230.746809 
" clip-path="url(#p5bb16437cd)" style="fill: none; stroke-dasharray: 0.5,2.5; stroke-dashoffset: 0; stroke: #cccccc; stroke-width: 0.5"/>
   </g>
   <g id="line2d_12">
    <path d="M 7.2 192.793191 
L 537.2 192.793191 
" clip-path="url(#p5bb16437cd)" style="fill: none; stroke-dasharray: 0.5,2.5; stroke-dashoffset: 0; stroke: #cccccc; stroke-width: 0.5"/>
   </g>
   <g id="line2d_13">
    <path d="M 7.2 154.839573 
L 537.2 154.839573 
" clip-path="url(#p5bb16437cd)" style="fill: none; stroke-dasharray: 0.5,2.5; stroke-dashoffset: 0; stroke: #cccccc; stroke-width: 0.5"/>
   </g>
   <g id="line2d_14">
    <path d="M 7.2 116.885955 
L 537.2 116.885955 
" clip-path="url(#p5bb16437cd)" style="fill: none; stroke-dasharray: 0.5,2.5; stroke-dashoffset: 0; stroke: #cccccc; stroke-width: 0.5"/>
   </g>
   <g id="line2d_15">
    <path d="M 7.2 78.932338 
L 537.2 78.932338 
" clip-path="url(#p5bb16437cd)" style="fill: none; stroke-dasharray: 0.5,2.5; stroke-dashoffset: 0; stroke: #cccccc; stroke-width: 0.5"/>
   </g>
   <g id="line2d_16">
    <path d="M 7.2 40.97872 
L 537.2 40.97872 
" clip-path="url(#p5bb16437cd)" style="fill: none; stroke-dasharray: 0.5,2.5; stroke-dashoffset: 0; stroke: #cccccc; stroke-width: 0.5"/>
   </g>
   <g id="line2d_17">
    <path d="M 11.706803 416.34 
L 11.706803 375.426 
" clip-path="url(#p5bb16437cd)" style="fill: none; stroke-dasharray: 1.85,0.8; stroke-dashoffset: 0; stroke: #bbbbbb; stroke-width: 0.5"/>
   </g>
   <g id="line2d_18">
    <path d="M 462.387075 416.34 
L 462.387075 7.2 
" clip-path="url(#p5bb16437cd)" style="fill: none; stroke-dasharray: 1.85,0.8; stroke-dashoffset: 0; stroke: #bbbbbb; stroke-width: 0.5"/>
   </g>
   <g id="patch_3">
    <path d="M 317.586048 56.160167 
L 511.961905 56.160167 
L 511.961905 25.797273 
L 317.586048 25.797273 
L 317.586048 56.160167 
z
" clip-path="url(#p5bb16437cd)" style="fill: none; opacity: 0"/>
   </g>
   <g id="patch_4">
    <path d="M 178.986451 94.113785 
L 371.667681 94.113785 
L 371.667681 63.750891 
L 178.986451 63.750891 
L 178.986451 94.113785 
z
" clip-path="url(#p5bb16437cd)" style="fill: none; opacity: 0"/>
   </g>
   <g id="patch_5">
    <path d="M 146.546871 132.067403 
L 233.068083 132.067403 
L 233.068083 101.704508 
L 146.546871 101.704508 
L 146.546871 132.067403 
z
" clip-path="url(#p5bb16437cd)" style="fill: none; opacity: 0"/>
   </g>
   <g id="patch_6">
    <path d="M 114.64103 170.02102 
L 200.628503 170.02102 
L 200.628503 139.658126 
L 114.64103 139.658126 
L 114.64103 170.02102 
z
" clip-path="url(#p5bb16437cd)" style="fill: none; opacity: 0"/>
   </g>
   <g id="patch_7">
    <path d="M 86.919019 207.974638 
L 168.722663 207.974638 
L 168.722663 177.611744 
L 86.919019 177.611744 
L 86.919019 207.974638 
z
" clip-path="url(#p5bb16437cd)" style="fill: none; opacity: 0"/>
   </g>
   <g id="patch_8">
    <path d="M 69.867519 245.928256 
L 141.000652 245.928256 
L 141.000652 215.565362 
L 69.867519 215.565362 
L 69.867519 245.928256 
z
" clip-path="url(#p5bb16437cd)" style="fill: none; opacity: 0"/>
   </g>
   <g id="patch_9">
    <path d="M 53.529045 283.881874 
L 123.949151 283.881874 
L 123.949151 253.51898 
L 53.529045 253.51898 
L 53.529045 283.881874 
z
" clip-path="url(#p5bb16437cd)" style="fill: none; opacity: 0"/>
   </g>
   <g id="patch_10">
    <path d="M 37.53546 321.835492 
L 107.610678 321.835492 
L 107.610678 291.472597 
L 37.53546 291.472597 
L 37.53546 321.835492 
z
" clip-path="url(#p5bb16437cd)" style="fill: none; opacity: 0"/>
   </g>
   <g id="patch_11">
    <path d="M 21.877339 359.789109 
L 91.617092 359.789109 
L 91.617092 329.426215 
L 21.877339 329.426215 
L 21.877339 359.789109 
z
" clip-path="url(#p5bb16437cd)" style="fill: none; opacity: 0"/>
   </g>
   <g id="patch_12">
    <path d="M 7.2 397.742727 
L 75.958971 397.742727 
L 75.958971 367.379833 
L 7.2 367.379833 
L 7.2 397.742727 
z
" clip-path="url(#p5bb16437cd)" style="fill: none; opacity: 0"/>
   </g>
   <g id="patch_13">
    <path d="M 462.387075 40.97872 
L 455.548365 56.160167 
L 455.548365 56.160167 
L 322.092851 56.160167 
L 322.092851 25.797273 
L 455.548365 25.797273 
L 455.548365 25.797273 
z
" clip-path="url(#p5bb16437cd)" style="fill: #ff0051; stroke: #ff0051; stroke-linejoin: miter"/>
   </g>
   <g id="patch_14">
    <path d="M 322.092851 78.932338 
L 315.254142 94.113785 
L 315.254142 94.113785 
L 183.493253 94.113785 
L 183.493253 63.750891 
L 315.254142 63.750891 
L 315.254142 63.750891 
z
" clip-path="url(#p5bb16437cd)" style="fill: #ff0051; stroke: #ff0051; stroke-linejoin: miter"/>
   </g>
   <g id="patch_15">
    <path d="M 183.493253 116.885955 
L 176.654544 132.067403 
L 176.654544 132.067403 
L 151.053673 132.067403 
L 151.053673 101.704508 
L 176.654544 101.704508 
L 176.654544 101.704508 
z
" clip-path="url(#p5bb16437cd)" style="fill: #ff0051; stroke: #ff0051; stroke-linejoin: miter"/>
   </g>
   <g id="patch_16">
    <path d="M 151.053673 154.839573 
L 144.214964 170.02102 
L 144.214964 170.02102 
L 119.147833 170.02102 
L 119.147833 139.658126 
L 144.214964 139.658126 
L 144.214964 139.658126 
z
" clip-path="url(#p5bb16437cd)" style="fill: #ff0051; stroke: #ff0051; stroke-linejoin: miter"/>
   </g>
   <g id="patch_17">
    <path d="M 119.147833 192.793191 
L 112.309123 207.974638 
L 112.309123 207.974638 
L 91.425822 207.974638 
L 91.425822 177.611744 
L 112.309123 177.611744 
L 112.309123 177.611744 
z
" clip-path="url(#p5bb16437cd)" style="fill: #ff0051; stroke: #ff0051; stroke-linejoin: miter"/>
   </g>
   <g id="patch_18">
    <path d="M 91.425822 230.746809 
L 84.587112 245.928256 
L 84.587112 245.928256 
L 74.374322 245.928256 
L 74.374322 215.565362 
L 84.587112 215.565362 
L 84.587112 215.565362 
z
" clip-path="url(#p5bb16437cd)" style="fill: #ff0051; stroke: #ff0051; stroke-linejoin: miter"/>
   </g>
   <g id="patch_19">
    <path d="M 74.374322 268.700427 
L 67.535612 283.881874 
L 67.535612 283.881874 
L 58.035848 283.881874 
L 58.035848 253.51898 
L 67.535612 253.51898 
L 67.535612 253.51898 
z
" clip-path="url(#p5bb16437cd)" style="fill: #ff0051; stroke: #ff0051; stroke-linejoin: miter"/>
   </g>
   <g id="patch_20">
    <path d="M 58.035848 306.654045 
L 51.197138 321.835492 
L 51.197138 321.835492 
L 42.042262 321.835492 
L 42.042262 291.472597 
L 51.197138 291.472597 
L 51.197138 291.472597 
z
" clip-path="url(#p5bb16437cd)" style="fill: #ff0051; stroke: #ff0051; stroke-linejoin: miter"/>
   </g>
   <g id="patch_21">
    <path d="M 42.042262 344.607662 
L 35.203553 359.789109 
L 35.203553 359.789109 
L 26.384141 359.789109 
L 26.384141 329.426215 
L 35.203553 329.426215 
L 35.203553 329.426215 
z
" clip-path="url(#p5bb16437cd)" style="fill: #ff0051; stroke: #ff0051; stroke-linejoin: miter"/>
   </g>
   <g id="patch_22">
    <path d="M 26.384141 382.56128 
L 19.545432 397.742727 
L 19.545432 397.742727 
L 11.706803 397.742727 
L 11.706803 367.379833 
L 19.545432 367.379833 
L 19.545432 367.379833 
z
" clip-path="url(#p5bb16437cd)" style="fill: #ff0051; stroke: #ff0051; stroke-linejoin: miter"/>
   </g>
   <g id="matplotlib.axis_1">
    <g id="xtick_1">
     <g id="line2d_19">
      <defs>
       <path id="m7a95f02454" d="M 0 0 
L 0 3.5 
" style="stroke: #000000; stroke-width: 0.8"/>
      </defs>
      <g>
       <use xlink:href="#m7a95f02454" x="21.499002" y="416.34" style="stroke: #000000; stroke-width: 0.8"/>
      </g>
     </g>
    </g>
    <g id="xtick_2">
     <g id="line2d_20">
      <g>
       <use xlink:href="#m7a95f02454" x="97.291918" y="416.34" style="stroke: #000000; stroke-width: 0.8"/>
      </g>
     </g>
    </g>
    <g id="xtick_3">
     <g id="line2d_21">
      <g>
       <use xlink:href="#m7a95f02454" x="173.084833" y="416.34" style="stroke: #000000; stroke-width: 0.8"/>
      </g>
     </g>
    </g>
    <g id="xtick_4">
     <g id="line2d_22">
      <g>
       <use xlink:href="#m7a95f02454" x="248.877749" y="416.34" style="stroke: #000000; stroke-width: 0.8"/>
      </g>
     </g>
    </g>
    <g id="xtick_5">
     <g id="line2d_23">
      <g>
       <use xlink:href="#m7a95f02454" x="324.670664" y="416.34" style="stroke: #000000; stroke-width: 0.8"/>
      </g>
     </g>
    </g>
    <g id="xtick_6">
     <g id="line2d_24">
      <g>
       <use xlink:href="#m7a95f02454" x="400.46358" y="416.34" style="stroke: #000000; stroke-width: 0.8"/>
      </g>
     </g>
    </g>
    <g id="xtick_7">
     <g id="line2d_25">
      <g>
       <use xlink:href="#m7a95f02454" x="476.256495" y="416.34" style="stroke: #000000; stroke-width: 0.8"/>
      </g>
     </g>
    </g>
   </g>
   <g id="matplotlib.axis_2">
    <g id="ytick_1"/>
    <g id="ytick_2"/>
    <g id="ytick_3"/>
    <g id="ytick_4"/>
    <g id="ytick_5"/>
    <g id="ytick_6"/>
    <g id="ytick_7"/>
    <g id="ytick_8"/>
    <g id="ytick_9"/>
    <g id="ytick_10"/>
    <g id="ytick_11"/>
    <g id="ytick_12"/>
    <g id="ytick_13"/>
    <g id="ytick_14"/>
    <g id="ytick_15"/>
    <g id="ytick_16"/>
    <g id="ytick_17"/>
    <g id="ytick_18"/>
    <g id="ytick_19"/>
    <g id="ytick_20"/>
   </g>
   <g id="patch_23">
    <path d="M 7.2 416.34 
L 537.2 416.34 
" style="fill: none; stroke: #000000; stroke-width: 0.8; stroke-linejoin: miter; stroke-linecap: square"/>
   </g>
  </g>
  <g id="axes_2">
   <g id="matplotlib.axis_3">
    <g id="xtick_8">
     <g id="line2d_26">
      <g>
       <use xlink:href="#m7a95f02454" x="11.706803" y="416.34" style="stroke: #000000; stroke-width: 0.8"/>
      </g>
     </g>
    </g>
    <g id="xtick_9">
     <g id="line2d_27">
      <g>
       <use xlink:href="#m7a95f02454" x="11.706803" y="416.34" style="stroke: #000000; stroke-width: 0.8"/>
      </g>
     </g>
    </g>
   </g>
   <g id="patch_24">
    <path d="M 7.2 416.34 
L 537.2 416.34 
" style="fill: none; stroke: #000000; stroke-width: 0.8; stroke-linejoin: miter; stroke-linecap: square"/>
   </g>
  </g>
  <g id="axes_3">
   <g id="matplotlib.axis_4">
    <g id="xtick_10">
     <g id="line2d_28">
      <defs>
       <path id="me984da37f6" d="M 0 0 
L 0 -3.5 
" style="stroke: #000000; stroke-width: 0.8"/>
      </defs>
      <g>
       <use xlink:href="#me984da37f6" x="462.387075" y="7.2" style="stroke: #000000; stroke-width: 0.8"/>
      </g>
     </g>
    </g>
    <g id="xtick_11">
     <g id="line2d_29">
      <g>
       <use xlink:href="#me984da37f6" x="462.387075" y="7.2" style="stroke: #000000; stroke-width: 0.8"/>
      </g>
     </g>
    </g>
   </g>
   <g id="patch_25">
    <path d="M 7.2 416.34 
L 537.2 416.34 
" style="fill: none; stroke: #000000; stroke-width: 0.8; stroke-linejoin: miter; stroke-linecap: square"/>
   </g>
  </g>
 </g>
 <defs>
  <clipPath id="p5bb16437cd">
   <rect x="7.2" y="7.2" width="530" height="409.14"/>
  </clipPath>
 </defs>
</svg>
