<?xml version="1.0" encoding="utf-8" standalone="no"?>
<!DOCTYPE svg PUBLIC "-//W3C//DTD SVG 1.1//EN"
  "http://www.w3.org/Graphics/SVG/1.1/DTD/svg11.dtd">
<svg xmlns:xlink="http://www.w3.org/1999/xlink" width="544.4pt" height="427.04pt" viewBox="0 0 544.4 427.04" xmlns="http://www.w3.org/2000/svg" version="1.1">
 <metadata>
  <rdf:RDF xmlns:dc="http://purl.org/dc/elements/1.1/" xmlns:cc="http://creativecommons.org/ns#" xmlns:rdf="http://www.w3.org/1999/02/22-rdf-syntax-ns#">
   <cc:Work>
    <dc:type rdf:resource="http://purl.org/dc/dcmitype/StillImage"/>
    <dc:date>2026-06-21T11:30:50.290163</dc:date>
    <dc:format>image/svg+xml</dc:format>
    <dc:creator>
     <cc:Agent>
      <dc:title>Matplotlib v3.9.4, https://matplotlib.org/</dc:title>
     </cc:Agent>
    </dc:creator>
   </cc:Work>
  </rdf:RDF>
 </metadata>
 <defs>
  <style type="text/css">*{stroke-linejoin: round; stroke-linecap: butt}</style>
 </defs>
 <g id="figure_1">
  <g id="patch_1">
   <path d="M 0 427.04 
L 544.4 427.04 
L 544.4 0 
L 0 0 
z
" style="fill: #ffffff"/>
  </g>
  <g id="axes_1">
   <g id="patch_2">
    <path d="M 7.2 416.34 
L 537.2 416.34 
L 537.2 7.2 
L 7.2 7.2 
z
" style="fill: #ffffff"/>
   </g>
   <g id="line2d_1">
    <path d="M 405.435199 94.113785 
L 405.435199 25.797273 
" clip-path="url(#pf0107568d7)" style="fill: none; stroke-dasharray: 1.85,0.8; stroke-dashoffset: 0; stroke: #bbbbbb; stroke-width: 0.5"/>
   </g>
   <g id="line2d_2">
    <path d="M 262.446282 132.067403 
L 262.446282 63.750891 
" clip-path="url(#pf0107568d7)" style="fill: none; stroke-dasharray: 1.85,0.8; stroke-dashoffset: 0; stroke: #bbbbbb; stroke-width: 0.5"/>
   </g>
   <g id="line2d_3">
    <path d="M 323.056815 170.02102 
L 323.056815 101.704508 
" clip-path="url(#pf0107568d7)" style="fill: none; stroke-dasharray: 1.85,0.8; stroke-dashoffset: 0; stroke: #bbbbbb; stroke-width: 0.5"/>
   </g>
   <g id="line2d_4">
    <path d="M 378.548306 207.974638 
L 378.548306 139.658126 
" clip-path="url(#pf0107568d7)" style="fill: none; stroke-dasharray: 1.85,0.8; stroke-dashoffset: 0; stroke: #bbbbbb; stroke-width: 0.5"/>
   </g>
   <g id="line2d_5">
    <path d="M 421.956266 245.928256 
L 421.956266 177.611744 
" clip-path="url(#pf0107568d7)" style="fill: none; stroke-dasharray: 1.85,0.8; stroke-dashoffset: 0; stroke: #bbbbbb; stroke-width: 0.5"/>
   </g>
   <g id="line2d_6">
    <path d="M 453.452379 283.881874 
L 453.452379 215.565362 
" clip-path="url(#pf0107568d7)" style="fill: none; stroke-dasharray: 1.85,0.8; stroke-dashoffset: 0; stroke: #bbbbbb; stroke-width: 0.5"/>
   </g>
   <g id="line2d_7">
    <path d="M 7.2 382.56128 
L 537.2 382.56128 
" clip-path="url(#pf0107568d7)" style="fill: none; stroke-dasharray: 0.5,2.5; stroke-dashoffset: 0; stroke: #cccccc; stroke-width: 0.5"/>
   </g>
   <g id="line2d_8">
    <path d="M 7.2 344.607662 
L 537.2 344.607662 
" clip-path="url(#pf0107568d7)" style="fill: none; stroke-dasharray: 0.5,2.5; stroke-dashoffset: 0; stroke: #cccccc; stroke-width: 0.5"/>
   </g>
   <g id="line2d_9">
    <path d="M 7.2 306.654045 
L 537.2 306.654045 
" clip-path="url(#pf0107568d7)" style="fill: none; stroke-dasharray: 0.5,2.5; stroke-dashoffset: 0; stroke: #cccccc; stroke-width: 0.5"/>
   </g>
   <g id="line2d_10">
    <path d="M 7.2 268.700427 
L 537.2 268.700427 
" clip-path="url(#pf0107568d7)" style="fill: none; stroke-dasharray: 0.5,2.5; stroke-dashoffset: 0; stroke: #cccccc; stroke-width: 0.5"/>
   </g>
   <g id="line2d_11">
    <path d="M 7.2 230.746809 
L 537.2 230.746809 
" clip-path="url(#pf0107568d7)" style="fill: none; stroke-dasharray: 0.5,2.5; stroke-dashoffset: 0; stroke: #cccccc; stroke-width: 0.5"/>
   </g>
   <g id="line2d_12">
    <path d="M 7.2 192.793191 
L 537.2 192.793191 
" clip-path="url(#pf0107568d7)" style="fill: none; stroke-dasharray: 0.5,2.5; stroke-dashoffset: 0; stroke: #cccccc; stroke-width: 0.5"/>
   </g>
   <g id="line2d_13">
    <path d="M 7.2 154.839573 
L 537.2 154.839573 
" clip-path="url(#pf0107568d7)" style="fill: none; stroke-dasharray: 0.5,2.5; stroke-dashoffset: 0; stroke: #cccccc; stroke-width: 0.5"/>
   </g>
   <g id="line2d_14">
    <path d="M 7.2 116.885955 
L 537.2 116.885955 
" clip-path="url(#pf0107568d7)" style="fill: none; stroke-dasharray: 0.5,2.5; stroke-dashoffset: 0; stroke: #cccccc; stroke-width: 0.5"/>
   </g>
   <g id="line2d_15">
    <path d="M 7.2 78.932338 
L 537.2 78.932338 
" clip-path="url(#pf0107568d7)" style="fill: none; stroke-dasharray: 0.5,2.5; stroke-dashoffset: 0; stroke: #cccccc; stroke-width: 0.5"/>
   </g>
   <g id="line2d_16">
    <path d="M 7.2 40.97872 
L 537.2 40.97872 
" clip-path="url(#pf0107568d7)" style="fill: none; stroke-dasharray: 0.5,2.5; stroke-dashoffset: 0; stroke: #cccccc; stroke-width: 0.5"/>
   </g>
   <g id="line2d_17">
    <path d="M 532.251354 416.34 
L 532.251354 375.426 
" clip-path="url(#pf0107568d7)" style="fill: none; stroke-dasharray: 1.85,0.8; stroke-dashoffset: 0; stroke: #bbbbbb; stroke-width: 0.5"/>
   </g>
   <g id="line2d_18">
    <path d="M 37.386741 416.34 
L 37.386741 7.2 
" clip-path="url(#pf0107568d7)" style="fill: none; stroke-dasharray: 1.85,0.8; stroke-dashoffset: 0; stroke: #bbbbbb; stroke-width: 0.5"/>
   </g>
   <g id="patch_3">
    <path d="M 257.497636 94.113785 
L 459.870307 94.113785 
L 459.870307 63.750891 
L 257.497636 63.750891 
L 257.497636 94.113785 
z
" clip-path="url(#pf0107568d7)" style="fill: none; opacity: 0"/>
   </g>
   <g id="patch_4">
    <path d="M 410.383845 56.160167 
L 32.438095 56.160167 
L 32.438095 25.797273 
L 410.383845 25.797273 
L 410.383845 56.160167 
z
" clip-path="url(#pf0107568d7)" style="fill: none; opacity: 0"/>
   </g>
   <g id="patch_5">
    <path d="M 328.005461 132.067403 
L 208.011174 132.067403 
L 208.011174 101.704508 
L 328.005461 101.704508 
L 328.005461 132.067403 
z
" clip-path="url(#pf0107568d7)" style="fill: none; opacity: 0"/>
   </g>
   <g id="patch_6">
    <path d="M 383.496952 170.02102 
L 268.621707 170.02102 
L 268.621707 139.658126 
L 383.496952 139.658126 
L 383.496952 170.02102 
z
" clip-path="url(#pf0107568d7)" style="fill: none; opacity: 0"/>
   </g>
   <g id="patch_7">
    <path d="M 426.904912 207.974638 
L 324.113198 207.974638 
L 324.113198 177.611744 
L 426.904912 177.611744 
L 426.904912 207.974638 
z
" clip-path="url(#pf0107568d7)" style="fill: none; opacity: 0"/>
   </g>
   <g id="patch_8">
    <path d="M 458.401025 245.928256 
L 367.521159 245.928256 
L 367.521159 215.565362 
L 458.401025 215.565362 
L 458.401025 245.928256 
z
" clip-path="url(#pf0107568d7)" style="fill: none; opacity: 0"/>
   </g>
   <g id="patch_9">
    <path d="M 488.622159 283.881874 
L 399.017271 283.881874 
L 399.017271 253.51898 
L 488.622159 253.51898 
L 488.622159 283.881874 
z
" clip-path="url(#pf0107568d7)" style="fill: none; opacity: 0"/>
   </g>
   <g id="patch_10">
    <path d="M 505.33445 321.835492 
L 429.238406 321.835492 
L 429.238406 291.472597 
L 505.33445 291.472597 
L 505.33445 321.835492 
z
" clip-path="url(#pf0107568d7)" style="fill: none; opacity: 0"/>
   </g>
   <g id="patch_11">
    <path d="M 521.925326 359.789109 
L 445.950697 359.789109 
L 445.950697 329.426215 
L 521.925326 329.426215 
L 521.925326 359.789109 
z
" clip-path="url(#pf0107568d7)" style="fill: none; opacity: 0"/>
   </g>
   <g id="patch_12">
    <path d="M 537.2 397.742727 
L 462.541573 397.742727 
L 462.541573 367.379833 
L 537.2 367.379833 
L 537.2 397.742727 
z
" clip-path="url(#pf0107568d7)" style="fill: none; opacity: 0"/>
   </g>
   <g id="patch_13">
    <path d="M 405.435199 78.932338 
L 398.59649 94.113785 
L 398.59649 94.113785 
L 262.446282 94.113785 
L 262.446282 63.750891 
L 398.59649 63.750891 
L 398.59649 63.750891 
z
" clip-path="url(#pf0107568d7)" style="fill: #ff0051; stroke: #ff0051; stroke-linejoin: miter"/>
   </g>
   <g id="patch_14">
    <path d="M 37.386741 40.97872 
L 44.225451 25.797273 
L 44.225451 25.797273 
L 405.435199 25.797273 
L 405.435199 56.160167 
L 44.225451 56.160167 
L 44.225451 56.160167 
z
" clip-path="url(#pf0107568d7)" style="fill: #008bfb; stroke: #008bfb; stroke-linejoin: miter"/>
   </g>
   <g id="patch_15">
    <path d="M 262.446282 116.885955 
L 269.284991 101.704508 
L 269.284991 101.704508 
L 323.056815 101.704508 
L 323.056815 132.067403 
L 269.284991 132.067403 
L 269.284991 132.067403 
z
" clip-path="url(#pf0107568d7)" style="fill: #008bfb; stroke: #008bfb; stroke-linejoin: miter"/>
   </g>
   <g id="patch_16">
    <path d="M 323.056815 154.839573 
L 329.895524 139.658126 
L 329.895524 139.658126 
L 378.548306 139.658126 
L 378.548306 170.02102 
L 329.895524 170.02102 
L 329.895524 170.02102 
z
" clip-path="url(#pf0107568d7)" style="fill: #008bfb; stroke: #008bfb; stroke-linejoin: miter"/>
   </g>
   <g id="patch_17">
    <path d="M 378.548306 192.793191 
L 385.387015 177.611744 
L 385.387015 177.611744 
L 421.956266 177.611744 
L 421.956266 207.974638 
L 385.387015 207.974638 
L 385.387015 207.974638 
z
" clip-path="url(#pf0107568d7)" style="fill: #008bfb; stroke: #008bfb; stroke-linejoin: miter"/>
   </g>
   <g id="patch_18">
    <path d="M 421.956266 230.746809 
L 428.794976 215.565362 
L 428.794976 215.565362 
L 453.452379 215.565362 
L 453.452379 245.928256 
L 428.794976 245.928256 
L 428.794976 245.928256 
z
" clip-path="url(#pf0107568d7)" style="fill: #008bfb; stroke: #008bfb; stroke-linejoin: miter"/>
   </g>
   <g id="patch_19">
    <path d="M 453.452379 268.700427 
L 460.291088 253.51898 
L 460.291088 253.51898 
L 483.673513 253.51898 
L 483.673513 283.881874 
L 460.291088 283.881874 
L 460.291088 283.881874 
z
" clip-path="url(#pf0107568d7)" style="fill: #008bfb; stroke: #008bfb; stroke-linejoin: miter"/>
   </g>
   <g id="patch_20">
    <path d="M 483.673513 306.654045 
L 490.512223 291.472597 
L 490.512223 291.472597 
L 500.385804 291.472597 
L 500.385804 321.835492 
L 490.512223 321.835492 
L 490.512223 321.835492 
z
" clip-path="url(#pf0107568d7)" style="fill: #008bfb; stroke: #008bfb; stroke-linejoin: miter"/>
   </g>
   <g id="patch_21">
    <path d="M 500.385804 344.607662 
L 507.224514 329.426215 
L 507.224514 329.426215 
L 516.97668 329.426215 
L 516.97668 359.789109 
L 507.224514 359.789109 
L 507.224514 359.789109 
z
" clip-path="url(#pf0107568d7)" style="fill: #008bfb; stroke: #008bfb; stroke-linejoin: miter"/>
   </g>
   <g id="patch_22">
    <path d="M 516.97668 382.56128 
L 523.81539 367.379833 
L 523.81539 367.379833 
L 532.251354 367.379833 
L 532.251354 397.742727 
L 523.81539 397.742727 
L 523.81539 397.742727 
z
" clip-path="url(#pf0107568d7)" style="fill: #008bfb; stroke: #008bfb; stroke-linejoin: miter"/>
   </g>
   <g id="matplotlib.axis_1">
    <g id="xtick_1">
     <g id="line2d_19">
      <defs>
       <path id="mb7428e7bbb" d="M 0 0 
L 0 3.5 
" style="stroke: #000000; stroke-width: 0.8"/>
      </defs>
      <g>
       <use xlink:href="#mb7428e7bbb" x="69.09266" y="416.34" style="stroke: #000000; stroke-width: 0.8"/>
      </g>
     </g>
    </g>
    <g id="xtick_2">
     <g id="line2d_20">
      <g>
       <use xlink:href="#mb7428e7bbb" x="186.498338" y="416.34" style="stroke: #000000; stroke-width: 0.8"/>
      </g>
     </g>
    </g>
    <g id="xtick_3">
     <g id="line2d_21">
      <g>
       <use xlink:href="#mb7428e7bbb" x="303.904016" y="416.34" style="stroke: #000000; stroke-width: 0.8"/>
      </g>
     </g>
    </g>
    <g id="xtick_4">
     <g id="line2d_22">
      <g>
       <use xlink:href="#mb7428e7bbb" x="421.309693" y="416.34" style="stroke: #000000; stroke-width: 0.8"/>
      </g>
     </g>
    </g>
   </g>
   <g id="matplotlib.axis_2">
    <g id="ytick_1"/>
    <g id="ytick_2"/>
    <g id="ytick_3"/>
    <g id="ytick_4"/>
    <g id="ytick_5"/>
    <g id="ytick_6"/>
    <g id="ytick_7"/>
    <g id="ytick_8"/>
    <g id="ytick_9"/>
    <g id="ytick_10"/>
    <g id="ytick_11"/>
    <g id="ytick_12"/>
    <g id="ytick_13"/>
    <g id="ytick_14"/>
    <g id="ytick_15"/>
    <g id="ytick_16"/>
    <g id="ytick_17"/>
    <g id="ytick_18"/>
    <g id="ytick_19"/>
    <g id="ytick_20"/>
   </g>
   <g id="patch_23">
    <path d="M 7.2 416.34 
L 537.2 416.34 
" style="fill: none; stroke: #000000; stroke-width: 0.8; stroke-linejoin: miter; stroke-linecap: square"/>
   </g>
  </g>
  <g id="axes_2">
   <g id="matplotlib.axis_3">
    <g id="xtick_5">
     <g id="line2d_23">
      <g>
       <use xlink:href="#mb7428e7bbb" x="532.251354" y="416.34" style="stroke: #000000; stroke-width: 0.8"/>
      </g>
     </g>
    </g>
    <g id="xtick_6">
     <g id="line2d_24">
      <g>
       <use xlink:href="#mb7428e7bbb" x="532.251354" y="416.34" style="stroke: #000000; stroke-width: 0.8"/>
      </g>
     </g>
    </g>
   </g>
   <g id="patch_24">
    <path d="M 7.2 416.34 
L 537.2 416.34 
" style="fill: none; stroke: #000000; stroke-width: 0.8; stroke-linejoin: miter; stroke-linecap: square"/>
   </g>
  </g>
  <g id="axes_3">
   <g id="matplotlib.axis_4">
    <g id="xtick_7">
     <g id="line2d_25">
      <defs>
       <path id="md7fa57ed9e" d="M 0 0 
L 0 -3.5 
" style="stroke: #000000; stroke-width: 0.8"/>
      </defs>
      <g>
       <use xlink:href="#md7fa57ed9e" x="37.386741" y="7.2" style="stroke: #000000; stroke-width: 0.8"/>
      </g>
     </g>
    </g>
    <g id="xtick_8">
     <g id="line2d_26">
      <g>
       <use xlink:href="#md7fa57ed9e" x="37.386741" y="7.2" style="stroke: #000000; stroke-width: 0.8"/>
      </g>
     </g>
    </g>
   </g>
   <g id="patch_25">
    <path d="M 7.2 416.34 
L 537.2 416.34 
" style="fill: none; stroke: #000000; stroke-width: 0.8; stroke-linejoin: miter; stroke-linecap: square"/>
   </g>
  </g>
 </g>
 <defs>
  <clipPath id="pf0107568d7">
   <rect x="7.2" y="7.2" width="530" height="409.14"/>
  </clipPath>
 </defs>
</svg>
