<?xml version="1.0" encoding="utf-8" standalone="no"?>
<!DOCTYPE svg PUBLIC "-//W3C//DTD SVG 1.1//EN"
  "http://www.w3.org/Graphics/SVG/1.1/DTD/svg11.dtd">
<svg xmlns:xlink="http://www.w3.org/1999/xlink" width="544.4pt" height="427.04pt" viewBox="0 0 544.4 427.04" xmlns="http://www.w3.org/2000/svg" version="1.1">
 <metadata>
  <rdf:RDF xmlns:dc="http://purl.org/dc/elements/1.1/" xmlns:cc="http://creativecommons.org/ns#" xmlns:rdf="http://www.w3.org/1999/02/22-rdf-syntax-ns#">
   <cc:Work>
    <dc:type rdf:resource="http://purl.org/dc/dcmitype/StillImage"/>
    <dc:date>2026-06-21T11:33:01.673185</dc:date>
    <dc:format>image/svg+xml</dc:format>
    <dc:creator>
     <cc:Agent>
      <dc:title>Matplotlib v3.9.4, https://matplotlib.org/</dc:title>
     </cc:Agent>
    </dc:creator>
   </cc:Work>
  </rdf:RDF>
 </metadata>
 <defs>
  <style type="text/css">*{stroke-linejoin: round; stroke-linecap: butt}</style>
 </defs>
 <g id="figure_1">
  <g id="patch_1">
   <path d="M 0 427.04 
L 544.4 427.04 
L 544.4 0 
L 0 0 
z
" style="fill: #ffffff"/>
  </g>
  <g id="axes_1">
   <g id="patch_2">
    <path d="M 7.2 416.34 
L 537.2 416.34 
L 537.2 7.2 
L 7.2 7.2 
z
" style="fill: #ffffff"/>
   </g>
   <g id="line2d_1">
    <path d="M 298.424605 94.113785 
L 298.424605 25.797273 
" clip-path="url(#pe222776ecc)" style="fill: none; stroke-dasharray: 1.85,0.8; stroke-dashoffset: 0; stroke: #bbbbbb; stroke-width: 0.5"/>
   </g>
   <g id="line2d_2">
    <path d="M 203.420924 132.067403 
L 203.420924 63.750891 
" clip-path="url(#pe222776ecc)" style="fill: none; stroke-dasharray: 1.85,0.8; stroke-dashoffset: 0; stroke: #bbbbbb; stroke-width: 0.5"/>
   </g>
   <g id="line2d_3">
    <path d="M 153.000762 170.02102 
L 153.000762 101.704508 
" clip-path="url(#pe222776ecc)" style="fill: none; stroke-dasharray: 1.85,0.8; stroke-dashoffset: 0; stroke: #bbbbbb; stroke-width: 0.5"/>
   </g>
   <g id="line2d_4">
    <path d="M 111.247255 207.974638 
L 111.247255 139.658126 
" clip-path="url(#pe222776ecc)" style="fill: none; stroke-dasharray: 1.85,0.8; stroke-dashoffset: 0; stroke: #bbbbbb; stroke-width: 0.5"/>
   </g>
   <g id="line2d_5">
    <path d="M 74.733532 245.928256 
L 74.733532 177.611744 
" clip-path="url(#pe222776ecc)" style="fill: none; stroke-dasharray: 1.85,0.8; stroke-dashoffset: 0; stroke: #bbbbbb; stroke-width: 0.5"/>
   </g>
   <g id="line2d_6">
    <path d="M 109.334323 283.881874 
L 109.334323 215.565362 
" clip-path="url(#pe222776ecc)" style="fill: none; stroke-dasharray: 1.85,0.8; stroke-dashoffset: 0; stroke: #bbbbbb; stroke-width: 0.5"/>
   </g>
   <g id="line2d_7">
    <path d="M 7.2 382.56128 
L 537.2 382.56128 
" clip-path="url(#pe222776ecc)" style="fill: none; stroke-dasharray: 0.5,2.5; stroke-dashoffset: 0; stroke: #cccccc; stroke-width: 0.5"/>
   </g>
   <g id="line2d_8">
    <path d="M 7.2 344.607662 
L 537.2 344.607662 
" clip-path="url(#pe222776ecc)" style="fill: none; stroke-dasharray: 0.5,2.5; stroke-dashoffset: 0; stroke: #cccccc; stroke-width: 0.5"/>
   </g>
   <g id="line2d_9">
    <path d="M 7.2 306.654045 
L 537.2 306.654045 
" clip-path="url(#pe222776ecc)" style="fill: none; stroke-dasharray: 0.5,2.5; stroke-dashoffset: 0; stroke: #cccccc; stroke-width: 0.5"/>
   </g>
   <g id="line2d_10">
    <path d="M 7.2 268.700427 
L 537.2 268.700427 
" clip-path="url(#pe222776ecc)" style="fill: none; stroke-dasharray: 0.5,2.5; stroke-dashoffset: 0; stroke: #cccccc; stroke-width: 0.5"/>
   </g>
   <g id="line2d_11">
    <path d="M 7.2 230.746809 
L 537.2 230.746809 
" clip-path="url(#pe222776ecc)" style="fill: none; stroke-dasharray: 0.5,2.5; stroke-dashoffset: 0; stroke: #cccccc; stroke-width: 0.5"/>
   </g>
   <g id="line2d_12">
    <path d="M 7.2 192.793191 
L 537.2 192.793191 
" clip-path="url(#pe222776ecc)" style="fill: none; stroke-dasharray: 0.5,2.5; stroke-dashoffset: 0; stroke: #cccccc; stroke-width: 0.5"/>
   </g>
   <g id="line2d_13">
    <path d="M 7.2 154.839573 
L 537.2 154.839573 
" clip-path="url(#pe222776ecc)" style="fill: none; stroke-dasharray: 0.5,2.5; stroke-dashoffset: 0; stroke: #cccccc; stroke-width: 0.5"/>
   </g>
   <g id="line2d_14">
    <path d="M 7.2 116.885955 
L 537.2 116.885955 
" clip-path="url(#pe222776ecc)" style="fill: none; stroke-dasharray: 0.5,2.5; stroke-dashoffset: 0; stroke: #cccccc; stroke-width: 0.5"/>
   </g>
   <g id="line2d_15">
    <path d="M 7.2 78.932338 
L 537.2 78.932338 
" clip-path="url(#pe222776ecc)" style="fill: none; stroke-dasharray: 0.5,2.5; stroke-dashoffset: 0; stroke: #cccccc; stroke-width: 0.5"/>
   </g>
   <g id="line2d_16">
    <path d="M 7.2 40.97872 
L 537.2 40.97872 
" clip-path="url(#pe222776ecc)" style="fill: none; stroke-dasharray: 0.5,2.5; stroke-dashoffset: 0; stroke: #cccccc; stroke-width: 0.5"/>
   </g>
   <g id="line2d_17">
    <path d="M 158.436142 416.34 
L 158.436142 375.426 
" clip-path="url(#pe222776ecc)" style="fill: none; stroke-dasharray: 1.85,0.8; stroke-dashoffset: 0; stroke: #bbbbbb; stroke-width: 0.5"/>
   </g>
   <g id="line2d_18">
    <path d="M 469.666468 416.34 
L 469.666468 7.2 
" clip-path="url(#pe222776ecc)" style="fill: none; stroke-dasharray: 1.85,0.8; stroke-dashoffset: 0; stroke: #bbbbbb; stroke-width: 0.5"/>
   </g>
   <g id="patch_3">
    <path d="M 294.475275 56.160167 
L 513.109091 56.160167 
L 513.109091 25.797273 
L 294.475275 25.797273 
L 294.475275 56.160167 
z
" clip-path="url(#pe222776ecc)" style="fill: none; opacity: 0"/>
   </g>
   <g id="patch_4">
    <path d="M 199.471595 94.113785 
L 341.867228 94.113785 
L 341.867228 63.750891 
L 199.471595 63.750891 
L 199.471595 94.113785 
z
" clip-path="url(#pe222776ecc)" style="fill: none; opacity: 0"/>
   </g>
   <g id="patch_5">
    <path d="M 149.051432 132.067403 
L 246.863547 132.067403 
L 246.863547 101.704508 
L 149.051432 101.704508 
L 149.051432 132.067403 
z
" clip-path="url(#pe222776ecc)" style="fill: none; opacity: 0"/>
   </g>
   <g id="patch_6">
    <path d="M 107.297926 170.02102 
L 196.443385 170.02102 
L 196.443385 139.658126 
L 107.297926 139.658126 
L 107.297926 170.02102 
z
" clip-path="url(#pe222776ecc)" style="fill: none; opacity: 0"/>
   </g>
   <g id="patch_7">
    <path d="M 70.784203 207.974638 
L 154.689878 207.974638 
L 154.689878 177.611744 
L 70.784203 177.611744 
L 70.784203 207.974638 
z
" clip-path="url(#pe222776ecc)" style="fill: none; opacity: 0"/>
   </g>
   <g id="patch_8">
    <path d="M 131.262108 359.789109 
L 202.909066 359.789109 
L 202.909066 329.426215 
L 131.262108 329.426215 
L 131.262108 359.789109 
z
" clip-path="url(#pe222776ecc)" style="fill: none; opacity: 0"/>
   </g>
   <g id="patch_9">
    <path d="M 113.283653 245.928256 
L 31.290909 245.928256 
L 31.290909 215.565362 
L 113.283653 215.565362 
L 113.283653 245.928256 
z
" clip-path="url(#pe222776ecc)" style="fill: none; opacity: 0"/>
   </g>
   <g id="patch_10">
    <path d="M 138.964309 283.881874 
L 65.8917 283.881874 
L 65.8917 253.51898 
L 138.964309 253.51898 
L 138.964309 283.881874 
z
" clip-path="url(#pe222776ecc)" style="fill: none; opacity: 0"/>
   </g>
   <g id="patch_11">
    <path d="M 163.415773 321.835492 
L 91.572357 321.835492 
L 91.572357 291.472597 
L 163.415773 291.472597 
L 163.415773 321.835492 
z
" clip-path="url(#pe222776ecc)" style="fill: none; opacity: 0"/>
   </g>
   <g id="patch_12">
    <path d="M 162.385472 397.742727 
L 91.768814 397.742727 
L 91.768814 367.379833 
L 162.385472 367.379833 
L 162.385472 397.742727 
z
" clip-path="url(#pe222776ecc)" style="fill: none; opacity: 0"/>
   </g>
   <g id="patch_13">
    <path d="M 469.666468 40.97872 
L 462.827758 56.160167 
L 462.827758 56.160167 
L 298.424605 56.160167 
L 298.424605 25.797273 
L 462.827758 25.797273 
L 462.827758 25.797273 
z
" clip-path="url(#pe222776ecc)" style="fill: #ff0051; stroke: #ff0051; stroke-linejoin: miter"/>
   </g>
   <g id="patch_14">
    <path d="M 298.424605 78.932338 
L 291.585895 94.113785 
L 291.585895 94.113785 
L 203.420924 94.113785 
L 203.420924 63.750891 
L 291.585895 63.750891 
L 291.585895 63.750891 
z
" clip-path="url(#pe222776ecc)" style="fill: #ff0051; stroke: #ff0051; stroke-linejoin: miter"/>
   </g>
   <g id="patch_15">
    <path d="M 203.420924 116.885955 
L 196.582214 132.067403 
L 196.582214 132.067403 
L 153.000762 132.067403 
L 153.000762 101.704508 
L 196.582214 101.704508 
L 196.582214 101.704508 
z
" clip-path="url(#pe222776ecc)" style="fill: #ff0051; stroke: #ff0051; stroke-linejoin: miter"/>
   </g>
   <g id="patch_16">
    <path d="M 153.000762 154.839573 
L 146.162052 170.02102 
L 146.162052 170.02102 
L 111.247255 170.02102 
L 111.247255 139.658126 
L 146.162052 139.658126 
L 146.162052 139.658126 
z
" clip-path="url(#pe222776ecc)" style="fill: #ff0051; stroke: #ff0051; stroke-linejoin: miter"/>
   </g>
   <g id="patch_17">
    <path d="M 111.247255 192.793191 
L 104.408546 207.974638 
L 104.408546 207.974638 
L 74.733532 207.974638 
L 74.733532 177.611744 
L 104.408546 177.611744 
L 104.408546 177.611744 
z
" clip-path="url(#pe222776ecc)" style="fill: #ff0051; stroke: #ff0051; stroke-linejoin: miter"/>
   </g>
   <g id="patch_18">
    <path d="M 159.466443 344.607662 
L 152.627733 359.789109 
L 152.627733 359.789109 
L 135.211437 359.789109 
L 135.211437 329.426215 
L 152.627733 329.426215 
L 152.627733 329.426215 
z
" clip-path="url(#pe222776ecc)" style="fill: #ff0051; stroke: #ff0051; stroke-linejoin: miter"/>
   </g>
   <g id="patch_19">
    <path d="M 74.733532 230.746809 
L 81.572242 215.565362 
L 81.572242 215.565362 
L 109.334323 215.565362 
L 109.334323 245.928256 
L 81.572242 245.928256 
L 81.572242 245.928256 
z
" clip-path="url(#pe222776ecc)" style="fill: #008bfb; stroke: #008bfb; stroke-linejoin: miter"/>
   </g>
   <g id="patch_20">
    <path d="M 109.334323 268.700427 
L 116.173033 253.51898 
L 116.173033 253.51898 
L 135.01498 253.51898 
L 135.01498 283.881874 
L 116.173033 283.881874 
L 116.173033 283.881874 
z
" clip-path="url(#pe222776ecc)" style="fill: #008bfb; stroke: #008bfb; stroke-linejoin: miter"/>
   </g>
   <g id="patch_21">
    <path d="M 135.01498 306.654045 
L 141.853689 291.472597 
L 141.853689 291.472597 
L 159.466443 291.472597 
L 159.466443 321.835492 
L 141.853689 321.835492 
L 141.853689 321.835492 
z
" clip-path="url(#pe222776ecc)" style="fill: #008bfb; stroke: #008bfb; stroke-linejoin: miter"/>
   </g>
   <g id="patch_22">
    <path d="M 135.211437 382.56128 
L 142.050147 367.379833 
L 142.050147 367.379833 
L 158.436142 367.379833 
L 158.436142 397.742727 
L 142.050147 397.742727 
L 142.050147 397.742727 
z
" clip-path="url(#pe222776ecc)" style="fill: #008bfb; stroke: #008bfb; stroke-linejoin: miter"/>
   </g>
   <g id="matplotlib.axis_1">
    <g id="xtick_1">
     <g id="line2d_19">
      <defs>
       <path id="ma0453805ca" d="M 0 0 
L 0 3.5 
" style="stroke: #000000; stroke-width: 0.8"/>
      </defs>
      <g>
       <use xlink:href="#ma0453805ca" x="38.00011" y="416.34" style="stroke: #000000; stroke-width: 0.8"/>
      </g>
     </g>
    </g>
    <g id="xtick_2">
     <g id="line2d_20">
      <g>
       <use xlink:href="#ma0453805ca" x="101.904162" y="416.34" style="stroke: #000000; stroke-width: 0.8"/>
      </g>
     </g>
    </g>
    <g id="xtick_3">
     <g id="line2d_21">
      <g>
       <use xlink:href="#ma0453805ca" x="165.808214" y="416.34" style="stroke: #000000; stroke-width: 0.8"/>
      </g>
     </g>
    </g>
    <g id="xtick_4">
     <g id="line2d_22">
      <g>
       <use xlink:href="#ma0453805ca" x="229.712266" y="416.34" style="stroke: #000000; stroke-width: 0.8"/>
      </g>
     </g>
    </g>
    <g id="xtick_5">
     <g id="line2d_23">
      <g>
       <use xlink:href="#ma0453805ca" x="293.616318" y="416.34" style="stroke: #000000; stroke-width: 0.8"/>
      </g>
     </g>
    </g>
    <g id="xtick_6">
     <g id="line2d_24">
      <g>
       <use xlink:href="#ma0453805ca" x="357.52037" y="416.34" style="stroke: #000000; stroke-width: 0.8"/>
      </g>
     </g>
    </g>
    <g id="xtick_7">
     <g id="line2d_25">
      <g>
       <use xlink:href="#ma0453805ca" x="421.424422" y="416.34" style="stroke: #000000; stroke-width: 0.8"/>
      </g>
     </g>
    </g>
    <g id="xtick_8">
     <g id="line2d_26">
      <g>
       <use xlink:href="#ma0453805ca" x="485.328474" y="416.34" style="stroke: #000000; stroke-width: 0.8"/>
      </g>
     </g>
    </g>
   </g>
   <g id="matplotlib.axis_2">
    <g id="ytick_1"/>
    <g id="ytick_2"/>
    <g id="ytick_3"/>
    <g id="ytick_4"/>
    <g id="ytick_5"/>
    <g id="ytick_6"/>
    <g id="ytick_7"/>
    <g id="ytick_8"/>
    <g id="ytick_9"/>
    <g id="ytick_10"/>
    <g id="ytick_11"/>
    <g id="ytick_12"/>
    <g id="ytick_13"/>
    <g id="ytick_14"/>
    <g id="ytick_15"/>
    <g id="ytick_16"/>
    <g id="ytick_17"/>
    <g id="ytick_18"/>
    <g id="ytick_19"/>
    <g id="ytick_20"/>
   </g>
   <g id="patch_23">
    <path d="M 7.2 416.34 
L 537.2 416.34 
" style="fill: none; stroke: #000000; stroke-width: 0.8; stroke-linejoin: miter; stroke-linecap: square"/>
   </g>
  </g>
  <g id="axes_2">
   <g id="matplotlib.axis_3">
    <g id="xtick_9">
     <g id="line2d_27">
      <g>
       <use xlink:href="#ma0453805ca" x="158.436142" y="416.34" style="stroke: #000000; stroke-width: 0.8"/>
      </g>
     </g>
    </g>
    <g id="xtick_10">
     <g id="line2d_28">
      <g>
       <use xlink:href="#ma0453805ca" x="158.436142" y="416.34" style="stroke: #000000; stroke-width: 0.8"/>
      </g>
     </g>
    </g>
   </g>
   <g id="patch_24">
    <path d="M 7.2 416.34 
L 537.2 416.34 
" style="fill: none; stroke: #000000; stroke-width: 0.8; stroke-linejoin: miter; stroke-linecap: square"/>
   </g>
  </g>
  <g id="axes_3">
   <g id="matplotlib.axis_4">
    <g id="xtick_11">
     <g id="line2d_29">
      <defs>
       <path id="m55e454ffc5" d="M 0 0 
L 0 -3.5 
" style="stroke: #000000; stroke-width: 0.8"/>
      </defs>
      <g>
       <use xlink:href="#m55e454ffc5" x="469.666468" y="7.2" style="stroke: #000000; stroke-width: 0.8"/>
      </g>
     </g>
    </g>
    <g id="xtick_12">
     <g id="line2d_30">
      <g>
       <use xlink:href="#m55e454ffc5" x="469.666468" y="7.2" style="stroke: #000000; stroke-width: 0.8"/>
      </g>
     </g>
    </g>
   </g>
   <g id="patch_25">
    <path d="M 7.2 416.34 
L 537.2 416.34 
" style="fill: none; stroke: #000000; stroke-width: 0.8; stroke-linejoin: miter; stroke-linecap: square"/>
   </g>
  </g>
 </g>
 <defs>
  <clipPath id="pe222776ecc">
   <rect x="7.2" y="7.2" width="530" height="409.14"/>
  </clipPath>
 </defs>
</svg>
