<?xml version="1.0" encoding="utf-8" standalone="no"?>
<!DOCTYPE svg PUBLIC "-//W3C//DTD SVG 1.1//EN"
  "http://www.w3.org/Graphics/SVG/1.1/DTD/svg11.dtd">
<svg xmlns:xlink="http://www.w3.org/1999/xlink" width="544.4pt" height="427.04pt" viewBox="0 0 544.4 427.04" xmlns="http://www.w3.org/2000/svg" version="1.1">
 <metadata>
  <rdf:RDF xmlns:dc="http://purl.org/dc/elements/1.1/" xmlns:cc="http://creativecommons.org/ns#" xmlns:rdf="http://www.w3.org/1999/02/22-rdf-syntax-ns#">
   <cc:Work>
    <dc:type rdf:resource="http://purl.org/dc/dcmitype/StillImage"/>
    <dc:date>2026-06-21T11:35:31.895033</dc:date>
    <dc:format>image/svg+xml</dc:format>
    <dc:creator>
     <cc:Agent>
      <dc:title>Matplotlib v3.9.4, https://matplotlib.org/</dc:title>
     </cc:Agent>
    </dc:creator>
   </cc:Work>
  </rdf:RDF>
 </metadata>
 <defs>
  <style type="text/css">*{stroke-linejoin: round; stroke-linecap: butt}</style>
 </defs>
 <g id="figure_1">
  <g id="patch_1">
   <path d="M 0 427.04 
L 544.4 427.04 
L 544.4 0 
L 0 0 
z
" style="fill: #ffffff"/>
  </g>
  <g id="axes_1">
   <g id="patch_2">
    <path d="M 7.2 416.34 
L 537.2 416.34 
L 537.2 7.2 
L 7.2 7.2 
z
" style="fill: #ffffff"/>
   </g>
   <g id="line2d_1">
    <path d="M 465.787662 94.113785 
L 465.787662 25.797273 
" clip-path="url(#pe265731360)" style="fill: none; stroke-dasharray: 1.85,0.8; stroke-dashoffset: 0; stroke: #bbbbbb; stroke-width: 0.5"/>
   </g>
   <g id="line2d_2">
    <path d="M 416.991873 132.067403 
L 416.991873 63.750891 
" clip-path="url(#pe265731360)" style="fill: none; stroke-dasharray: 1.85,0.8; stroke-dashoffset: 0; stroke: #bbbbbb; stroke-width: 0.5"/>
   </g>
   <g id="line2d_3">
    <path d="M 373.297263 170.02102 
L 373.297263 101.704508 
" clip-path="url(#pe265731360)" style="fill: none; stroke-dasharray: 1.85,0.8; stroke-dashoffset: 0; stroke: #bbbbbb; stroke-width: 0.5"/>
   </g>
   <g id="line2d_4">
    <path d="M 337.965851 207.974638 
L 337.965851 139.658126 
" clip-path="url(#pe265731360)" style="fill: none; stroke-dasharray: 1.85,0.8; stroke-dashoffset: 0; stroke: #bbbbbb; stroke-width: 0.5"/>
   </g>
   <g id="line2d_5">
    <path d="M 371.875197 245.928256 
L 371.875197 177.611744 
" clip-path="url(#pe265731360)" style="fill: none; stroke-dasharray: 1.85,0.8; stroke-dashoffset: 0; stroke: #bbbbbb; stroke-width: 0.5"/>
   </g>
   <g id="line2d_6">
    <path d="M 345.375994 283.881874 
L 345.375994 215.565362 
" clip-path="url(#pe265731360)" style="fill: none; stroke-dasharray: 1.85,0.8; stroke-dashoffset: 0; stroke: #bbbbbb; stroke-width: 0.5"/>
   </g>
   <g id="line2d_7">
    <path d="M 7.2 382.56128 
L 537.2 382.56128 
" clip-path="url(#pe265731360)" style="fill: none; stroke-dasharray: 0.5,2.5; stroke-dashoffset: 0; stroke: #cccccc; stroke-width: 0.5"/>
   </g>
   <g id="line2d_8">
    <path d="M 7.2 344.607662 
L 537.2 344.607662 
" clip-path="url(#pe265731360)" style="fill: none; stroke-dasharray: 0.5,2.5; stroke-dashoffset: 0; stroke: #cccccc; stroke-width: 0.5"/>
   </g>
   <g id="line2d_9">
    <path d="M 7.2 306.654045 
L 537.2 306.654045 
" clip-path="url(#pe265731360)" style="fill: none; stroke-dasharray: 0.5,2.5; stroke-dashoffset: 0; stroke: #cccccc; stroke-width: 0.5"/>
   </g>
   <g id="line2d_10">
    <path d="M 7.2 268.700427 
L 537.2 268.700427 
" clip-path="url(#pe265731360)" style="fill: none; stroke-dasharray: 0.5,2.5; stroke-dashoffset: 0; stroke: #cccccc; stroke-width: 0.5"/>
   </g>
   <g id="line2d_11">
    <path d="M 7.2 230.746809 
L 537.2 230.746809 
" clip-path="url(#pe265731360)" style="fill: none; stroke-dasharray: 0.5,2.5; stroke-dashoffset: 0; stroke: #cccccc; stroke-width: 0.5"/>
   </g>
   <g id="line2d_12">
    <path d="M 7.2 192.793191 
L 537.2 192.793191 
" clip-path="url(#pe265731360)" style="fill: none; stroke-dasharray: 0.5,2.5; stroke-dashoffset: 0; stroke: #cccccc; stroke-width: 0.5"/>
   </g>
   <g id="line2d_13">
    <path d="M 7.2 154.839573 
L 537.2 154.839573 
" clip-path="url(#pe265731360)" style="fill: none; stroke-dasharray: 0.5,2.5; stroke-dashoffset: 0; stroke: #cccccc; stroke-width: 0.5"/>
   </g>
   <g id="line2d_14">
    <path d="M 7.2 116.885955 
L 537.2 116.885955 
" clip-path="url(#pe265731360)" style="fill: none; stroke-dasharray: 0.5,2.5; stroke-dashoffset: 0; stroke: #cccccc; stroke-width: 0.5"/>
   </g>
   <g id="line2d_15">
    <path d="M 7.2 78.932338 
L 537.2 78.932338 
" clip-path="url(#pe265731360)" style="fill: none; stroke-dasharray: 0.5,2.5; stroke-dashoffset: 0; stroke: #cccccc; stroke-width: 0.5"/>
   </g>
   <g id="line2d_16">
    <path d="M 7.2 40.97872 
L 537.2 40.97872 
" clip-path="url(#pe265731360)" style="fill: none; stroke-dasharray: 0.5,2.5; stroke-dashoffset: 0; stroke: #cccccc; stroke-width: 0.5"/>
   </g>
   <g id="line2d_17">
    <path d="M 324.622108 416.34 
L 324.622108 375.426 
" clip-path="url(#pe265731360)" style="fill: none; stroke-dasharray: 1.85,0.8; stroke-dashoffset: 0; stroke: #bbbbbb; stroke-width: 0.5"/>
   </g>
   <g id="line2d_18">
    <path d="M 35.592857 416.34 
L 35.592857 7.2 
" clip-path="url(#pe265731360)" style="fill: none; stroke-dasharray: 1.85,0.8; stroke-dashoffset: 0; stroke: #bbbbbb; stroke-width: 0.5"/>
   </g>
   <g id="patch_3">
    <path d="M 412.689925 94.113785 
L 513.109091 94.113785 
L 513.109091 63.750891 
L 412.689925 63.750891 
L 412.689925 94.113785 
z
" clip-path="url(#pe265731360)" style="fill: none; opacity: 0"/>
   </g>
   <g id="patch_4">
    <path d="M 368.995315 132.067403 
L 464.313302 132.067403 
L 464.313302 101.704508 
L 368.995315 101.704508 
L 368.995315 132.067403 
z
" clip-path="url(#pe265731360)" style="fill: none; opacity: 0"/>
   </g>
   <g id="patch_5">
    <path d="M 333.663903 170.02102 
L 420.618692 170.02102 
L 420.618692 139.658126 
L 333.663903 139.658126 
L 333.663903 170.02102 
z
" clip-path="url(#pe265731360)" style="fill: none; opacity: 0"/>
   </g>
   <g id="patch_6">
    <path d="M 341.074046 245.928256 
L 419.196626 245.928256 
L 419.196626 215.565362 
L 341.074046 215.565362 
L 341.074046 245.928256 
z
" clip-path="url(#pe265731360)" style="fill: none; opacity: 0"/>
   </g>
   <g id="patch_7">
    <path d="M 346.963064 321.835492 
L 416.609929 321.835492 
L 416.609929 291.472597 
L 346.963064 291.472597 
L 346.963064 321.835492 
z
" clip-path="url(#pe265731360)" style="fill: none; opacity: 0"/>
   </g>
   <g id="patch_8">
    <path d="M 332.81093 359.789109 
L 398.586441 359.789109 
L 398.586441 329.426215 
L 332.81093 329.426215 
L 332.81093 359.789109 
z
" clip-path="url(#pe265731360)" style="fill: none; opacity: 0"/>
   </g>
   <g id="patch_9">
    <path d="M 320.32016 397.742727 
L 384.434307 397.742727 
L 384.434307 367.379833 
L 320.32016 367.379833 
L 320.32016 397.742727 
z
" clip-path="url(#pe265731360)" style="fill: none; opacity: 0"/>
   </g>
   <g id="patch_10">
    <path d="M 470.08961 56.160167 
L 31.290909 56.160167 
L 31.290909 25.797273 
L 470.08961 25.797273 
L 470.08961 56.160167 
z
" clip-path="url(#pe265731360)" style="fill: none; opacity: 0"/>
   </g>
   <g id="patch_11">
    <path d="M 376.177145 207.974638 
L 290.644423 207.974638 
L 290.644423 177.611744 
L 376.177145 177.611744 
L 376.177145 207.974638 
z
" clip-path="url(#pe265731360)" style="fill: none; opacity: 0"/>
   </g>
   <g id="patch_12">
    <path d="M 373.590449 283.881874 
L 298.054565 283.881874 
L 298.054565 253.51898 
L 373.590449 253.51898 
L 373.590449 283.881874 
z
" clip-path="url(#pe265731360)" style="fill: none; opacity: 0"/>
   </g>
   <g id="patch_13">
    <path d="M 465.787662 78.932338 
L 458.948953 94.113785 
L 458.948953 94.113785 
L 416.991873 94.113785 
L 416.991873 63.750891 
L 458.948953 63.750891 
L 458.948953 63.750891 
z
" clip-path="url(#pe265731360)" style="fill: #ff0051; stroke: #ff0051; stroke-linejoin: miter"/>
   </g>
   <g id="patch_14">
    <path d="M 416.991873 116.885955 
L 410.153163 132.067403 
L 410.153163 132.067403 
L 373.297263 132.067403 
L 373.297263 101.704508 
L 410.153163 101.704508 
L 410.153163 101.704508 
z
" clip-path="url(#pe265731360)" style="fill: #ff0051; stroke: #ff0051; stroke-linejoin: miter"/>
   </g>
   <g id="patch_15">
    <path d="M 373.297263 154.839573 
L 366.458554 170.02102 
L 366.458554 170.02102 
L 337.965851 170.02102 
L 337.965851 139.658126 
L 366.458554 139.658126 
L 366.458554 139.658126 
z
" clip-path="url(#pe265731360)" style="fill: #ff0051; stroke: #ff0051; stroke-linejoin: miter"/>
   </g>
   <g id="patch_16">
    <path d="M 371.875197 230.746809 
L 365.036487 245.928256 
L 365.036487 245.928256 
L 345.375994 245.928256 
L 345.375994 215.565362 
L 365.036487 215.565362 
L 365.036487 215.565362 
z
" clip-path="url(#pe265731360)" style="fill: #ff0051; stroke: #ff0051; stroke-linejoin: miter"/>
   </g>
   <g id="patch_17">
    <path d="M 369.288501 306.654045 
L 362.449791 321.835492 
L 362.449791 321.835492 
L 351.265012 321.835492 
L 351.265012 291.472597 
L 362.449791 291.472597 
L 362.449791 291.472597 
z
" clip-path="url(#pe265731360)" style="fill: #ff0051; stroke: #ff0051; stroke-linejoin: miter"/>
   </g>
   <g id="patch_18">
    <path d="M 351.265012 344.607662 
L 344.426303 359.789109 
L 344.426303 359.789109 
L 337.112878 359.789109 
L 337.112878 329.426215 
L 344.426303 329.426215 
L 344.426303 329.426215 
z
" clip-path="url(#pe265731360)" style="fill: #ff0051; stroke: #ff0051; stroke-linejoin: miter"/>
   </g>
   <g id="patch_19">
    <path d="M 337.112878 382.56128 
L 330.274169 397.742727 
L 330.274169 397.742727 
L 324.622108 397.742727 
L 324.622108 367.379833 
L 330.274169 367.379833 
L 330.274169 367.379833 
z
" clip-path="url(#pe265731360)" style="fill: #ff0051; stroke: #ff0051; stroke-linejoin: miter"/>
   </g>
   <g id="patch_20">
    <path d="M 35.592857 40.97872 
L 42.431567 25.797273 
L 42.431567 25.797273 
L 465.787662 25.797273 
L 465.787662 56.160167 
L 42.431567 56.160167 
L 42.431567 56.160167 
z
" clip-path="url(#pe265731360)" style="fill: #008bfb; stroke: #008bfb; stroke-linejoin: miter"/>
   </g>
   <g id="patch_21">
    <path d="M 337.965851 192.793191 
L 344.804561 177.611744 
L 344.804561 177.611744 
L 371.875197 177.611744 
L 371.875197 207.974638 
L 344.804561 207.974638 
L 344.804561 207.974638 
z
" clip-path="url(#pe265731360)" style="fill: #008bfb; stroke: #008bfb; stroke-linejoin: miter"/>
   </g>
   <g id="patch_22">
    <path d="M 345.375994 268.700427 
L 352.214704 253.51898 
L 352.214704 253.51898 
L 369.288501 253.51898 
L 369.288501 283.881874 
L 352.214704 283.881874 
L 352.214704 283.881874 
z
" clip-path="url(#pe265731360)" style="fill: #008bfb; stroke: #008bfb; stroke-linejoin: miter"/>
   </g>
   <g id="matplotlib.axis_1">
    <g id="xtick_1">
     <g id="line2d_19">
      <defs>
       <path id="m7415dd82a3" d="M 0 0 
L 0 3.5 
" style="stroke: #000000; stroke-width: 0.8"/>
      </defs>
      <g>
       <use xlink:href="#m7415dd82a3" x="65.357765" y="416.34" style="stroke: #000000; stroke-width: 0.8"/>
      </g>
     </g>
    </g>
    <g id="xtick_2">
     <g id="line2d_20">
      <g>
       <use xlink:href="#m7415dd82a3" x="132.014489" y="416.34" style="stroke: #000000; stroke-width: 0.8"/>
      </g>
     </g>
    </g>
    <g id="xtick_3">
     <g id="line2d_21">
      <g>
       <use xlink:href="#m7415dd82a3" x="198.671214" y="416.34" style="stroke: #000000; stroke-width: 0.8"/>
      </g>
     </g>
    </g>
    <g id="xtick_4">
     <g id="line2d_22">
      <g>
       <use xlink:href="#m7415dd82a3" x="265.327938" y="416.34" style="stroke: #000000; stroke-width: 0.8"/>
      </g>
     </g>
    </g>
    <g id="xtick_5">
     <g id="line2d_23">
      <g>
       <use xlink:href="#m7415dd82a3" x="331.984663" y="416.34" style="stroke: #000000; stroke-width: 0.8"/>
      </g>
     </g>
    </g>
    <g id="xtick_6">
     <g id="line2d_24">
      <g>
       <use xlink:href="#m7415dd82a3" x="398.641388" y="416.34" style="stroke: #000000; stroke-width: 0.8"/>
      </g>
     </g>
    </g>
    <g id="xtick_7">
     <g id="line2d_25">
      <g>
       <use xlink:href="#m7415dd82a3" x="465.298112" y="416.34" style="stroke: #000000; stroke-width: 0.8"/>
      </g>
     </g>
    </g>
    <g id="xtick_8">
     <g id="line2d_26">
      <g>
       <use xlink:href="#m7415dd82a3" x="531.954837" y="416.34" style="stroke: #000000; stroke-width: 0.8"/>
      </g>
     </g>
    </g>
   </g>
   <g id="matplotlib.axis_2">
    <g id="ytick_1"/>
    <g id="ytick_2"/>
    <g id="ytick_3"/>
    <g id="ytick_4"/>
    <g id="ytick_5"/>
    <g id="ytick_6"/>
    <g id="ytick_7"/>
    <g id="ytick_8"/>
    <g id="ytick_9"/>
    <g id="ytick_10"/>
    <g id="ytick_11"/>
    <g id="ytick_12"/>
    <g id="ytick_13"/>
    <g id="ytick_14"/>
    <g id="ytick_15"/>
    <g id="ytick_16"/>
    <g id="ytick_17"/>
    <g id="ytick_18"/>
    <g id="ytick_19"/>
    <g id="ytick_20"/>
   </g>
   <g id="patch_23">
    <path d="M 7.2 416.34 
L 537.2 416.34 
" style="fill: none; stroke: #000000; stroke-width: 0.8; stroke-linejoin: miter; stroke-linecap: square"/>
   </g>
  </g>
  <g id="axes_2">
   <g id="matplotlib.axis_3">
    <g id="xtick_9">
     <g id="line2d_27">
      <g>
       <use xlink:href="#m7415dd82a3" x="324.622108" y="416.34" style="stroke: #000000; stroke-width: 0.8"/>
      </g>
     </g>
    </g>
    <g id="xtick_10">
     <g id="line2d_28">
      <g>
       <use xlink:href="#m7415dd82a3" x="324.622108" y="416.34" style="stroke: #000000; stroke-width: 0.8"/>
      </g>
     </g>
    </g>
   </g>
   <g id="patch_24">
    <path d="M 7.2 416.34 
L 537.2 416.34 
" style="fill: none; stroke: #000000; stroke-width: 0.8; stroke-linejoin: miter; stroke-linecap: square"/>
   </g>
  </g>
  <g id="axes_3">
   <g id="matplotlib.axis_4">
    <g id="xtick_11">
     <g id="line2d_29">
      <defs>
       <path id="mc09be69bde" d="M 0 0 
L 0 -3.5 
" style="stroke: #000000; stroke-width: 0.8"/>
      </defs>
      <g>
       <use xlink:href="#mc09be69bde" x="35.592857" y="7.2" style="stroke: #000000; stroke-width: 0.8"/>
      </g>
     </g>
    </g>
    <g id="xtick_12">
     <g id="line2d_30">
      <g>
       <use xlink:href="#mc09be69bde" x="35.592857" y="7.2" style="stroke: #000000; stroke-width: 0.8"/>
      </g>
     </g>
    </g>
   </g>
   <g id="patch_25">
    <path d="M 7.2 416.34 
L 537.2 416.34 
" style="fill: none; stroke: #000000; stroke-width: 0.8; stroke-linejoin: miter; stroke-linecap: square"/>
   </g>
  </g>
 </g>
 <defs>
  <clipPath id="pe265731360">
   <rect x="7.2" y="7.2" width="530" height="409.14"/>
  </clipPath>
 </defs>
</svg>
