<?xml version="1.0" encoding="utf-8" standalone="no"?>
<!DOCTYPE svg PUBLIC "-//W3C//DTD SVG 1.1//EN"
  "http://www.w3.org/Graphics/SVG/1.1/DTD/svg11.dtd">
<svg xmlns:xlink="http://www.w3.org/1999/xlink" width="544.4pt" height="427.04pt" viewBox="0 0 544.4 427.04" xmlns="http://www.w3.org/2000/svg" version="1.1">
 <metadata>
  <rdf:RDF xmlns:dc="http://purl.org/dc/elements/1.1/" xmlns:cc="http://creativecommons.org/ns#" xmlns:rdf="http://www.w3.org/1999/02/22-rdf-syntax-ns#">
   <cc:Work>
    <dc:type rdf:resource="http://purl.org/dc/dcmitype/StillImage"/>
    <dc:date>2026-06-21T11:37:32.113096</dc:date>
    <dc:format>image/svg+xml</dc:format>
    <dc:creator>
     <cc:Agent>
      <dc:title>Matplotlib v3.9.4, https://matplotlib.org/</dc:title>
     </cc:Agent>
    </dc:creator>
   </cc:Work>
  </rdf:RDF>
 </metadata>
 <defs>
  <style type="text/css">*{stroke-linejoin: round; stroke-linecap: butt}</style>
 </defs>
 <g id="figure_1">
  <g id="patch_1">
   <path d="M 0 427.04 
L 544.4 427.04 
L 544.4 0 
L 0 0 
z
" style="fill: #ffffff"/>
  </g>
  <g id="axes_1">
   <g id="patch_2">
    <path d="M 7.2 416.34 
L 537.2 416.34 
L 537.2 7.2 
L 7.2 7.2 
z
" style="fill: #ffffff"/>
   </g>
   <g id="line2d_1">
    <path d="M 319.742131 94.113785 
L 319.742131 25.797273 
" clip-path="url(#p2ab8fe46bd)" style="fill: none; stroke-dasharray: 1.85,0.8; stroke-dashoffset: 0; stroke: #bbbbbb; stroke-width: 0.5"/>
   </g>
   <g id="line2d_2">
    <path d="M 469.666468 132.067403 
L 469.666468 63.750891 
" clip-path="url(#p2ab8fe46bd)" style="fill: none; stroke-dasharray: 1.85,0.8; stroke-dashoffset: 0; stroke: #bbbbbb; stroke-width: 0.5"/>
   </g>
   <g id="line2d_3">
    <path d="M 378.206674 170.02102 
L 378.206674 101.704508 
" clip-path="url(#p2ab8fe46bd)" style="fill: none; stroke-dasharray: 1.85,0.8; stroke-dashoffset: 0; stroke: #bbbbbb; stroke-width: 0.5"/>
   </g>
   <g id="line2d_4">
    <path d="M 315.425702 207.974638 
L 315.425702 139.658126 
" clip-path="url(#p2ab8fe46bd)" style="fill: none; stroke-dasharray: 1.85,0.8; stroke-dashoffset: 0; stroke: #bbbbbb; stroke-width: 0.5"/>
   </g>
   <g id="line2d_5">
    <path d="M 272.563295 245.928256 
L 272.563295 177.611744 
" clip-path="url(#p2ab8fe46bd)" style="fill: none; stroke-dasharray: 1.85,0.8; stroke-dashoffset: 0; stroke: #bbbbbb; stroke-width: 0.5"/>
   </g>
   <g id="line2d_6">
    <path d="M 237.392035 283.881874 
L 237.392035 215.565362 
" clip-path="url(#p2ab8fe46bd)" style="fill: none; stroke-dasharray: 1.85,0.8; stroke-dashoffset: 0; stroke: #bbbbbb; stroke-width: 0.5"/>
   </g>
   <g id="line2d_7">
    <path d="M 7.2 382.56128 
L 537.2 382.56128 
" clip-path="url(#p2ab8fe46bd)" style="fill: none; stroke-dasharray: 0.5,2.5; stroke-dashoffset: 0; stroke: #cccccc; stroke-width: 0.5"/>
   </g>
   <g id="line2d_8">
    <path d="M 7.2 344.607662 
L 537.2 344.607662 
" clip-path="url(#p2ab8fe46bd)" style="fill: none; stroke-dasharray: 0.5,2.5; stroke-dashoffset: 0; stroke: #cccccc; stroke-width: 0.5"/>
   </g>
   <g id="line2d_9">
    <path d="M 7.2 306.654045 
L 537.2 306.654045 
" clip-path="url(#p2ab8fe46bd)" style="fill: none; stroke-dasharray: 0.5,2.5; stroke-dashoffset: 0; stroke: #cccccc; stroke-width: 0.5"/>
   </g>
   <g id="line2d_10">
    <path d="M 7.2 268.700427 
L 537.2 268.700427 
" clip-path="url(#p2ab8fe46bd)" style="fill: none; stroke-dasharray: 0.5,2.5; stroke-dashoffset: 0; stroke: #cccccc; stroke-width: 0.5"/>
   </g>
   <g id="line2d_11">
    <path d="M 7.2 230.746809 
L 537.2 230.746809 
" clip-path="url(#p2ab8fe46bd)" style="fill: none; stroke-dasharray: 0.5,2.5; stroke-dashoffset: 0; stroke: #cccccc; stroke-width: 0.5"/>
   </g>
   <g id="line2d_12">
    <path d="M 7.2 192.793191 
L 537.2 192.793191 
" clip-path="url(#p2ab8fe46bd)" style="fill: none; stroke-dasharray: 0.5,2.5; stroke-dashoffset: 0; stroke: #cccccc; stroke-width: 0.5"/>
   </g>
   <g id="line2d_13">
    <path d="M 7.2 154.839573 
L 537.2 154.839573 
" clip-path="url(#p2ab8fe46bd)" style="fill: none; stroke-dasharray: 0.5,2.5; stroke-dashoffset: 0; stroke: #cccccc; stroke-width: 0.5"/>
   </g>
   <g id="line2d_14">
    <path d="M 7.2 116.885955 
L 537.2 116.885955 
" clip-path="url(#p2ab8fe46bd)" style="fill: none; stroke-dasharray: 0.5,2.5; stroke-dashoffset: 0; stroke: #cccccc; stroke-width: 0.5"/>
   </g>
   <g id="line2d_15">
    <path d="M 7.2 78.932338 
L 537.2 78.932338 
" clip-path="url(#p2ab8fe46bd)" style="fill: none; stroke-dasharray: 0.5,2.5; stroke-dashoffset: 0; stroke: #cccccc; stroke-width: 0.5"/>
   </g>
   <g id="line2d_16">
    <path d="M 7.2 40.97872 
L 537.2 40.97872 
" clip-path="url(#p2ab8fe46bd)" style="fill: none; stroke-dasharray: 0.5,2.5; stroke-dashoffset: 0; stroke: #cccccc; stroke-width: 0.5"/>
   </g>
   <g id="line2d_17">
    <path d="M 139.177017 416.34 
L 139.177017 375.426 
" clip-path="url(#p2ab8fe46bd)" style="fill: none; stroke-dasharray: 1.85,0.8; stroke-dashoffset: 0; stroke: #bbbbbb; stroke-width: 0.5"/>
   </g>
   <g id="line2d_18">
    <path d="M 74.733532 416.34 
L 74.733532 7.2 
" clip-path="url(#p2ab8fe46bd)" style="fill: none; stroke-dasharray: 1.85,0.8; stroke-dashoffset: 0; stroke: #bbbbbb; stroke-width: 0.5"/>
   </g>
   <g id="patch_3">
    <path d="M 374.257345 132.067403 
L 513.109091 132.067403 
L 513.109091 101.704508 
L 374.257345 101.704508 
L 374.257345 132.067403 
z
" clip-path="url(#p2ab8fe46bd)" style="fill: none; opacity: 0"/>
   </g>
   <g id="patch_4">
    <path d="M 311.476373 170.02102 
L 421.649297 170.02102 
L 421.649297 139.658126 
L 311.476373 139.658126 
L 311.476373 170.02102 
z
" clip-path="url(#p2ab8fe46bd)" style="fill: none; opacity: 0"/>
   </g>
   <g id="patch_5">
    <path d="M 268.613966 207.974638 
L 358.868325 207.974638 
L 358.868325 177.611744 
L 268.613966 177.611744 
L 268.613966 207.974638 
z
" clip-path="url(#p2ab8fe46bd)" style="fill: none; opacity: 0"/>
   </g>
   <g id="patch_6">
    <path d="M 233.442706 245.928256 
L 316.005918 245.928256 
L 316.005918 215.565362 
L 233.442706 215.565362 
L 233.442706 245.928256 
z
" clip-path="url(#p2ab8fe46bd)" style="fill: none; opacity: 0"/>
   </g>
   <g id="patch_7">
    <path d="M 203.632916 283.881874 
L 280.834658 283.881874 
L 280.834658 253.51898 
L 203.632916 253.51898 
L 203.632916 283.881874 
z
" clip-path="url(#p2ab8fe46bd)" style="fill: none; opacity: 0"/>
   </g>
   <g id="patch_8">
    <path d="M 179.326349 321.835492 
L 251.024869 321.835492 
L 251.024869 291.472597 
L 179.326349 291.472597 
L 179.326349 321.835492 
z
" clip-path="url(#p2ab8fe46bd)" style="fill: none; opacity: 0"/>
   </g>
   <g id="patch_9">
    <path d="M 156.783843 359.789109 
L 226.718301 359.789109 
L 226.718301 329.426215 
L 156.783843 329.426215 
L 156.783843 359.789109 
z
" clip-path="url(#p2ab8fe46bd)" style="fill: none; opacity: 0"/>
   </g>
   <g id="patch_10">
    <path d="M 135.227688 397.742727 
L 204.175795 397.742727 
L 204.175795 367.379833 
L 135.227688 367.379833 
L 135.227688 397.742727 
z
" clip-path="url(#p2ab8fe46bd)" style="fill: none; opacity: 0"/>
   </g>
   <g id="patch_11">
    <path d="M 323.69146 56.160167 
L 31.290909 56.160167 
L 31.290909 25.797273 
L 323.69146 25.797273 
L 323.69146 56.160167 
z
" clip-path="url(#p2ab8fe46bd)" style="fill: none; opacity: 0"/>
   </g>
   <g id="patch_12">
    <path d="M 473.615797 94.113785 
L 276.299508 94.113785 
L 276.299508 63.750891 
L 473.615797 63.750891 
L 473.615797 94.113785 
z
" clip-path="url(#p2ab8fe46bd)" style="fill: none; opacity: 0"/>
   </g>
   <g id="patch_13">
    <path d="M 469.666468 116.885955 
L 462.827758 132.067403 
L 462.827758 132.067403 
L 378.206674 132.067403 
L 378.206674 101.704508 
L 462.827758 101.704508 
L 462.827758 101.704508 
z
" clip-path="url(#p2ab8fe46bd)" style="fill: #ff0051; stroke: #ff0051; stroke-linejoin: miter"/>
   </g>
   <g id="patch_14">
    <path d="M 378.206674 154.839573 
L 371.367964 170.02102 
L 371.367964 170.02102 
L 315.425702 170.02102 
L 315.425702 139.658126 
L 371.367964 139.658126 
L 371.367964 139.658126 
z
" clip-path="url(#p2ab8fe46bd)" style="fill: #ff0051; stroke: #ff0051; stroke-linejoin: miter"/>
   </g>
   <g id="patch_15">
    <path d="M 315.425702 192.793191 
L 308.586992 207.974638 
L 308.586992 207.974638 
L 272.563295 207.974638 
L 272.563295 177.611744 
L 308.586992 177.611744 
L 308.586992 177.611744 
z
" clip-path="url(#p2ab8fe46bd)" style="fill: #ff0051; stroke: #ff0051; stroke-linejoin: miter"/>
   </g>
   <g id="patch_16">
    <path d="M 272.563295 230.746809 
L 265.724586 245.928256 
L 265.724586 245.928256 
L 237.392035 245.928256 
L 237.392035 215.565362 
L 265.724586 215.565362 
L 265.724586 215.565362 
z
" clip-path="url(#p2ab8fe46bd)" style="fill: #ff0051; stroke: #ff0051; stroke-linejoin: miter"/>
   </g>
   <g id="patch_17">
    <path d="M 237.392035 268.700427 
L 230.553325 283.881874 
L 230.553325 283.881874 
L 207.582246 283.881874 
L 207.582246 253.51898 
L 230.553325 253.51898 
L 230.553325 253.51898 
z
" clip-path="url(#p2ab8fe46bd)" style="fill: #ff0051; stroke: #ff0051; stroke-linejoin: miter"/>
   </g>
   <g id="patch_18">
    <path d="M 207.582246 306.654045 
L 200.743536 321.835492 
L 200.743536 321.835492 
L 183.275678 321.835492 
L 183.275678 291.472597 
L 200.743536 291.472597 
L 200.743536 291.472597 
z
" clip-path="url(#p2ab8fe46bd)" style="fill: #ff0051; stroke: #ff0051; stroke-linejoin: miter"/>
   </g>
   <g id="patch_19">
    <path d="M 183.275678 344.607662 
L 176.436968 359.789109 
L 176.436968 359.789109 
L 160.733172 359.789109 
L 160.733172 329.426215 
L 176.436968 329.426215 
L 176.436968 329.426215 
z
" clip-path="url(#p2ab8fe46bd)" style="fill: #ff0051; stroke: #ff0051; stroke-linejoin: miter"/>
   </g>
   <g id="patch_20">
    <path d="M 160.733172 382.56128 
L 153.894463 397.742727 
L 153.894463 397.742727 
L 139.177017 397.742727 
L 139.177017 367.379833 
L 153.894463 367.379833 
L 153.894463 367.379833 
z
" clip-path="url(#p2ab8fe46bd)" style="fill: #ff0051; stroke: #ff0051; stroke-linejoin: miter"/>
   </g>
   <g id="patch_21">
    <path d="M 74.733532 40.97872 
L 81.572242 25.797273 
L 81.572242 25.797273 
L 319.742131 25.797273 
L 319.742131 56.160167 
L 81.572242 56.160167 
L 81.572242 56.160167 
z
" clip-path="url(#p2ab8fe46bd)" style="fill: #008bfb; stroke: #008bfb; stroke-linejoin: miter"/>
   </g>
   <g id="patch_22">
    <path d="M 319.742131 78.932338 
L 326.580841 63.750891 
L 326.580841 63.750891 
L 469.666468 63.750891 
L 469.666468 94.113785 
L 326.580841 94.113785 
L 326.580841 94.113785 
z
" clip-path="url(#p2ab8fe46bd)" style="fill: #008bfb; stroke: #008bfb; stroke-linejoin: miter"/>
   </g>
   <g id="matplotlib.axis_1">
    <g id="xtick_1">
     <g id="line2d_19">
      <defs>
       <path id="m1341a55736" d="M 0 0 
L 0 3.5 
" style="stroke: #000000; stroke-width: 0.8"/>
      </defs>
      <g>
       <use xlink:href="#m1341a55736" x="7.723903" y="416.34" style="stroke: #000000; stroke-width: 0.8"/>
      </g>
     </g>
    </g>
    <g id="xtick_2">
     <g id="line2d_20">
      <g>
       <use xlink:href="#m1341a55736" x="77.326042" y="416.34" style="stroke: #000000; stroke-width: 0.8"/>
      </g>
     </g>
    </g>
    <g id="xtick_3">
     <g id="line2d_21">
      <g>
       <use xlink:href="#m1341a55736" x="146.928182" y="416.34" style="stroke: #000000; stroke-width: 0.8"/>
      </g>
     </g>
    </g>
    <g id="xtick_4">
     <g id="line2d_22">
      <g>
       <use xlink:href="#m1341a55736" x="216.530321" y="416.34" style="stroke: #000000; stroke-width: 0.8"/>
      </g>
     </g>
    </g>
    <g id="xtick_5">
     <g id="line2d_23">
      <g>
       <use xlink:href="#m1341a55736" x="286.13246" y="416.34" style="stroke: #000000; stroke-width: 0.8"/>
      </g>
     </g>
    </g>
    <g id="xtick_6">
     <g id="line2d_24">
      <g>
       <use xlink:href="#m1341a55736" x="355.734599" y="416.34" style="stroke: #000000; stroke-width: 0.8"/>
      </g>
     </g>
    </g>
    <g id="xtick_7">
     <g id="line2d_25">
      <g>
       <use xlink:href="#m1341a55736" x="425.336739" y="416.34" style="stroke: #000000; stroke-width: 0.8"/>
      </g>
     </g>
    </g>
    <g id="xtick_8">
     <g id="line2d_26">
      <g>
       <use xlink:href="#m1341a55736" x="494.938878" y="416.34" style="stroke: #000000; stroke-width: 0.8"/>
      </g>
     </g>
    </g>
   </g>
   <g id="matplotlib.axis_2">
    <g id="ytick_1"/>
    <g id="ytick_2"/>
    <g id="ytick_3"/>
    <g id="ytick_4"/>
    <g id="ytick_5"/>
    <g id="ytick_6"/>
    <g id="ytick_7"/>
    <g id="ytick_8"/>
    <g id="ytick_9"/>
    <g id="ytick_10"/>
    <g id="ytick_11"/>
    <g id="ytick_12"/>
    <g id="ytick_13"/>
    <g id="ytick_14"/>
    <g id="ytick_15"/>
    <g id="ytick_16"/>
    <g id="ytick_17"/>
    <g id="ytick_18"/>
    <g id="ytick_19"/>
    <g id="ytick_20"/>
   </g>
   <g id="patch_23">
    <path d="M 7.2 416.34 
L 537.2 416.34 
" style="fill: none; stroke: #000000; stroke-width: 0.8; stroke-linejoin: miter; stroke-linecap: square"/>
   </g>
  </g>
  <g id="axes_2">
   <g id="matplotlib.axis_3">
    <g id="xtick_9">
     <g id="line2d_27">
      <g>
       <use xlink:href="#m1341a55736" x="139.177017" y="416.34" style="stroke: #000000; stroke-width: 0.8"/>
      </g>
     </g>
    </g>
    <g id="xtick_10">
     <g id="line2d_28">
      <g>
       <use xlink:href="#m1341a55736" x="139.177017" y="416.34" style="stroke: #000000; stroke-width: 0.8"/>
      </g>
     </g>
    </g>
   </g>
   <g id="patch_24">
    <path d="M 7.2 416.34 
L 537.2 416.34 
" style="fill: none; stroke: #000000; stroke-width: 0.8; stroke-linejoin: miter; stroke-linecap: square"/>
   </g>
  </g>
  <g id="axes_3">
   <g id="matplotlib.axis_4">
    <g id="xtick_11">
     <g id="line2d_29">
      <defs>
       <path id="mdd4bb978b0" d="M 0 0 
L 0 -3.5 
" style="stroke: #000000; stroke-width: 0.8"/>
      </defs>
      <g>
       <use xlink:href="#mdd4bb978b0" x="74.733532" y="7.2" style="stroke: #000000; stroke-width: 0.8"/>
      </g>
     </g>
    </g>
    <g id="xtick_12">
     <g id="line2d_30">
      <g>
       <use xlink:href="#mdd4bb978b0" x="74.733532" y="7.2" style="stroke: #000000; stroke-width: 0.8"/>
      </g>
     </g>
    </g>
   </g>
   <g id="patch_25">
    <path d="M 7.2 416.34 
L 537.2 416.34 
" style="fill: none; stroke: #000000; stroke-width: 0.8; stroke-linejoin: miter; stroke-linecap: square"/>
   </g>
  </g>
 </g>
 <defs>
  <clipPath id="p2ab8fe46bd">
   <rect x="7.2" y="7.2" width="530" height="409.14"/>
  </clipPath>
 </defs>
</svg>
