<?xml version="1.0" encoding="utf-8" standalone="no"?>
<!DOCTYPE svg PUBLIC "-//W3C//DTD SVG 1.1//EN"
  "http://www.w3.org/Graphics/SVG/1.1/DTD/svg11.dtd">
<svg xmlns:xlink="http://www.w3.org/1999/xlink" width="544.4pt" height="427.04pt" viewBox="0 0 544.4 427.04" xmlns="http://www.w3.org/2000/svg" version="1.1">
 <metadata>
  <rdf:RDF xmlns:dc="http://purl.org/dc/elements/1.1/" xmlns:cc="http://creativecommons.org/ns#" xmlns:rdf="http://www.w3.org/1999/02/22-rdf-syntax-ns#">
   <cc:Work>
    <dc:type rdf:resource="http://purl.org/dc/dcmitype/StillImage"/>
    <dc:date>2026-06-21T11:38:35.068856</dc:date>
    <dc:format>image/svg+xml</dc:format>
    <dc:creator>
     <cc:Agent>
      <dc:title>Matplotlib v3.9.4, https://matplotlib.org/</dc:title>
     </cc:Agent>
    </dc:creator>
   </cc:Work>
  </rdf:RDF>
 </metadata>
 <defs>
  <style type="text/css">*{stroke-linejoin: round; stroke-linecap: butt}</style>
 </defs>
 <g id="figure_1">
  <g id="patch_1">
   <path d="M 0 427.04 
L 544.4 427.04 
L 544.4 0 
L 0 0 
z
" style="fill: #ffffff"/>
  </g>
  <g id="axes_1">
   <g id="patch_2">
    <path d="M 7.2 416.34 
L 537.2 416.34 
L 537.2 7.2 
L 7.2 7.2 
z
" style="fill: #ffffff"/>
   </g>
   <g id="line2d_1">
    <path d="M 250.75652 94.113785 
L 250.75652 25.797273 
" clip-path="url(#pcb33a349dc)" style="fill: none; stroke-dasharray: 1.85,0.8; stroke-dashoffset: 0; stroke: #bbbbbb; stroke-width: 0.5"/>
   </g>
   <g id="line2d_2">
    <path d="M 188.479983 132.067403 
L 188.479983 63.750891 
" clip-path="url(#pcb33a349dc)" style="fill: none; stroke-dasharray: 1.85,0.8; stroke-dashoffset: 0; stroke: #bbbbbb; stroke-width: 0.5"/>
   </g>
   <g id="line2d_3">
    <path d="M 133.966886 170.02102 
L 133.966886 101.704508 
" clip-path="url(#pcb33a349dc)" style="fill: none; stroke-dasharray: 1.85,0.8; stroke-dashoffset: 0; stroke: #bbbbbb; stroke-width: 0.5"/>
   </g>
   <g id="line2d_4">
    <path d="M 84.88791 207.974638 
L 84.88791 139.658126 
" clip-path="url(#pcb33a349dc)" style="fill: none; stroke-dasharray: 1.85,0.8; stroke-dashoffset: 0; stroke: #bbbbbb; stroke-width: 0.5"/>
   </g>
   <g id="line2d_5">
    <path d="M 126.245622 245.928256 
L 126.245622 177.611744 
" clip-path="url(#pcb33a349dc)" style="fill: none; stroke-dasharray: 1.85,0.8; stroke-dashoffset: 0; stroke: #bbbbbb; stroke-width: 0.5"/>
   </g>
   <g id="line2d_6">
    <path d="M 99.171932 283.881874 
L 99.171932 215.565362 
" clip-path="url(#pcb33a349dc)" style="fill: none; stroke-dasharray: 1.85,0.8; stroke-dashoffset: 0; stroke: #bbbbbb; stroke-width: 0.5"/>
   </g>
   <g id="line2d_7">
    <path d="M 7.2 382.56128 
L 537.2 382.56128 
" clip-path="url(#pcb33a349dc)" style="fill: none; stroke-dasharray: 0.5,2.5; stroke-dashoffset: 0; stroke: #cccccc; stroke-width: 0.5"/>
   </g>
   <g id="line2d_8">
    <path d="M 7.2 344.607662 
L 537.2 344.607662 
" clip-path="url(#pcb33a349dc)" style="fill: none; stroke-dasharray: 0.5,2.5; stroke-dashoffset: 0; stroke: #cccccc; stroke-width: 0.5"/>
   </g>
   <g id="line2d_9">
    <path d="M 7.2 306.654045 
L 537.2 306.654045 
" clip-path="url(#pcb33a349dc)" style="fill: none; stroke-dasharray: 0.5,2.5; stroke-dashoffset: 0; stroke: #cccccc; stroke-width: 0.5"/>
   </g>
   <g id="line2d_10">
    <path d="M 7.2 268.700427 
L 537.2 268.700427 
" clip-path="url(#pcb33a349dc)" style="fill: none; stroke-dasharray: 0.5,2.5; stroke-dashoffset: 0; stroke: #cccccc; stroke-width: 0.5"/>
   </g>
   <g id="line2d_11">
    <path d="M 7.2 230.746809 
L 537.2 230.746809 
" clip-path="url(#pcb33a349dc)" style="fill: none; stroke-dasharray: 0.5,2.5; stroke-dashoffset: 0; stroke: #cccccc; stroke-width: 0.5"/>
   </g>
   <g id="line2d_12">
    <path d="M 7.2 192.793191 
L 537.2 192.793191 
" clip-path="url(#pcb33a349dc)" style="fill: none; stroke-dasharray: 0.5,2.5; stroke-dashoffset: 0; stroke: #cccccc; stroke-width: 0.5"/>
   </g>
   <g id="line2d_13">
    <path d="M 7.2 154.839573 
L 537.2 154.839573 
" clip-path="url(#pcb33a349dc)" style="fill: none; stroke-dasharray: 0.5,2.5; stroke-dashoffset: 0; stroke: #cccccc; stroke-width: 0.5"/>
   </g>
   <g id="line2d_14">
    <path d="M 7.2 116.885955 
L 537.2 116.885955 
" clip-path="url(#pcb33a349dc)" style="fill: none; stroke-dasharray: 0.5,2.5; stroke-dashoffset: 0; stroke: #cccccc; stroke-width: 0.5"/>
   </g>
   <g id="line2d_15">
    <path d="M 7.2 78.932338 
L 537.2 78.932338 
" clip-path="url(#pcb33a349dc)" style="fill: none; stroke-dasharray: 0.5,2.5; stroke-dashoffset: 0; stroke: #cccccc; stroke-width: 0.5"/>
   </g>
   <g id="line2d_16">
    <path d="M 7.2 40.97872 
L 537.2 40.97872 
" clip-path="url(#pcb33a349dc)" style="fill: none; stroke-dasharray: 0.5,2.5; stroke-dashoffset: 0; stroke: #cccccc; stroke-width: 0.5"/>
   </g>
   <g id="line2d_17">
    <path d="M 140.985082 416.34 
L 140.985082 375.426 
" clip-path="url(#pcb33a349dc)" style="fill: none; stroke-dasharray: 1.85,0.8; stroke-dashoffset: 0; stroke: #bbbbbb; stroke-width: 0.5"/>
   </g>
   <g id="line2d_18">
    <path d="M 469.666468 416.34 
L 469.666468 7.2 
" clip-path="url(#pcb33a349dc)" style="fill: none; stroke-dasharray: 1.85,0.8; stroke-dashoffset: 0; stroke: #bbbbbb; stroke-width: 0.5"/>
   </g>
   <g id="patch_3">
    <path d="M 246.807191 56.160167 
L 513.109091 56.160167 
L 513.109091 25.797273 
L 246.807191 25.797273 
L 246.807191 56.160167 
z
" clip-path="url(#pcb33a349dc)" style="fill: none; opacity: 0"/>
   </g>
   <g id="patch_4">
    <path d="M 184.530653 94.113785 
L 294.199143 94.113785 
L 294.199143 63.750891 
L 184.530653 63.750891 
L 184.530653 94.113785 
z
" clip-path="url(#pcb33a349dc)" style="fill: none; opacity: 0"/>
   </g>
   <g id="patch_5">
    <path d="M 130.017557 132.067403 
L 231.922606 132.067403 
L 231.922606 101.704508 
L 130.017557 101.704508 
L 130.017557 132.067403 
z
" clip-path="url(#pcb33a349dc)" style="fill: none; opacity: 0"/>
   </g>
   <g id="patch_6">
    <path d="M 80.938581 170.02102 
L 177.409509 170.02102 
L 177.409509 139.658126 
L 80.938581 139.658126 
L 80.938581 170.02102 
z
" clip-path="url(#pcb33a349dc)" style="fill: none; opacity: 0"/>
   </g>
   <g id="patch_7">
    <path d="M 95.222602 245.928256 
L 169.688245 245.928256 
L 169.688245 215.565362 
L 95.222602 215.565362 
L 95.222602 245.928256 
z
" clip-path="url(#pcb33a349dc)" style="fill: none; opacity: 0"/>
   </g>
   <g id="patch_8">
    <path d="M 70.784203 283.881874 
L 142.614555 283.881874 
L 142.614555 253.51898 
L 70.784203 253.51898 
L 70.784203 283.881874 
z
" clip-path="url(#pcb33a349dc)" style="fill: none; opacity: 0"/>
   </g>
   <g id="patch_9">
    <path d="M 130.194951 207.974638 
L 41.445287 207.974638 
L 41.445287 177.611744 
L 130.194951 177.611744 
L 130.194951 207.974638 
z
" clip-path="url(#pcb33a349dc)" style="fill: none; opacity: 0"/>
   </g>
   <g id="patch_10">
    <path d="M 102.923164 321.835492 
L 31.290909 321.835492 
L 31.290909 291.472597 
L 102.923164 291.472597 
L 102.923164 321.835492 
z
" clip-path="url(#pcb33a349dc)" style="fill: none; opacity: 0"/>
   </g>
   <g id="patch_11">
    <path d="M 125.477181 359.789109 
L 55.531212 359.789109 
L 55.531212 329.426215 
L 125.477181 329.426215 
L 125.477181 359.789109 
z
" clip-path="url(#pcb33a349dc)" style="fill: none; opacity: 0"/>
   </g>
   <g id="patch_12">
    <path d="M 144.934411 397.742727 
L 78.085228 397.742727 
L 78.085228 367.379833 
L 144.934411 367.379833 
L 144.934411 397.742727 
z
" clip-path="url(#pcb33a349dc)" style="fill: none; opacity: 0"/>
   </g>
   <g id="patch_13">
    <path d="M 469.666468 40.97872 
L 462.827758 56.160167 
L 462.827758 56.160167 
L 250.75652 56.160167 
L 250.75652 25.797273 
L 462.827758 25.797273 
L 462.827758 25.797273 
z
" clip-path="url(#pcb33a349dc)" style="fill: #ff0051; stroke: #ff0051; stroke-linejoin: miter"/>
   </g>
   <g id="patch_14">
    <path d="M 250.75652 78.932338 
L 243.917811 94.113785 
L 243.917811 94.113785 
L 188.479983 94.113785 
L 188.479983 63.750891 
L 243.917811 63.750891 
L 243.917811 63.750891 
z
" clip-path="url(#pcb33a349dc)" style="fill: #ff0051; stroke: #ff0051; stroke-linejoin: miter"/>
   </g>
   <g id="patch_15">
    <path d="M 188.479983 116.885955 
L 181.641273 132.067403 
L 181.641273 132.067403 
L 133.966886 132.067403 
L 133.966886 101.704508 
L 181.641273 101.704508 
L 181.641273 101.704508 
z
" clip-path="url(#pcb33a349dc)" style="fill: #ff0051; stroke: #ff0051; stroke-linejoin: miter"/>
   </g>
   <g id="patch_16">
    <path d="M 133.966886 154.839573 
L 127.128176 170.02102 
L 127.128176 170.02102 
L 84.88791 170.02102 
L 84.88791 139.658126 
L 127.128176 139.658126 
L 127.128176 139.658126 
z
" clip-path="url(#pcb33a349dc)" style="fill: #ff0051; stroke: #ff0051; stroke-linejoin: miter"/>
   </g>
   <g id="patch_17">
    <path d="M 126.245622 230.746809 
L 119.406912 245.928256 
L 119.406912 245.928256 
L 99.171932 245.928256 
L 99.171932 215.565362 
L 119.406912 215.565362 
L 119.406912 215.565362 
z
" clip-path="url(#pcb33a349dc)" style="fill: #ff0051; stroke: #ff0051; stroke-linejoin: miter"/>
   </g>
   <g id="patch_18">
    <path d="M 99.171932 268.700427 
L 92.333222 283.881874 
L 92.333222 283.881874 
L 74.733532 283.881874 
L 74.733532 253.51898 
L 92.333222 253.51898 
L 92.333222 253.51898 
z
" clip-path="url(#pcb33a349dc)" style="fill: #ff0051; stroke: #ff0051; stroke-linejoin: miter"/>
   </g>
   <g id="patch_19">
    <path d="M 84.88791 192.793191 
L 91.72662 177.611744 
L 91.72662 177.611744 
L 126.245622 177.611744 
L 126.245622 207.974638 
L 91.72662 207.974638 
L 91.72662 207.974638 
z
" clip-path="url(#pcb33a349dc)" style="fill: #008bfb; stroke: #008bfb; stroke-linejoin: miter"/>
   </g>
   <g id="patch_20">
    <path d="M 74.733532 306.654045 
L 81.572242 291.472597 
L 81.572242 291.472597 
L 98.973835 291.472597 
L 98.973835 321.835492 
L 81.572242 321.835492 
L 81.572242 321.835492 
z
" clip-path="url(#pcb33a349dc)" style="fill: #008bfb; stroke: #008bfb; stroke-linejoin: miter"/>
   </g>
   <g id="patch_21">
    <path d="M 98.973835 344.607662 
L 105.812544 329.426215 
L 105.812544 329.426215 
L 121.527851 329.426215 
L 121.527851 359.789109 
L 105.812544 359.789109 
L 105.812544 359.789109 
z
" clip-path="url(#pcb33a349dc)" style="fill: #008bfb; stroke: #008bfb; stroke-linejoin: miter"/>
   </g>
   <g id="patch_22">
    <path d="M 121.527851 382.56128 
L 128.366561 367.379833 
L 128.366561 367.379833 
L 140.985082 367.379833 
L 140.985082 397.742727 
L 128.366561 397.742727 
L 128.366561 397.742727 
z
" clip-path="url(#pcb33a349dc)" style="fill: #008bfb; stroke: #008bfb; stroke-linejoin: miter"/>
   </g>
   <g id="matplotlib.axis_1">
    <g id="xtick_1">
     <g id="line2d_19">
      <defs>
       <path id="m42ad6cf98f" d="M 0 0 
L 0 3.5 
" style="stroke: #000000; stroke-width: 0.8"/>
      </defs>
      <g>
       <use xlink:href="#m42ad6cf98f" x="9.136204" y="416.34" style="stroke: #000000; stroke-width: 0.8"/>
      </g>
     </g>
    </g>
    <g id="xtick_2">
     <g id="line2d_20">
      <g>
       <use xlink:href="#m42ad6cf98f" x="79.083713" y="416.34" style="stroke: #000000; stroke-width: 0.8"/>
      </g>
     </g>
    </g>
    <g id="xtick_3">
     <g id="line2d_21">
      <g>
       <use xlink:href="#m42ad6cf98f" x="149.031222" y="416.34" style="stroke: #000000; stroke-width: 0.8"/>
      </g>
     </g>
    </g>
    <g id="xtick_4">
     <g id="line2d_22">
      <g>
       <use xlink:href="#m42ad6cf98f" x="218.978732" y="416.34" style="stroke: #000000; stroke-width: 0.8"/>
      </g>
     </g>
    </g>
    <g id="xtick_5">
     <g id="line2d_23">
      <g>
       <use xlink:href="#m42ad6cf98f" x="288.926241" y="416.34" style="stroke: #000000; stroke-width: 0.8"/>
      </g>
     </g>
    </g>
    <g id="xtick_6">
     <g id="line2d_24">
      <g>
       <use xlink:href="#m42ad6cf98f" x="358.873751" y="416.34" style="stroke: #000000; stroke-width: 0.8"/>
      </g>
     </g>
    </g>
    <g id="xtick_7">
     <g id="line2d_25">
      <g>
       <use xlink:href="#m42ad6cf98f" x="428.82126" y="416.34" style="stroke: #000000; stroke-width: 0.8"/>
      </g>
     </g>
    </g>
    <g id="xtick_8">
     <g id="line2d_26">
      <g>
       <use xlink:href="#m42ad6cf98f" x="498.76877" y="416.34" style="stroke: #000000; stroke-width: 0.8"/>
      </g>
     </g>
    </g>
   </g>
   <g id="matplotlib.axis_2">
    <g id="ytick_1"/>
    <g id="ytick_2"/>
    <g id="ytick_3"/>
    <g id="ytick_4"/>
    <g id="ytick_5"/>
    <g id="ytick_6"/>
    <g id="ytick_7"/>
    <g id="ytick_8"/>
    <g id="ytick_9"/>
    <g id="ytick_10"/>
    <g id="ytick_11"/>
    <g id="ytick_12"/>
    <g id="ytick_13"/>
    <g id="ytick_14"/>
    <g id="ytick_15"/>
    <g id="ytick_16"/>
    <g id="ytick_17"/>
    <g id="ytick_18"/>
    <g id="ytick_19"/>
    <g id="ytick_20"/>
   </g>
   <g id="patch_23">
    <path d="M 7.2 416.34 
L 537.2 416.34 
" style="fill: none; stroke: #000000; stroke-width: 0.8; stroke-linejoin: miter; stroke-linecap: square"/>
   </g>
  </g>
  <g id="axes_2">
   <g id="matplotlib.axis_3">
    <g id="xtick_9">
     <g id="line2d_27">
      <g>
       <use xlink:href="#m42ad6cf98f" x="140.985082" y="416.34" style="stroke: #000000; stroke-width: 0.8"/>
      </g>
     </g>
    </g>
    <g id="xtick_10">
     <g id="line2d_28">
      <g>
       <use xlink:href="#m42ad6cf98f" x="140.985082" y="416.34" style="stroke: #000000; stroke-width: 0.8"/>
      </g>
     </g>
    </g>
   </g>
   <g id="patch_24">
    <path d="M 7.2 416.34 
L 537.2 416.34 
" style="fill: none; stroke: #000000; stroke-width: 0.8; stroke-linejoin: miter; stroke-linecap: square"/>
   </g>
  </g>
  <g id="axes_3">
   <g id="matplotlib.axis_4">
    <g id="xtick_11">
     <g id="line2d_29">
      <defs>
       <path id="m8d9cde8460" d="M 0 0 
L 0 -3.5 
" style="stroke: #000000; stroke-width: 0.8"/>
      </defs>
      <g>
       <use xlink:href="#m8d9cde8460" x="469.666468" y="7.2" style="stroke: #000000; stroke-width: 0.8"/>
      </g>
     </g>
    </g>
    <g id="xtick_12">
     <g id="line2d_30">
      <g>
       <use xlink:href="#m8d9cde8460" x="469.666468" y="7.2" style="stroke: #000000; stroke-width: 0.8"/>
      </g>
     </g>
    </g>
   </g>
   <g id="patch_25">
    <path d="M 7.2 416.34 
L 537.2 416.34 
" style="fill: none; stroke: #000000; stroke-width: 0.8; stroke-linejoin: miter; stroke-linecap: square"/>
   </g>
  </g>
 </g>
 <defs>
  <clipPath id="pcb33a349dc">
   <rect x="7.2" y="7.2" width="530" height="409.14"/>
  </clipPath>
 </defs>
</svg>
