<?xml version="1.0" encoding="utf-8" standalone="no"?>
<!DOCTYPE svg PUBLIC "-//W3C//DTD SVG 1.1//EN"
  "http://www.w3.org/Graphics/SVG/1.1/DTD/svg11.dtd">
<svg xmlns:xlink="http://www.w3.org/1999/xlink" width="544.4pt" height="427.04pt" viewBox="0 0 544.4 427.04" xmlns="http://www.w3.org/2000/svg" version="1.1">
 <metadata>
  <rdf:RDF xmlns:dc="http://purl.org/dc/elements/1.1/" xmlns:cc="http://creativecommons.org/ns#" xmlns:rdf="http://www.w3.org/1999/02/22-rdf-syntax-ns#">
   <cc:Work>
    <dc:type rdf:resource="http://purl.org/dc/dcmitype/StillImage"/>
    <dc:date>2026-06-21T11:40:38.675312</dc:date>
    <dc:format>image/svg+xml</dc:format>
    <dc:creator>
     <cc:Agent>
      <dc:title>Matplotlib v3.9.4, https://matplotlib.org/</dc:title>
     </cc:Agent>
    </dc:creator>
   </cc:Work>
  </rdf:RDF>
 </metadata>
 <defs>
  <style type="text/css">*{stroke-linejoin: round; stroke-linecap: butt}</style>
 </defs>
 <g id="figure_1">
  <g id="patch_1">
   <path d="M 0 427.04 
L 544.4 427.04 
L 544.4 0 
L 0 0 
z
" style="fill: #ffffff"/>
  </g>
  <g id="axes_1">
   <g id="patch_2">
    <path d="M 7.2 416.34 
L 537.2 416.34 
L 537.2 7.2 
L 7.2 7.2 
z
" style="fill: #ffffff"/>
   </g>
   <g id="line2d_1">
    <path d="M 305.862862 94.113785 
L 305.862862 25.797273 
" clip-path="url(#pf9c2ead473)" style="fill: none; stroke-dasharray: 1.85,0.8; stroke-dashoffset: 0; stroke: #bbbbbb; stroke-width: 0.5"/>
   </g>
   <g id="line2d_2">
    <path d="M 465.787662 132.067403 
L 465.787662 63.750891 
" clip-path="url(#pf9c2ead473)" style="fill: none; stroke-dasharray: 1.85,0.8; stroke-dashoffset: 0; stroke: #bbbbbb; stroke-width: 0.5"/>
   </g>
   <g id="line2d_3">
    <path d="M 376.788653 170.02102 
L 376.788653 101.704508 
" clip-path="url(#pf9c2ead473)" style="fill: none; stroke-dasharray: 1.85,0.8; stroke-dashoffset: 0; stroke: #bbbbbb; stroke-width: 0.5"/>
   </g>
   <g id="line2d_4">
    <path d="M 401.430682 207.974638 
L 401.430682 139.658126 
" clip-path="url(#pf9c2ead473)" style="fill: none; stroke-dasharray: 1.85,0.8; stroke-dashoffset: 0; stroke: #bbbbbb; stroke-width: 0.5"/>
   </g>
   <g id="line2d_5">
    <path d="M 425.64099 245.928256 
L 425.64099 177.611744 
" clip-path="url(#pf9c2ead473)" style="fill: none; stroke-dasharray: 1.85,0.8; stroke-dashoffset: 0; stroke: #bbbbbb; stroke-width: 0.5"/>
   </g>
   <g id="line2d_6">
    <path d="M 439.970174 283.881874 
L 439.970174 215.565362 
" clip-path="url(#pf9c2ead473)" style="fill: none; stroke-dasharray: 1.85,0.8; stroke-dashoffset: 0; stroke: #bbbbbb; stroke-width: 0.5"/>
   </g>
   <g id="line2d_7">
    <path d="M 7.2 382.56128 
L 537.2 382.56128 
" clip-path="url(#pf9c2ead473)" style="fill: none; stroke-dasharray: 0.5,2.5; stroke-dashoffset: 0; stroke: #cccccc; stroke-width: 0.5"/>
   </g>
   <g id="line2d_8">
    <path d="M 7.2 344.607662 
L 537.2 344.607662 
" clip-path="url(#pf9c2ead473)" style="fill: none; stroke-dasharray: 0.5,2.5; stroke-dashoffset: 0; stroke: #cccccc; stroke-width: 0.5"/>
   </g>
   <g id="line2d_9">
    <path d="M 7.2 306.654045 
L 537.2 306.654045 
" clip-path="url(#pf9c2ead473)" style="fill: none; stroke-dasharray: 0.5,2.5; stroke-dashoffset: 0; stroke: #cccccc; stroke-width: 0.5"/>
   </g>
   <g id="line2d_10">
    <path d="M 7.2 268.700427 
L 537.2 268.700427 
" clip-path="url(#pf9c2ead473)" style="fill: none; stroke-dasharray: 0.5,2.5; stroke-dashoffset: 0; stroke: #cccccc; stroke-width: 0.5"/>
   </g>
   <g id="line2d_11">
    <path d="M 7.2 230.746809 
L 537.2 230.746809 
" clip-path="url(#pf9c2ead473)" style="fill: none; stroke-dasharray: 0.5,2.5; stroke-dashoffset: 0; stroke: #cccccc; stroke-width: 0.5"/>
   </g>
   <g id="line2d_12">
    <path d="M 7.2 192.793191 
L 537.2 192.793191 
" clip-path="url(#pf9c2ead473)" style="fill: none; stroke-dasharray: 0.5,2.5; stroke-dashoffset: 0; stroke: #cccccc; stroke-width: 0.5"/>
   </g>
   <g id="line2d_13">
    <path d="M 7.2 154.839573 
L 537.2 154.839573 
" clip-path="url(#pf9c2ead473)" style="fill: none; stroke-dasharray: 0.5,2.5; stroke-dashoffset: 0; stroke: #cccccc; stroke-width: 0.5"/>
   </g>
   <g id="line2d_14">
    <path d="M 7.2 116.885955 
L 537.2 116.885955 
" clip-path="url(#pf9c2ead473)" style="fill: none; stroke-dasharray: 0.5,2.5; stroke-dashoffset: 0; stroke: #cccccc; stroke-width: 0.5"/>
   </g>
   <g id="line2d_15">
    <path d="M 7.2 78.932338 
L 537.2 78.932338 
" clip-path="url(#pf9c2ead473)" style="fill: none; stroke-dasharray: 0.5,2.5; stroke-dashoffset: 0; stroke: #cccccc; stroke-width: 0.5"/>
   </g>
   <g id="line2d_16">
    <path d="M 7.2 40.97872 
L 537.2 40.97872 
" clip-path="url(#pf9c2ead473)" style="fill: none; stroke-dasharray: 0.5,2.5; stroke-dashoffset: 0; stroke: #cccccc; stroke-width: 0.5"/>
   </g>
   <g id="line2d_17">
    <path d="M 413.522145 416.34 
L 413.522145 375.426 
" clip-path="url(#pf9c2ead473)" style="fill: none; stroke-dasharray: 1.85,0.8; stroke-dashoffset: 0; stroke: #bbbbbb; stroke-width: 0.5"/>
   </g>
   <g id="line2d_18">
    <path d="M 35.592857 416.34 
L 35.592857 7.2 
" clip-path="url(#pf9c2ead473)" style="fill: none; stroke-dasharray: 1.85,0.8; stroke-dashoffset: 0; stroke: #bbbbbb; stroke-width: 0.5"/>
   </g>
   <g id="patch_3">
    <path d="M 372.486705 132.067403 
L 513.109091 132.067403 
L 513.109091 101.704508 
L 372.486705 101.704508 
L 372.486705 132.067403 
z
" clip-path="url(#pf9c2ead473)" style="fill: none; opacity: 0"/>
   </g>
   <g id="patch_4">
    <path d="M 422.439686 283.881874 
L 487.291603 283.881874 
L 487.291603 253.51898 
L 422.439686 253.51898 
L 422.439686 283.881874 
z
" clip-path="url(#pf9c2ead473)" style="fill: none; opacity: 0"/>
   </g>
   <g id="patch_5">
    <path d="M 409.281871 321.835492 
L 474.063062 321.835492 
L 474.063062 291.472597 
L 409.281871 291.472597 
L 409.281871 321.835492 
z
" clip-path="url(#pf9c2ead473)" style="fill: none; opacity: 0"/>
   </g>
   <g id="patch_6">
    <path d="M 399.683186 359.789109 
L 460.905248 359.789109 
L 460.905248 329.426215 
L 399.683186 329.426215 
L 399.683186 359.789109 
z
" clip-path="url(#pf9c2ead473)" style="fill: none; opacity: 0"/>
   </g>
   <g id="patch_7">
    <path d="M 310.16481 56.160167 
L 31.290909 56.160167 
L 31.290909 25.797273 
L 310.16481 25.797273 
L 310.16481 56.160167 
z
" clip-path="url(#pf9c2ead473)" style="fill: none; opacity: 0"/>
   </g>
   <g id="patch_8">
    <path d="M 470.08961 94.113785 
L 258.541434 94.113785 
L 258.541434 63.750891 
L 470.08961 63.750891 
L 470.08961 94.113785 
z
" clip-path="url(#pf9c2ead473)" style="fill: none; opacity: 0"/>
   </g>
   <g id="patch_9">
    <path d="M 405.73263 170.02102 
L 329.467225 170.02102 
L 329.467225 139.658126 
L 405.73263 139.658126 
L 405.73263 170.02102 
z
" clip-path="url(#pf9c2ead473)" style="fill: none; opacity: 0"/>
   </g>
   <g id="patch_10">
    <path d="M 429.942938 207.974638 
L 354.109253 207.974638 
L 354.109253 177.611744 
L 429.942938 177.611744 
L 429.942938 207.974638 
z
" clip-path="url(#pf9c2ead473)" style="fill: none; opacity: 0"/>
   </g>
   <g id="patch_11">
    <path d="M 444.272122 245.928256 
L 378.319561 245.928256 
L 378.319561 215.565362 
L 444.272122 215.565362 
L 444.272122 245.928256 
z
" clip-path="url(#pf9c2ead473)" style="fill: none; opacity: 0"/>
   </g>
   <g id="patch_12">
    <path d="M 417.824093 397.742727 
L 356.663705 397.742727 
L 356.663705 367.379833 
L 417.824093 367.379833 
L 417.824093 397.742727 
z
" clip-path="url(#pf9c2ead473)" style="fill: none; opacity: 0"/>
   </g>
   <g id="patch_13">
    <path d="M 465.787662 116.885955 
L 458.948953 132.067403 
L 458.948953 132.067403 
L 376.788653 132.067403 
L 376.788653 101.704508 
L 458.948953 101.704508 
L 458.948953 101.704508 
z
" clip-path="url(#pf9c2ead473)" style="fill: #ff0051; stroke: #ff0051; stroke-linejoin: miter"/>
   </g>
   <g id="patch_14">
    <path d="M 439.970174 268.700427 
L 433.131464 283.881874 
L 433.131464 283.881874 
L 426.741634 283.881874 
L 426.741634 253.51898 
L 433.131464 253.51898 
L 433.131464 253.51898 
z
" clip-path="url(#pf9c2ead473)" style="fill: #ff0051; stroke: #ff0051; stroke-linejoin: miter"/>
   </g>
   <g id="patch_15">
    <path d="M 426.741634 306.654045 
L 419.902924 321.835492 
L 419.902924 321.835492 
L 413.583819 321.835492 
L 413.583819 291.472597 
L 419.902924 291.472597 
L 419.902924 291.472597 
z
" clip-path="url(#pf9c2ead473)" style="fill: #ff0051; stroke: #ff0051; stroke-linejoin: miter"/>
   </g>
   <g id="patch_16">
    <path d="M 413.583819 344.607662 
L 406.74511 359.789109 
L 406.74511 359.789109 
L 403.985134 359.789109 
L 403.985134 329.426215 
L 406.74511 329.426215 
L 406.74511 329.426215 
z
" clip-path="url(#pf9c2ead473)" style="fill: #ff0051; stroke: #ff0051; stroke-linejoin: miter"/>
   </g>
   <g id="patch_17">
    <path d="M 35.592857 40.97872 
L 42.431567 25.797273 
L 42.431567 25.797273 
L 305.862862 25.797273 
L 305.862862 56.160167 
L 42.431567 56.160167 
L 42.431567 56.160167 
z
" clip-path="url(#pf9c2ead473)" style="fill: #008bfb; stroke: #008bfb; stroke-linejoin: miter"/>
   </g>
   <g id="patch_18">
    <path d="M 305.862862 78.932338 
L 312.701572 63.750891 
L 312.701572 63.750891 
L 465.787662 63.750891 
L 465.787662 94.113785 
L 312.701572 94.113785 
L 312.701572 94.113785 
z
" clip-path="url(#pf9c2ead473)" style="fill: #008bfb; stroke: #008bfb; stroke-linejoin: miter"/>
   </g>
   <g id="patch_19">
    <path d="M 376.788653 154.839573 
L 383.627363 139.658126 
L 383.627363 139.658126 
L 401.430682 139.658126 
L 401.430682 170.02102 
L 383.627363 170.02102 
L 383.627363 170.02102 
z
" clip-path="url(#pf9c2ead473)" style="fill: #008bfb; stroke: #008bfb; stroke-linejoin: miter"/>
   </g>
   <g id="patch_20">
    <path d="M 401.430682 192.793191 
L 408.269392 177.611744 
L 408.269392 177.611744 
L 425.64099 177.611744 
L 425.64099 207.974638 
L 408.269392 207.974638 
L 408.269392 207.974638 
z
" clip-path="url(#pf9c2ead473)" style="fill: #008bfb; stroke: #008bfb; stroke-linejoin: miter"/>
   </g>
   <g id="patch_21">
    <path d="M 425.64099 230.746809 
L 432.479699 215.565362 
L 432.479699 215.565362 
L 439.970174 215.565362 
L 439.970174 245.928256 
L 432.479699 245.928256 
L 432.479699 245.928256 
z
" clip-path="url(#pf9c2ead473)" style="fill: #008bfb; stroke: #008bfb; stroke-linejoin: miter"/>
   </g>
   <g id="patch_22">
    <path d="M 403.985134 382.56128 
L 410.823843 367.379833 
L 410.823843 367.379833 
L 413.522145 367.379833 
L 413.522145 397.742727 
L 410.823843 397.742727 
L 410.823843 397.742727 
z
" clip-path="url(#pf9c2ead473)" style="fill: #008bfb; stroke: #008bfb; stroke-linejoin: miter"/>
   </g>
   <g id="matplotlib.axis_1">
    <g id="xtick_1">
     <g id="line2d_19">
      <defs>
       <path id="m21c147c7df" d="M 0 0 
L 0 3.5 
" style="stroke: #000000; stroke-width: 0.8"/>
      </defs>
      <g>
       <use xlink:href="#m21c147c7df" x="10.141474" y="416.34" style="stroke: #000000; stroke-width: 0.8"/>
      </g>
     </g>
    </g>
    <g id="xtick_2">
     <g id="line2d_20">
      <g>
       <use xlink:href="#m21c147c7df" x="112.391929" y="416.34" style="stroke: #000000; stroke-width: 0.8"/>
      </g>
     </g>
    </g>
    <g id="xtick_3">
     <g id="line2d_21">
      <g>
       <use xlink:href="#m21c147c7df" x="214.642384" y="416.34" style="stroke: #000000; stroke-width: 0.8"/>
      </g>
     </g>
    </g>
    <g id="xtick_4">
     <g id="line2d_22">
      <g>
       <use xlink:href="#m21c147c7df" x="316.892839" y="416.34" style="stroke: #000000; stroke-width: 0.8"/>
      </g>
     </g>
    </g>
    <g id="xtick_5">
     <g id="line2d_23">
      <g>
       <use xlink:href="#m21c147c7df" x="419.143294" y="416.34" style="stroke: #000000; stroke-width: 0.8"/>
      </g>
     </g>
    </g>
    <g id="xtick_6">
     <g id="line2d_24">
      <g>
       <use xlink:href="#m21c147c7df" x="521.393749" y="416.34" style="stroke: #000000; stroke-width: 0.8"/>
      </g>
     </g>
    </g>
   </g>
   <g id="matplotlib.axis_2">
    <g id="ytick_1"/>
    <g id="ytick_2"/>
    <g id="ytick_3"/>
    <g id="ytick_4"/>
    <g id="ytick_5"/>
    <g id="ytick_6"/>
    <g id="ytick_7"/>
    <g id="ytick_8"/>
    <g id="ytick_9"/>
    <g id="ytick_10"/>
    <g id="ytick_11"/>
    <g id="ytick_12"/>
    <g id="ytick_13"/>
    <g id="ytick_14"/>
    <g id="ytick_15"/>
    <g id="ytick_16"/>
    <g id="ytick_17"/>
    <g id="ytick_18"/>
    <g id="ytick_19"/>
    <g id="ytick_20"/>
   </g>
   <g id="patch_23">
    <path d="M 7.2 416.34 
L 537.2 416.34 
" style="fill: none; stroke: #000000; stroke-width: 0.8; stroke-linejoin: miter; stroke-linecap: square"/>
   </g>
  </g>
  <g id="axes_2">
   <g id="matplotlib.axis_3">
    <g id="xtick_7">
     <g id="line2d_25">
      <g>
       <use xlink:href="#m21c147c7df" x="413.522145" y="416.34" style="stroke: #000000; stroke-width: 0.8"/>
      </g>
     </g>
    </g>
    <g id="xtick_8">
     <g id="line2d_26">
      <g>
       <use xlink:href="#m21c147c7df" x="413.522145" y="416.34" style="stroke: #000000; stroke-width: 0.8"/>
      </g>
     </g>
    </g>
   </g>
   <g id="patch_24">
    <path d="M 7.2 416.34 
L 537.2 416.34 
" style="fill: none; stroke: #000000; stroke-width: 0.8; stroke-linejoin: miter; stroke-linecap: square"/>
   </g>
  </g>
  <g id="axes_3">
   <g id="matplotlib.axis_4">
    <g id="xtick_9">
     <g id="line2d_27">
      <defs>
       <path id="m129bb360f4" d="M 0 0 
L 0 -3.5 
" style="stroke: #000000; stroke-width: 0.8"/>
      </defs>
      <g>
       <use xlink:href="#m129bb360f4" x="35.592857" y="7.2" style="stroke: #000000; stroke-width: 0.8"/>
      </g>
     </g>
    </g>
    <g id="xtick_10">
     <g id="line2d_28">
      <g>
       <use xlink:href="#m129bb360f4" x="35.592857" y="7.2" style="stroke: #000000; stroke-width: 0.8"/>
      </g>
     </g>
    </g>
   </g>
   <g id="patch_25">
    <path d="M 7.2 416.34 
L 537.2 416.34 
" style="fill: none; stroke: #000000; stroke-width: 0.8; stroke-linejoin: miter; stroke-linecap: square"/>
   </g>
  </g>
 </g>
 <defs>
  <clipPath id="pf9c2ead473">
   <rect x="7.2" y="7.2" width="530" height="409.14"/>
  </clipPath>
 </defs>
</svg>
