<?xml version="1.0" encoding="utf-8" standalone="no"?>
<!DOCTYPE svg PUBLIC "-//W3C//DTD SVG 1.1//EN"
  "http://www.w3.org/Graphics/SVG/1.1/DTD/svg11.dtd">
<svg xmlns:xlink="http://www.w3.org/1999/xlink" width="544.4pt" height="427.04pt" viewBox="0 0 544.4 427.04" xmlns="http://www.w3.org/2000/svg" version="1.1">
 <metadata>
  <rdf:RDF xmlns:dc="http://purl.org/dc/elements/1.1/" xmlns:cc="http://creativecommons.org/ns#" xmlns:rdf="http://www.w3.org/1999/02/22-rdf-syntax-ns#">
   <cc:Work>
    <dc:type rdf:resource="http://purl.org/dc/dcmitype/StillImage"/>
    <dc:date>2026-06-21T11:40:59.676671</dc:date>
    <dc:format>image/svg+xml</dc:format>
    <dc:creator>
     <cc:Agent>
      <dc:title>Matplotlib v3.9.4, https://matplotlib.org/</dc:title>
     </cc:Agent>
    </dc:creator>
   </cc:Work>
  </rdf:RDF>
 </metadata>
 <defs>
  <style type="text/css">*{stroke-linejoin: round; stroke-linecap: butt}</style>
 </defs>
 <g id="figure_1">
  <g id="patch_1">
   <path d="M 0 427.04 
L 544.4 427.04 
L 544.4 0 
L 0 0 
z
" style="fill: #ffffff"/>
  </g>
  <g id="axes_1">
   <g id="patch_2">
    <path d="M 7.2 416.34 
L 537.2 416.34 
L 537.2 7.2 
L 7.2 7.2 
z
" style="fill: #ffffff"/>
   </g>
   <g id="line2d_1">
    <path d="M 317.515129 94.113785 
L 317.515129 25.797273 
" clip-path="url(#pfca7cfd239)" style="fill: none; stroke-dasharray: 1.85,0.8; stroke-dashoffset: 0; stroke: #bbbbbb; stroke-width: 0.5"/>
   </g>
   <g id="line2d_2">
    <path d="M 224.616045 132.067403 
L 224.616045 63.750891 
" clip-path="url(#pfca7cfd239)" style="fill: none; stroke-dasharray: 1.85,0.8; stroke-dashoffset: 0; stroke: #bbbbbb; stroke-width: 0.5"/>
   </g>
   <g id="line2d_3">
    <path d="M 173.425286 170.02102 
L 173.425286 101.704508 
" clip-path="url(#pfca7cfd239)" style="fill: none; stroke-dasharray: 1.85,0.8; stroke-dashoffset: 0; stroke: #bbbbbb; stroke-width: 0.5"/>
   </g>
   <g id="line2d_4">
    <path d="M 127.428731 207.974638 
L 127.428731 139.658126 
" clip-path="url(#pfca7cfd239)" style="fill: none; stroke-dasharray: 1.85,0.8; stroke-dashoffset: 0; stroke: #bbbbbb; stroke-width: 0.5"/>
   </g>
   <g id="line2d_5">
    <path d="M 99.863664 245.928256 
L 99.863664 177.611744 
" clip-path="url(#pfca7cfd239)" style="fill: none; stroke-dasharray: 1.85,0.8; stroke-dashoffset: 0; stroke: #bbbbbb; stroke-width: 0.5"/>
   </g>
   <g id="line2d_6">
    <path d="M 74.733532 283.881874 
L 74.733532 215.565362 
" clip-path="url(#pfca7cfd239)" style="fill: none; stroke-dasharray: 1.85,0.8; stroke-dashoffset: 0; stroke: #bbbbbb; stroke-width: 0.5"/>
   </g>
   <g id="line2d_7">
    <path d="M 7.2 382.56128 
L 537.2 382.56128 
" clip-path="url(#pfca7cfd239)" style="fill: none; stroke-dasharray: 0.5,2.5; stroke-dashoffset: 0; stroke: #cccccc; stroke-width: 0.5"/>
   </g>
   <g id="line2d_8">
    <path d="M 7.2 344.607662 
L 537.2 344.607662 
" clip-path="url(#pfca7cfd239)" style="fill: none; stroke-dasharray: 0.5,2.5; stroke-dashoffset: 0; stroke: #cccccc; stroke-width: 0.5"/>
   </g>
   <g id="line2d_9">
    <path d="M 7.2 306.654045 
L 537.2 306.654045 
" clip-path="url(#pfca7cfd239)" style="fill: none; stroke-dasharray: 0.5,2.5; stroke-dashoffset: 0; stroke: #cccccc; stroke-width: 0.5"/>
   </g>
   <g id="line2d_10">
    <path d="M 7.2 268.700427 
L 537.2 268.700427 
" clip-path="url(#pfca7cfd239)" style="fill: none; stroke-dasharray: 0.5,2.5; stroke-dashoffset: 0; stroke: #cccccc; stroke-width: 0.5"/>
   </g>
   <g id="line2d_11">
    <path d="M 7.2 230.746809 
L 537.2 230.746809 
" clip-path="url(#pfca7cfd239)" style="fill: none; stroke-dasharray: 0.5,2.5; stroke-dashoffset: 0; stroke: #cccccc; stroke-width: 0.5"/>
   </g>
   <g id="line2d_12">
    <path d="M 7.2 192.793191 
L 537.2 192.793191 
" clip-path="url(#pfca7cfd239)" style="fill: none; stroke-dasharray: 0.5,2.5; stroke-dashoffset: 0; stroke: #cccccc; stroke-width: 0.5"/>
   </g>
   <g id="line2d_13">
    <path d="M 7.2 154.839573 
L 537.2 154.839573 
" clip-path="url(#pfca7cfd239)" style="fill: none; stroke-dasharray: 0.5,2.5; stroke-dashoffset: 0; stroke: #cccccc; stroke-width: 0.5"/>
   </g>
   <g id="line2d_14">
    <path d="M 7.2 116.885955 
L 537.2 116.885955 
" clip-path="url(#pfca7cfd239)" style="fill: none; stroke-dasharray: 0.5,2.5; stroke-dashoffset: 0; stroke: #cccccc; stroke-width: 0.5"/>
   </g>
   <g id="line2d_15">
    <path d="M 7.2 78.932338 
L 537.2 78.932338 
" clip-path="url(#pfca7cfd239)" style="fill: none; stroke-dasharray: 0.5,2.5; stroke-dashoffset: 0; stroke: #cccccc; stroke-width: 0.5"/>
   </g>
   <g id="line2d_16">
    <path d="M 7.2 40.97872 
L 537.2 40.97872 
" clip-path="url(#pfca7cfd239)" style="fill: none; stroke-dasharray: 0.5,2.5; stroke-dashoffset: 0; stroke: #cccccc; stroke-width: 0.5"/>
   </g>
   <g id="line2d_17">
    <path d="M 127.82938 416.34 
L 127.82938 375.426 
" clip-path="url(#pfca7cfd239)" style="fill: none; stroke-dasharray: 1.85,0.8; stroke-dashoffset: 0; stroke: #bbbbbb; stroke-width: 0.5"/>
   </g>
   <g id="line2d_18">
    <path d="M 469.666468 416.34 
L 469.666468 7.2 
" clip-path="url(#pfca7cfd239)" style="fill: none; stroke-dasharray: 1.85,0.8; stroke-dashoffset: 0; stroke: #bbbbbb; stroke-width: 0.5"/>
   </g>
   <g id="patch_3">
    <path d="M 313.5658 56.160167 
L 513.109091 56.160167 
L 513.109091 25.797273 
L 313.5658 25.797273 
L 313.5658 56.160167 
z
" clip-path="url(#pfca7cfd239)" style="fill: none; opacity: 0"/>
   </g>
   <g id="patch_4">
    <path d="M 220.666715 94.113785 
L 360.957752 94.113785 
L 360.957752 63.750891 
L 220.666715 63.750891 
L 220.666715 94.113785 
z
" clip-path="url(#pfca7cfd239)" style="fill: none; opacity: 0"/>
   </g>
   <g id="patch_5">
    <path d="M 169.475956 132.067403 
L 268.058668 132.067403 
L 268.058668 101.704508 
L 169.475956 101.704508 
L 169.475956 132.067403 
z
" clip-path="url(#pfca7cfd239)" style="fill: none; opacity: 0"/>
   </g>
   <g id="patch_6">
    <path d="M 123.479402 170.02102 
L 216.867908 170.02102 
L 216.867908 139.658126 
L 123.479402 139.658126 
L 123.479402 170.02102 
z
" clip-path="url(#pfca7cfd239)" style="fill: none; opacity: 0"/>
   </g>
   <g id="patch_7">
    <path d="M 95.914335 207.974638 
L 170.871354 207.974638 
L 170.871354 177.611744 
L 95.914335 177.611744 
L 95.914335 207.974638 
z
" clip-path="url(#pfca7cfd239)" style="fill: none; opacity: 0"/>
   </g>
   <g id="patch_8">
    <path d="M 70.784203 245.928256 
L 143.306287 245.928256 
L 143.306287 215.565362 
L 70.784203 215.565362 
L 70.784203 245.928256 
z
" clip-path="url(#pfca7cfd239)" style="fill: none; opacity: 0"/>
   </g>
   <g id="patch_9">
    <path d="M 123.88005 397.742727 
L 190.578286 397.742727 
L 190.578286 367.379833 
L 123.88005 367.379833 
L 123.88005 397.742727 
z
" clip-path="url(#pfca7cfd239)" style="fill: none; opacity: 0"/>
   </g>
   <g id="patch_10">
    <path d="M 103.533545 283.881874 
L 31.290909 283.881874 
L 31.290909 253.51898 
L 103.533545 253.51898 
L 103.533545 283.881874 
z
" clip-path="url(#pfca7cfd239)" style="fill: none; opacity: 0"/>
   </g>
   <g id="patch_11">
    <path d="M 127.525693 321.835492 
L 56.141593 321.835492 
L 56.141593 291.472597 
L 127.525693 291.472597 
L 127.525693 321.835492 
z
" clip-path="url(#pfca7cfd239)" style="fill: none; opacity: 0"/>
   </g>
   <g id="patch_12">
    <path d="M 151.084992 359.789109 
L 80.133741 359.789109 
L 80.133741 329.426215 
L 151.084992 329.426215 
L 151.084992 359.789109 
z
" clip-path="url(#pfca7cfd239)" style="fill: none; opacity: 0"/>
   </g>
   <g id="patch_13">
    <path d="M 469.666468 40.97872 
L 462.827758 56.160167 
L 462.827758 56.160167 
L 317.515129 56.160167 
L 317.515129 25.797273 
L 462.827758 25.797273 
L 462.827758 25.797273 
z
" clip-path="url(#pfca7cfd239)" style="fill: #ff0051; stroke: #ff0051; stroke-linejoin: miter"/>
   </g>
   <g id="patch_14">
    <path d="M 317.515129 78.932338 
L 310.676419 94.113785 
L 310.676419 94.113785 
L 224.616045 94.113785 
L 224.616045 63.750891 
L 310.676419 63.750891 
L 310.676419 63.750891 
z
" clip-path="url(#pfca7cfd239)" style="fill: #ff0051; stroke: #ff0051; stroke-linejoin: miter"/>
   </g>
   <g id="patch_15">
    <path d="M 224.616045 116.885955 
L 217.777335 132.067403 
L 217.777335 132.067403 
L 173.425286 132.067403 
L 173.425286 101.704508 
L 217.777335 101.704508 
L 217.777335 101.704508 
z
" clip-path="url(#pfca7cfd239)" style="fill: #ff0051; stroke: #ff0051; stroke-linejoin: miter"/>
   </g>
   <g id="patch_16">
    <path d="M 173.425286 154.839573 
L 166.586576 170.02102 
L 166.586576 170.02102 
L 127.428731 170.02102 
L 127.428731 139.658126 
L 166.586576 139.658126 
L 166.586576 139.658126 
z
" clip-path="url(#pfca7cfd239)" style="fill: #ff0051; stroke: #ff0051; stroke-linejoin: miter"/>
   </g>
   <g id="patch_17">
    <path d="M 127.428731 192.793191 
L 120.590022 207.974638 
L 120.590022 207.974638 
L 99.863664 207.974638 
L 99.863664 177.611744 
L 120.590022 177.611744 
L 120.590022 177.611744 
z
" clip-path="url(#pfca7cfd239)" style="fill: #ff0051; stroke: #ff0051; stroke-linejoin: miter"/>
   </g>
   <g id="patch_18">
    <path d="M 99.863664 230.746809 
L 93.024954 245.928256 
L 93.024954 245.928256 
L 74.733532 245.928256 
L 74.733532 215.565362 
L 93.024954 215.565362 
L 93.024954 215.565362 
z
" clip-path="url(#pfca7cfd239)" style="fill: #ff0051; stroke: #ff0051; stroke-linejoin: miter"/>
   </g>
   <g id="patch_19">
    <path d="M 147.135663 382.56128 
L 140.296953 397.742727 
L 140.296953 397.742727 
L 127.82938 397.742727 
L 127.82938 367.379833 
L 140.296953 367.379833 
L 140.296953 367.379833 
z
" clip-path="url(#pfca7cfd239)" style="fill: #ff0051; stroke: #ff0051; stroke-linejoin: miter"/>
   </g>
   <g id="patch_20">
    <path d="M 74.733532 268.700427 
L 81.572242 253.51898 
L 81.572242 253.51898 
L 99.584216 253.51898 
L 99.584216 283.881874 
L 81.572242 283.881874 
L 81.572242 283.881874 
z
" clip-path="url(#pfca7cfd239)" style="fill: #008bfb; stroke: #008bfb; stroke-linejoin: miter"/>
   </g>
   <g id="patch_21">
    <path d="M 99.584216 306.654045 
L 106.422925 291.472597 
L 106.422925 291.472597 
L 123.576364 291.472597 
L 123.576364 321.835492 
L 106.422925 321.835492 
L 106.422925 321.835492 
z
" clip-path="url(#pfca7cfd239)" style="fill: #008bfb; stroke: #008bfb; stroke-linejoin: miter"/>
   </g>
   <g id="patch_22">
    <path d="M 123.576364 344.607662 
L 130.415074 329.426215 
L 130.415074 329.426215 
L 147.135663 329.426215 
L 147.135663 359.789109 
L 130.415074 359.789109 
L 130.415074 359.789109 
z
" clip-path="url(#pfca7cfd239)" style="fill: #008bfb; stroke: #008bfb; stroke-linejoin: miter"/>
   </g>
   <g id="matplotlib.axis_1">
    <g id="xtick_1">
     <g id="line2d_19">
      <defs>
       <path id="mee6b2051de" d="M 0 0 
L 0 3.5 
" style="stroke: #000000; stroke-width: 0.8"/>
      </defs>
      <g>
       <use xlink:href="#mee6b2051de" x="12.685273" y="416.34" style="stroke: #000000; stroke-width: 0.8"/>
      </g>
     </g>
    </g>
    <g id="xtick_2">
     <g id="line2d_20">
      <g>
       <use xlink:href="#mee6b2051de" x="73.76528" y="416.34" style="stroke: #000000; stroke-width: 0.8"/>
      </g>
     </g>
    </g>
    <g id="xtick_3">
     <g id="line2d_21">
      <g>
       <use xlink:href="#mee6b2051de" x="134.845288" y="416.34" style="stroke: #000000; stroke-width: 0.8"/>
      </g>
     </g>
    </g>
    <g id="xtick_4">
     <g id="line2d_22">
      <g>
       <use xlink:href="#mee6b2051de" x="195.925295" y="416.34" style="stroke: #000000; stroke-width: 0.8"/>
      </g>
     </g>
    </g>
    <g id="xtick_5">
     <g id="line2d_23">
      <g>
       <use xlink:href="#mee6b2051de" x="257.005302" y="416.34" style="stroke: #000000; stroke-width: 0.8"/>
      </g>
     </g>
    </g>
    <g id="xtick_6">
     <g id="line2d_24">
      <g>
       <use xlink:href="#mee6b2051de" x="318.085309" y="416.34" style="stroke: #000000; stroke-width: 0.8"/>
      </g>
     </g>
    </g>
    <g id="xtick_7">
     <g id="line2d_25">
      <g>
       <use xlink:href="#mee6b2051de" x="379.165316" y="416.34" style="stroke: #000000; stroke-width: 0.8"/>
      </g>
     </g>
    </g>
    <g id="xtick_8">
     <g id="line2d_26">
      <g>
       <use xlink:href="#mee6b2051de" x="440.245323" y="416.34" style="stroke: #000000; stroke-width: 0.8"/>
      </g>
     </g>
    </g>
    <g id="xtick_9">
     <g id="line2d_27">
      <g>
       <use xlink:href="#mee6b2051de" x="501.32533" y="416.34" style="stroke: #000000; stroke-width: 0.8"/>
      </g>
     </g>
    </g>
   </g>
   <g id="matplotlib.axis_2">
    <g id="ytick_1"/>
    <g id="ytick_2"/>
    <g id="ytick_3"/>
    <g id="ytick_4"/>
    <g id="ytick_5"/>
    <g id="ytick_6"/>
    <g id="ytick_7"/>
    <g id="ytick_8"/>
    <g id="ytick_9"/>
    <g id="ytick_10"/>
    <g id="ytick_11"/>
    <g id="ytick_12"/>
    <g id="ytick_13"/>
    <g id="ytick_14"/>
    <g id="ytick_15"/>
    <g id="ytick_16"/>
    <g id="ytick_17"/>
    <g id="ytick_18"/>
    <g id="ytick_19"/>
    <g id="ytick_20"/>
   </g>
   <g id="patch_23">
    <path d="M 7.2 416.34 
L 537.2 416.34 
" style="fill: none; stroke: #000000; stroke-width: 0.8; stroke-linejoin: miter; stroke-linecap: square"/>
   </g>
  </g>
  <g id="axes_2">
   <g id="matplotlib.axis_3">
    <g id="xtick_10">
     <g id="line2d_28">
      <g>
       <use xlink:href="#mee6b2051de" x="127.82938" y="416.34" style="stroke: #000000; stroke-width: 0.8"/>
      </g>
     </g>
    </g>
    <g id="xtick_11">
     <g id="line2d_29">
      <g>
       <use xlink:href="#mee6b2051de" x="127.82938" y="416.34" style="stroke: #000000; stroke-width: 0.8"/>
      </g>
     </g>
    </g>
   </g>
   <g id="patch_24">
    <path d="M 7.2 416.34 
L 537.2 416.34 
" style="fill: none; stroke: #000000; stroke-width: 0.8; stroke-linejoin: miter; stroke-linecap: square"/>
   </g>
  </g>
  <g id="axes_3">
   <g id="matplotlib.axis_4">
    <g id="xtick_12">
     <g id="line2d_30">
      <defs>
       <path id="mde8afc896e" d="M 0 0 
L 0 -3.5 
" style="stroke: #000000; stroke-width: 0.8"/>
      </defs>
      <g>
       <use xlink:href="#mde8afc896e" x="469.666468" y="7.2" style="stroke: #000000; stroke-width: 0.8"/>
      </g>
     </g>
    </g>
    <g id="xtick_13">
     <g id="line2d_31">
      <g>
       <use xlink:href="#mde8afc896e" x="469.666468" y="7.2" style="stroke: #000000; stroke-width: 0.8"/>
      </g>
     </g>
    </g>
   </g>
   <g id="patch_25">
    <path d="M 7.2 416.34 
L 537.2 416.34 
" style="fill: none; stroke: #000000; stroke-width: 0.8; stroke-linejoin: miter; stroke-linecap: square"/>
   </g>
  </g>
 </g>
 <defs>
  <clipPath id="pfca7cfd239">
   <rect x="7.2" y="7.2" width="530" height="409.14"/>
  </clipPath>
 </defs>
</svg>
