<?xml version="1.0" encoding="utf-8" standalone="no"?>
<!DOCTYPE svg PUBLIC "-//W3C//DTD SVG 1.1//EN"
  "http://www.w3.org/Graphics/SVG/1.1/DTD/svg11.dtd">
<svg xmlns:xlink="http://www.w3.org/1999/xlink" width="544.4pt" height="427.04pt" viewBox="0 0 544.4 427.04" xmlns="http://www.w3.org/2000/svg" version="1.1">
 <metadata>
  <rdf:RDF xmlns:dc="http://purl.org/dc/elements/1.1/" xmlns:cc="http://creativecommons.org/ns#" xmlns:rdf="http://www.w3.org/1999/02/22-rdf-syntax-ns#">
   <cc:Work>
    <dc:type rdf:resource="http://purl.org/dc/dcmitype/StillImage"/>
    <dc:date>2026-06-21T11:43:00.277122</dc:date>
    <dc:format>image/svg+xml</dc:format>
    <dc:creator>
     <cc:Agent>
      <dc:title>Matplotlib v3.9.4, https://matplotlib.org/</dc:title>
     </cc:Agent>
    </dc:creator>
   </cc:Work>
  </rdf:RDF>
 </metadata>
 <defs>
  <style type="text/css">*{stroke-linejoin: round; stroke-linecap: butt}</style>
 </defs>
 <g id="figure_1">
  <g id="patch_1">
   <path d="M 0 427.04 
L 544.4 427.04 
L 544.4 0 
L 0 0 
z
" style="fill: #ffffff"/>
  </g>
  <g id="axes_1">
   <g id="patch_2">
    <path d="M 7.2 416.34 
L 537.2 416.34 
L 537.2 7.2 
L 7.2 7.2 
z
" style="fill: #ffffff"/>
   </g>
   <g id="line2d_1">
    <path d="M 190.221029 94.113785 
L 190.221029 25.797273 
" clip-path="url(#p2a742ff618)" style="fill: none; stroke-dasharray: 1.85,0.8; stroke-dashoffset: 0; stroke: #bbbbbb; stroke-width: 0.5"/>
   </g>
   <g id="line2d_2">
    <path d="M 74.733532 132.067403 
L 74.733532 63.750891 
" clip-path="url(#p2a742ff618)" style="fill: none; stroke-dasharray: 1.85,0.8; stroke-dashoffset: 0; stroke: #bbbbbb; stroke-width: 0.5"/>
   </g>
   <g id="line2d_3">
    <path d="M 166.87235 170.02102 
L 166.87235 101.704508 
" clip-path="url(#p2a742ff618)" style="fill: none; stroke-dasharray: 1.85,0.8; stroke-dashoffset: 0; stroke: #bbbbbb; stroke-width: 0.5"/>
   </g>
   <g id="line2d_4">
    <path d="M 248.874646 207.974638 
L 248.874646 139.658126 
" clip-path="url(#p2a742ff618)" style="fill: none; stroke-dasharray: 1.85,0.8; stroke-dashoffset: 0; stroke: #bbbbbb; stroke-width: 0.5"/>
   </g>
   <g id="line2d_5">
    <path d="M 319.541407 245.928256 
L 319.541407 177.611744 
" clip-path="url(#p2a742ff618)" style="fill: none; stroke-dasharray: 1.85,0.8; stroke-dashoffset: 0; stroke: #bbbbbb; stroke-width: 0.5"/>
   </g>
   <g id="line2d_6">
    <path d="M 380.320682 283.881874 
L 380.320682 215.565362 
" clip-path="url(#p2a742ff618)" style="fill: none; stroke-dasharray: 1.85,0.8; stroke-dashoffset: 0; stroke: #bbbbbb; stroke-width: 0.5"/>
   </g>
   <g id="line2d_7">
    <path d="M 7.2 382.56128 
L 537.2 382.56128 
" clip-path="url(#p2a742ff618)" style="fill: none; stroke-dasharray: 0.5,2.5; stroke-dashoffset: 0; stroke: #cccccc; stroke-width: 0.5"/>
   </g>
   <g id="line2d_8">
    <path d="M 7.2 344.607662 
L 537.2 344.607662 
" clip-path="url(#p2a742ff618)" style="fill: none; stroke-dasharray: 0.5,2.5; stroke-dashoffset: 0; stroke: #cccccc; stroke-width: 0.5"/>
   </g>
   <g id="line2d_9">
    <path d="M 7.2 306.654045 
L 537.2 306.654045 
" clip-path="url(#p2a742ff618)" style="fill: none; stroke-dasharray: 0.5,2.5; stroke-dashoffset: 0; stroke: #cccccc; stroke-width: 0.5"/>
   </g>
   <g id="line2d_10">
    <path d="M 7.2 268.700427 
L 537.2 268.700427 
" clip-path="url(#p2a742ff618)" style="fill: none; stroke-dasharray: 0.5,2.5; stroke-dashoffset: 0; stroke: #cccccc; stroke-width: 0.5"/>
   </g>
   <g id="line2d_11">
    <path d="M 7.2 230.746809 
L 537.2 230.746809 
" clip-path="url(#p2a742ff618)" style="fill: none; stroke-dasharray: 0.5,2.5; stroke-dashoffset: 0; stroke: #cccccc; stroke-width: 0.5"/>
   </g>
   <g id="line2d_12">
    <path d="M 7.2 192.793191 
L 537.2 192.793191 
" clip-path="url(#p2a742ff618)" style="fill: none; stroke-dasharray: 0.5,2.5; stroke-dashoffset: 0; stroke: #cccccc; stroke-width: 0.5"/>
   </g>
   <g id="line2d_13">
    <path d="M 7.2 154.839573 
L 537.2 154.839573 
" clip-path="url(#p2a742ff618)" style="fill: none; stroke-dasharray: 0.5,2.5; stroke-dashoffset: 0; stroke: #cccccc; stroke-width: 0.5"/>
   </g>
   <g id="line2d_14">
    <path d="M 7.2 116.885955 
L 537.2 116.885955 
" clip-path="url(#p2a742ff618)" style="fill: none; stroke-dasharray: 0.5,2.5; stroke-dashoffset: 0; stroke: #cccccc; stroke-width: 0.5"/>
   </g>
   <g id="line2d_15">
    <path d="M 7.2 78.932338 
L 537.2 78.932338 
" clip-path="url(#p2a742ff618)" style="fill: none; stroke-dasharray: 0.5,2.5; stroke-dashoffset: 0; stroke: #cccccc; stroke-width: 0.5"/>
   </g>
   <g id="line2d_16">
    <path d="M 7.2 40.97872 
L 537.2 40.97872 
" clip-path="url(#p2a742ff618)" style="fill: none; stroke-dasharray: 0.5,2.5; stroke-dashoffset: 0; stroke: #cccccc; stroke-width: 0.5"/>
   </g>
   <g id="line2d_17">
    <path d="M 392.503857 416.34 
L 392.503857 375.426 
" clip-path="url(#p2a742ff618)" style="fill: none; stroke-dasharray: 1.85,0.8; stroke-dashoffset: 0; stroke: #bbbbbb; stroke-width: 0.5"/>
   </g>
   <g id="line2d_18">
    <path d="M 436.685502 416.34 
L 436.685502 7.2 
" clip-path="url(#p2a742ff618)" style="fill: none; stroke-dasharray: 1.85,0.8; stroke-dashoffset: 0; stroke: #bbbbbb; stroke-width: 0.5"/>
   </g>
   <g id="patch_3">
    <path d="M 186.2717 56.160167 
L 480.128125 56.160167 
L 480.128125 25.797273 
L 186.2717 25.797273 
L 186.2717 56.160167 
z
" clip-path="url(#p2a742ff618)" style="fill: none; opacity: 0"/>
   </g>
   <g id="patch_4">
    <path d="M 70.784203 94.113785 
L 233.663652 94.113785 
L 233.663652 63.750891 
L 70.784203 63.750891 
L 70.784203 94.113785 
z
" clip-path="url(#p2a742ff618)" style="fill: none; opacity: 0"/>
   </g>
   <g id="patch_5">
    <path d="M 427.089084 359.789109 
L 513.109091 359.789109 
L 513.109091 329.426215 
L 427.089084 329.426215 
L 427.089084 359.789109 
z
" clip-path="url(#p2a742ff618)" style="fill: none; opacity: 0"/>
   </g>
   <g id="patch_6">
    <path d="M 388.554527 397.742727 
L 474.481036 397.742727 
L 474.481036 367.379833 
L 388.554527 367.379833 
L 388.554527 397.742727 
z
" clip-path="url(#p2a742ff618)" style="fill: none; opacity: 0"/>
   </g>
   <g id="patch_7">
    <path d="M 170.82168 132.067403 
L 31.290909 132.067403 
L 31.290909 101.704508 
L 170.82168 101.704508 
L 170.82168 132.067403 
z
" clip-path="url(#p2a742ff618)" style="fill: none; opacity: 0"/>
   </g>
   <g id="patch_8">
    <path d="M 252.823975 170.02102 
L 123.429728 170.02102 
L 123.429728 139.658126 
L 252.823975 139.658126 
L 252.823975 170.02102 
z
" clip-path="url(#p2a742ff618)" style="fill: none; opacity: 0"/>
   </g>
   <g id="patch_9">
    <path d="M 323.490737 207.974638 
L 205.432023 207.974638 
L 205.432023 177.611744 
L 323.490737 177.611744 
L 323.490737 207.974638 
z
" clip-path="url(#p2a742ff618)" style="fill: none; opacity: 0"/>
   </g>
   <g id="patch_10">
    <path d="M 384.270012 245.928256 
L 276.098784 245.928256 
L 276.098784 215.565362 
L 384.270012 215.565362 
L 384.270012 245.928256 
z
" clip-path="url(#p2a742ff618)" style="fill: none; opacity: 0"/>
   </g>
   <g id="patch_11">
    <path d="M 429.269211 283.881874 
L 336.87806 283.881874 
L 336.87806 253.51898 
L 429.269211 253.51898 
L 429.269211 283.881874 
z
" clip-path="url(#p2a742ff618)" style="fill: none; opacity: 0"/>
   </g>
   <g id="patch_12">
    <path d="M 473.615797 321.835492 
L 381.877258 321.835492 
L 381.877258 291.472597 
L 473.615797 291.472597 
L 473.615797 321.835492 
z
" clip-path="url(#p2a742ff618)" style="fill: none; opacity: 0"/>
   </g>
   <g id="patch_13">
    <path d="M 436.685502 40.97872 
L 429.846793 56.160167 
L 429.846793 56.160167 
L 190.221029 56.160167 
L 190.221029 25.797273 
L 429.846793 25.797273 
L 429.846793 25.797273 
z
" clip-path="url(#p2a742ff618)" style="fill: #ff0051; stroke: #ff0051; stroke-linejoin: miter"/>
   </g>
   <g id="patch_14">
    <path d="M 190.221029 78.932338 
L 183.382319 94.113785 
L 183.382319 94.113785 
L 74.733532 94.113785 
L 74.733532 63.750891 
L 183.382319 63.750891 
L 183.382319 63.750891 
z
" clip-path="url(#p2a742ff618)" style="fill: #ff0051; stroke: #ff0051; stroke-linejoin: miter"/>
   </g>
   <g id="patch_15">
    <path d="M 469.666468 344.607662 
L 462.827758 359.789109 
L 462.827758 359.789109 
L 431.038413 359.789109 
L 431.038413 329.426215 
L 462.827758 329.426215 
L 462.827758 329.426215 
z
" clip-path="url(#p2a742ff618)" style="fill: #ff0051; stroke: #ff0051; stroke-linejoin: miter"/>
   </g>
   <g id="patch_16">
    <path d="M 431.038413 382.56128 
L 424.199703 397.742727 
L 424.199703 397.742727 
L 392.503857 397.742727 
L 392.503857 367.379833 
L 424.199703 367.379833 
L 424.199703 367.379833 
z
" clip-path="url(#p2a742ff618)" style="fill: #ff0051; stroke: #ff0051; stroke-linejoin: miter"/>
   </g>
   <g id="patch_17">
    <path d="M 74.733532 116.885955 
L 81.572242 101.704508 
L 81.572242 101.704508 
L 166.87235 101.704508 
L 166.87235 132.067403 
L 81.572242 132.067403 
L 81.572242 132.067403 
z
" clip-path="url(#p2a742ff618)" style="fill: #008bfb; stroke: #008bfb; stroke-linejoin: miter"/>
   </g>
   <g id="patch_18">
    <path d="M 166.87235 154.839573 
L 173.71106 139.658126 
L 173.71106 139.658126 
L 248.874646 139.658126 
L 248.874646 170.02102 
L 173.71106 170.02102 
L 173.71106 170.02102 
z
" clip-path="url(#p2a742ff618)" style="fill: #008bfb; stroke: #008bfb; stroke-linejoin: miter"/>
   </g>
   <g id="patch_19">
    <path d="M 248.874646 192.793191 
L 255.713355 177.611744 
L 255.713355 177.611744 
L 319.541407 177.611744 
L 319.541407 207.974638 
L 255.713355 207.974638 
L 255.713355 207.974638 
z
" clip-path="url(#p2a742ff618)" style="fill: #008bfb; stroke: #008bfb; stroke-linejoin: miter"/>
   </g>
   <g id="patch_20">
    <path d="M 319.541407 230.746809 
L 326.380117 215.565362 
L 326.380117 215.565362 
L 380.320682 215.565362 
L 380.320682 245.928256 
L 326.380117 245.928256 
L 326.380117 245.928256 
z
" clip-path="url(#p2a742ff618)" style="fill: #008bfb; stroke: #008bfb; stroke-linejoin: miter"/>
   </g>
   <g id="patch_21">
    <path d="M 380.320682 268.700427 
L 387.159392 253.51898 
L 387.159392 253.51898 
L 425.319881 253.51898 
L 425.319881 283.881874 
L 387.159392 283.881874 
L 387.159392 283.881874 
z
" clip-path="url(#p2a742ff618)" style="fill: #008bfb; stroke: #008bfb; stroke-linejoin: miter"/>
   </g>
   <g id="patch_22">
    <path d="M 425.319881 306.654045 
L 432.158591 291.472597 
L 432.158591 291.472597 
L 469.666468 291.472597 
L 469.666468 321.835492 
L 432.158591 321.835492 
L 432.158591 321.835492 
z
" clip-path="url(#p2a742ff618)" style="fill: #008bfb; stroke: #008bfb; stroke-linejoin: miter"/>
   </g>
   <g id="matplotlib.axis_1">
    <g id="xtick_1">
     <g id="line2d_19">
      <defs>
       <path id="mda2f756155" d="M 0 0 
L 0 3.5 
" style="stroke: #000000; stroke-width: 0.8"/>
      </defs>
      <g>
       <use xlink:href="#mda2f756155" x="49.866568" y="416.34" style="stroke: #000000; stroke-width: 0.8"/>
      </g>
     </g>
    </g>
    <g id="xtick_2">
     <g id="line2d_20">
      <g>
       <use xlink:href="#mda2f756155" x="119.993847" y="416.34" style="stroke: #000000; stroke-width: 0.8"/>
      </g>
     </g>
    </g>
    <g id="xtick_3">
     <g id="line2d_21">
      <g>
       <use xlink:href="#mda2f756155" x="190.121125" y="416.34" style="stroke: #000000; stroke-width: 0.8"/>
      </g>
     </g>
    </g>
    <g id="xtick_4">
     <g id="line2d_22">
      <g>
       <use xlink:href="#mda2f756155" x="260.248404" y="416.34" style="stroke: #000000; stroke-width: 0.8"/>
      </g>
     </g>
    </g>
    <g id="xtick_5">
     <g id="line2d_23">
      <g>
       <use xlink:href="#mda2f756155" x="330.375683" y="416.34" style="stroke: #000000; stroke-width: 0.8"/>
      </g>
     </g>
    </g>
    <g id="xtick_6">
     <g id="line2d_24">
      <g>
       <use xlink:href="#mda2f756155" x="400.502962" y="416.34" style="stroke: #000000; stroke-width: 0.8"/>
      </g>
     </g>
    </g>
    <g id="xtick_7">
     <g id="line2d_25">
      <g>
       <use xlink:href="#mda2f756155" x="470.630241" y="416.34" style="stroke: #000000; stroke-width: 0.8"/>
      </g>
     </g>
    </g>
   </g>
   <g id="matplotlib.axis_2">
    <g id="ytick_1"/>
    <g id="ytick_2"/>
    <g id="ytick_3"/>
    <g id="ytick_4"/>
    <g id="ytick_5"/>
    <g id="ytick_6"/>
    <g id="ytick_7"/>
    <g id="ytick_8"/>
    <g id="ytick_9"/>
    <g id="ytick_10"/>
    <g id="ytick_11"/>
    <g id="ytick_12"/>
    <g id="ytick_13"/>
    <g id="ytick_14"/>
    <g id="ytick_15"/>
    <g id="ytick_16"/>
    <g id="ytick_17"/>
    <g id="ytick_18"/>
    <g id="ytick_19"/>
    <g id="ytick_20"/>
   </g>
   <g id="patch_23">
    <path d="M 7.2 416.34 
L 537.2 416.34 
" style="fill: none; stroke: #000000; stroke-width: 0.8; stroke-linejoin: miter; stroke-linecap: square"/>
   </g>
  </g>
  <g id="axes_2">
   <g id="matplotlib.axis_3">
    <g id="xtick_8">
     <g id="line2d_26">
      <g>
       <use xlink:href="#mda2f756155" x="392.503857" y="416.34" style="stroke: #000000; stroke-width: 0.8"/>
      </g>
     </g>
    </g>
    <g id="xtick_9">
     <g id="line2d_27">
      <g>
       <use xlink:href="#mda2f756155" x="392.503857" y="416.34" style="stroke: #000000; stroke-width: 0.8"/>
      </g>
     </g>
    </g>
   </g>
   <g id="patch_24">
    <path d="M 7.2 416.34 
L 537.2 416.34 
" style="fill: none; stroke: #000000; stroke-width: 0.8; stroke-linejoin: miter; stroke-linecap: square"/>
   </g>
  </g>
  <g id="axes_3">
   <g id="matplotlib.axis_4">
    <g id="xtick_10">
     <g id="line2d_28">
      <defs>
       <path id="m2da2e7bced" d="M 0 0 
L 0 -3.5 
" style="stroke: #000000; stroke-width: 0.8"/>
      </defs>
      <g>
       <use xlink:href="#m2da2e7bced" x="436.685502" y="7.2" style="stroke: #000000; stroke-width: 0.8"/>
      </g>
     </g>
    </g>
    <g id="xtick_11">
     <g id="line2d_29">
      <g>
       <use xlink:href="#m2da2e7bced" x="436.685502" y="7.2" style="stroke: #000000; stroke-width: 0.8"/>
      </g>
     </g>
    </g>
   </g>
   <g id="patch_25">
    <path d="M 7.2 416.34 
L 537.2 416.34 
" style="fill: none; stroke: #000000; stroke-width: 0.8; stroke-linejoin: miter; stroke-linecap: square"/>
   </g>
  </g>
 </g>
 <defs>
  <clipPath id="p2a742ff618">
   <rect x="7.2" y="7.2" width="530" height="409.14"/>
  </clipPath>
 </defs>
</svg>
