<?xml version="1.0" encoding="utf-8" standalone="no"?>
<!DOCTYPE svg PUBLIC "-//W3C//DTD SVG 1.1//EN"
  "http://www.w3.org/Graphics/SVG/1.1/DTD/svg11.dtd">
<svg xmlns:xlink="http://www.w3.org/1999/xlink" width="544.4pt" height="427.04pt" viewBox="0 0 544.4 427.04" xmlns="http://www.w3.org/2000/svg" version="1.1">
 <metadata>
  <rdf:RDF xmlns:dc="http://purl.org/dc/elements/1.1/" xmlns:cc="http://creativecommons.org/ns#" xmlns:rdf="http://www.w3.org/1999/02/22-rdf-syntax-ns#">
   <cc:Work>
    <dc:type rdf:resource="http://purl.org/dc/dcmitype/StillImage"/>
    <dc:date>2026-06-21T11:43:57.253989</dc:date>
    <dc:format>image/svg+xml</dc:format>
    <dc:creator>
     <cc:Agent>
      <dc:title>Matplotlib v3.9.4, https://matplotlib.org/</dc:title>
     </cc:Agent>
    </dc:creator>
   </cc:Work>
  </rdf:RDF>
 </metadata>
 <defs>
  <style type="text/css">*{stroke-linejoin: round; stroke-linecap: butt}</style>
 </defs>
 <g id="figure_1">
  <g id="patch_1">
   <path d="M 0 427.04 
L 544.4 427.04 
L 544.4 0 
L 0 0 
z
" style="fill: #ffffff"/>
  </g>
  <g id="axes_1">
   <g id="patch_2">
    <path d="M 7.2 416.34 
L 537.2 416.34 
L 537.2 7.2 
L 7.2 7.2 
z
" style="fill: #ffffff"/>
   </g>
   <g id="line2d_1">
    <path d="M 196.550249 94.113785 
L 196.550249 25.797273 
" clip-path="url(#p47a980247e)" style="fill: none; stroke-dasharray: 1.85,0.8; stroke-dashoffset: 0; stroke: #bbbbbb; stroke-width: 0.5"/>
   </g>
   <g id="line2d_2">
    <path d="M 135.830734 132.067403 
L 135.830734 63.750891 
" clip-path="url(#p47a980247e)" style="fill: none; stroke-dasharray: 1.85,0.8; stroke-dashoffset: 0; stroke: #bbbbbb; stroke-width: 0.5"/>
   </g>
   <g id="line2d_3">
    <path d="M 189.311573 170.02102 
L 189.311573 101.704508 
" clip-path="url(#p47a980247e)" style="fill: none; stroke-dasharray: 1.85,0.8; stroke-dashoffset: 0; stroke: #bbbbbb; stroke-width: 0.5"/>
   </g>
   <g id="line2d_4">
    <path d="M 147.385776 207.974638 
L 147.385776 139.658126 
" clip-path="url(#p47a980247e)" style="fill: none; stroke-dasharray: 1.85,0.8; stroke-dashoffset: 0; stroke: #bbbbbb; stroke-width: 0.5"/>
   </g>
   <g id="line2d_5">
    <path d="M 109.300024 245.928256 
L 109.300024 177.611744 
" clip-path="url(#p47a980247e)" style="fill: none; stroke-dasharray: 1.85,0.8; stroke-dashoffset: 0; stroke: #bbbbbb; stroke-width: 0.5"/>
   </g>
   <g id="line2d_6">
    <path d="M 74.733532 283.881874 
L 74.733532 215.565362 
" clip-path="url(#p47a980247e)" style="fill: none; stroke-dasharray: 1.85,0.8; stroke-dashoffset: 0; stroke: #bbbbbb; stroke-width: 0.5"/>
   </g>
   <g id="line2d_7">
    <path d="M 7.2 382.56128 
L 537.2 382.56128 
" clip-path="url(#p47a980247e)" style="fill: none; stroke-dasharray: 0.5,2.5; stroke-dashoffset: 0; stroke: #cccccc; stroke-width: 0.5"/>
   </g>
   <g id="line2d_8">
    <path d="M 7.2 344.607662 
L 537.2 344.607662 
" clip-path="url(#p47a980247e)" style="fill: none; stroke-dasharray: 0.5,2.5; stroke-dashoffset: 0; stroke: #cccccc; stroke-width: 0.5"/>
   </g>
   <g id="line2d_9">
    <path d="M 7.2 306.654045 
L 537.2 306.654045 
" clip-path="url(#p47a980247e)" style="fill: none; stroke-dasharray: 0.5,2.5; stroke-dashoffset: 0; stroke: #cccccc; stroke-width: 0.5"/>
   </g>
   <g id="line2d_10">
    <path d="M 7.2 268.700427 
L 537.2 268.700427 
" clip-path="url(#p47a980247e)" style="fill: none; stroke-dasharray: 0.5,2.5; stroke-dashoffset: 0; stroke: #cccccc; stroke-width: 0.5"/>
   </g>
   <g id="line2d_11">
    <path d="M 7.2 230.746809 
L 537.2 230.746809 
" clip-path="url(#p47a980247e)" style="fill: none; stroke-dasharray: 0.5,2.5; stroke-dashoffset: 0; stroke: #cccccc; stroke-width: 0.5"/>
   </g>
   <g id="line2d_12">
    <path d="M 7.2 192.793191 
L 537.2 192.793191 
" clip-path="url(#p47a980247e)" style="fill: none; stroke-dasharray: 0.5,2.5; stroke-dashoffset: 0; stroke: #cccccc; stroke-width: 0.5"/>
   </g>
   <g id="line2d_13">
    <path d="M 7.2 154.839573 
L 537.2 154.839573 
" clip-path="url(#p47a980247e)" style="fill: none; stroke-dasharray: 0.5,2.5; stroke-dashoffset: 0; stroke: #cccccc; stroke-width: 0.5"/>
   </g>
   <g id="line2d_14">
    <path d="M 7.2 116.885955 
L 537.2 116.885955 
" clip-path="url(#p47a980247e)" style="fill: none; stroke-dasharray: 0.5,2.5; stroke-dashoffset: 0; stroke: #cccccc; stroke-width: 0.5"/>
   </g>
   <g id="line2d_15">
    <path d="M 7.2 78.932338 
L 537.2 78.932338 
" clip-path="url(#p47a980247e)" style="fill: none; stroke-dasharray: 0.5,2.5; stroke-dashoffset: 0; stroke: #cccccc; stroke-width: 0.5"/>
   </g>
   <g id="line2d_16">
    <path d="M 7.2 40.97872 
L 537.2 40.97872 
" clip-path="url(#p47a980247e)" style="fill: none; stroke-dasharray: 0.5,2.5; stroke-dashoffset: 0; stroke: #cccccc; stroke-width: 0.5"/>
   </g>
   <g id="line2d_17">
    <path d="M 130.826773 416.34 
L 130.826773 375.426 
" clip-path="url(#p47a980247e)" style="fill: none; stroke-dasharray: 1.85,0.8; stroke-dashoffset: 0; stroke: #bbbbbb; stroke-width: 0.5"/>
   </g>
   <g id="line2d_18">
    <path d="M 469.666468 416.34 
L 469.666468 7.2 
" clip-path="url(#p47a980247e)" style="fill: none; stroke-dasharray: 1.85,0.8; stroke-dashoffset: 0; stroke: #bbbbbb; stroke-width: 0.5"/>
   </g>
   <g id="patch_3">
    <path d="M 192.60092 56.160167 
L 513.109091 56.160167 
L 513.109091 25.797273 
L 192.60092 25.797273 
L 192.60092 56.160167 
z
" clip-path="url(#p47a980247e)" style="fill: none; opacity: 0"/>
   </g>
   <g id="patch_4">
    <path d="M 131.881405 94.113785 
L 239.992872 94.113785 
L 239.992872 63.750891 
L 131.881405 63.750891 
L 131.881405 94.113785 
z
" clip-path="url(#p47a980247e)" style="fill: none; opacity: 0"/>
   </g>
   <g id="patch_5">
    <path d="M 143.436446 170.02102 
L 232.754196 170.02102 
L 232.754196 139.658126 
L 143.436446 139.658126 
L 143.436446 170.02102 
z
" clip-path="url(#p47a980247e)" style="fill: none; opacity: 0"/>
   </g>
   <g id="patch_6">
    <path d="M 105.350694 207.974638 
L 190.828399 207.974638 
L 190.828399 177.611744 
L 105.350694 177.611744 
L 105.350694 207.974638 
z
" clip-path="url(#p47a980247e)" style="fill: none; opacity: 0"/>
   </g>
   <g id="patch_7">
    <path d="M 70.784203 245.928256 
L 152.742647 245.928256 
L 152.742647 215.565362 
L 70.784203 215.565362 
L 70.784203 245.928256 
z
" clip-path="url(#p47a980247e)" style="fill: none; opacity: 0"/>
   </g>
   <g id="patch_8">
    <path d="M 107.058088 359.789109 
L 177.082677 359.789109 
L 177.082677 329.426215 
L 107.058088 329.426215 
L 107.058088 359.789109 
z
" clip-path="url(#p47a980247e)" style="fill: none; opacity: 0"/>
   </g>
   <g id="patch_9">
    <path d="M 193.260903 132.067403 
L 92.388111 132.067403 
L 92.388111 101.704508 
L 193.260903 101.704508 
L 193.260903 132.067403 
z
" clip-path="url(#p47a980247e)" style="fill: none; opacity: 0"/>
   </g>
   <g id="patch_10">
    <path d="M 109.611274 283.881874 
L 31.290909 283.881874 
L 31.290909 253.51898 
L 109.611274 253.51898 
L 109.611274 283.881874 
z
" clip-path="url(#p47a980247e)" style="fill: none; opacity: 0"/>
   </g>
   <g id="patch_11">
    <path d="M 137.589384 321.835492 
L 62.219322 321.835492 
L 62.219322 291.472597 
L 137.589384 291.472597 
L 137.589384 321.835492 
z
" clip-path="url(#p47a980247e)" style="fill: none; opacity: 0"/>
   </g>
   <g id="patch_12">
    <path d="M 134.776102 397.742727 
L 67.564794 397.742727 
L 67.564794 367.379833 
L 134.776102 367.379833 
L 134.776102 397.742727 
z
" clip-path="url(#p47a980247e)" style="fill: none; opacity: 0"/>
   </g>
   <g id="patch_13">
    <path d="M 469.666468 40.97872 
L 462.827758 56.160167 
L 462.827758 56.160167 
L 196.550249 56.160167 
L 196.550249 25.797273 
L 462.827758 25.797273 
L 462.827758 25.797273 
z
" clip-path="url(#p47a980247e)" style="fill: #ff0051; stroke: #ff0051; stroke-linejoin: miter"/>
   </g>
   <g id="patch_14">
    <path d="M 196.550249 78.932338 
L 189.711539 94.113785 
L 189.711539 94.113785 
L 135.830734 94.113785 
L 135.830734 63.750891 
L 189.711539 63.750891 
L 189.711539 63.750891 
z
" clip-path="url(#p47a980247e)" style="fill: #ff0051; stroke: #ff0051; stroke-linejoin: miter"/>
   </g>
   <g id="patch_15">
    <path d="M 189.311573 154.839573 
L 182.472864 170.02102 
L 182.472864 170.02102 
L 147.385776 170.02102 
L 147.385776 139.658126 
L 182.472864 139.658126 
L 182.472864 139.658126 
z
" clip-path="url(#p47a980247e)" style="fill: #ff0051; stroke: #ff0051; stroke-linejoin: miter"/>
   </g>
   <g id="patch_16">
    <path d="M 147.385776 192.793191 
L 140.547066 207.974638 
L 140.547066 207.974638 
L 109.300024 207.974638 
L 109.300024 177.611744 
L 140.547066 177.611744 
L 140.547066 177.611744 
z
" clip-path="url(#p47a980247e)" style="fill: #ff0051; stroke: #ff0051; stroke-linejoin: miter"/>
   </g>
   <g id="patch_17">
    <path d="M 109.300024 230.746809 
L 102.461314 245.928256 
L 102.461314 245.928256 
L 74.733532 245.928256 
L 74.733532 215.565362 
L 102.461314 215.565362 
L 102.461314 215.565362 
z
" clip-path="url(#p47a980247e)" style="fill: #ff0051; stroke: #ff0051; stroke-linejoin: miter"/>
   </g>
   <g id="patch_18">
    <path d="M 133.640054 344.607662 
L 126.801345 359.789109 
L 126.801345 359.789109 
L 111.007417 359.789109 
L 111.007417 329.426215 
L 126.801345 329.426215 
L 126.801345 329.426215 
z
" clip-path="url(#p47a980247e)" style="fill: #ff0051; stroke: #ff0051; stroke-linejoin: miter"/>
   </g>
   <g id="patch_19">
    <path d="M 135.830734 116.885955 
L 142.669444 101.704508 
L 142.669444 101.704508 
L 189.311573 101.704508 
L 189.311573 132.067403 
L 142.669444 132.067403 
L 142.669444 132.067403 
z
" clip-path="url(#p47a980247e)" style="fill: #008bfb; stroke: #008bfb; stroke-linejoin: miter"/>
   </g>
   <g id="patch_20">
    <path d="M 74.733532 268.700427 
L 81.572242 253.51898 
L 81.572242 253.51898 
L 105.661945 253.51898 
L 105.661945 283.881874 
L 81.572242 283.881874 
L 81.572242 283.881874 
z
" clip-path="url(#p47a980247e)" style="fill: #008bfb; stroke: #008bfb; stroke-linejoin: miter"/>
   </g>
   <g id="patch_21">
    <path d="M 105.661945 306.654045 
L 112.500654 291.472597 
L 112.500654 291.472597 
L 133.640054 291.472597 
L 133.640054 321.835492 
L 112.500654 321.835492 
L 112.500654 321.835492 
z
" clip-path="url(#p47a980247e)" style="fill: #008bfb; stroke: #008bfb; stroke-linejoin: miter"/>
   </g>
   <g id="patch_22">
    <path d="M 111.007417 382.56128 
L 117.846127 367.379833 
L 117.846127 367.379833 
L 130.826773 367.379833 
L 130.826773 397.742727 
L 117.846127 397.742727 
L 117.846127 397.742727 
z
" clip-path="url(#p47a980247e)" style="fill: #008bfb; stroke: #008bfb; stroke-linejoin: miter"/>
   </g>
   <g id="matplotlib.axis_1">
    <g id="xtick_1">
     <g id="line2d_19">
      <defs>
       <path id="mba7b80bee9" d="M 0 0 
L 0 3.5 
" style="stroke: #000000; stroke-width: 0.8"/>
      </defs>
      <g>
       <use xlink:href="#mba7b80bee9" x="44.749395" y="416.34" style="stroke: #000000; stroke-width: 0.8"/>
      </g>
     </g>
    </g>
    <g id="xtick_2">
     <g id="line2d_20">
      <g>
       <use xlink:href="#mba7b80bee9" x="108.240123" y="416.34" style="stroke: #000000; stroke-width: 0.8"/>
      </g>
     </g>
    </g>
    <g id="xtick_3">
     <g id="line2d_21">
      <g>
       <use xlink:href="#mba7b80bee9" x="171.730851" y="416.34" style="stroke: #000000; stroke-width: 0.8"/>
      </g>
     </g>
    </g>
    <g id="xtick_4">
     <g id="line2d_22">
      <g>
       <use xlink:href="#mba7b80bee9" x="235.221578" y="416.34" style="stroke: #000000; stroke-width: 0.8"/>
      </g>
     </g>
    </g>
    <g id="xtick_5">
     <g id="line2d_23">
      <g>
       <use xlink:href="#mba7b80bee9" x="298.712306" y="416.34" style="stroke: #000000; stroke-width: 0.8"/>
      </g>
     </g>
    </g>
    <g id="xtick_6">
     <g id="line2d_24">
      <g>
       <use xlink:href="#mba7b80bee9" x="362.203034" y="416.34" style="stroke: #000000; stroke-width: 0.8"/>
      </g>
     </g>
    </g>
    <g id="xtick_7">
     <g id="line2d_25">
      <g>
       <use xlink:href="#mba7b80bee9" x="425.693762" y="416.34" style="stroke: #000000; stroke-width: 0.8"/>
      </g>
     </g>
    </g>
    <g id="xtick_8">
     <g id="line2d_26">
      <g>
       <use xlink:href="#mba7b80bee9" x="489.184489" y="416.34" style="stroke: #000000; stroke-width: 0.8"/>
      </g>
     </g>
    </g>
   </g>
   <g id="matplotlib.axis_2">
    <g id="ytick_1"/>
    <g id="ytick_2"/>
    <g id="ytick_3"/>
    <g id="ytick_4"/>
    <g id="ytick_5"/>
    <g id="ytick_6"/>
    <g id="ytick_7"/>
    <g id="ytick_8"/>
    <g id="ytick_9"/>
    <g id="ytick_10"/>
    <g id="ytick_11"/>
    <g id="ytick_12"/>
    <g id="ytick_13"/>
    <g id="ytick_14"/>
    <g id="ytick_15"/>
    <g id="ytick_16"/>
    <g id="ytick_17"/>
    <g id="ytick_18"/>
    <g id="ytick_19"/>
    <g id="ytick_20"/>
   </g>
   <g id="patch_23">
    <path d="M 7.2 416.34 
L 537.2 416.34 
" style="fill: none; stroke: #000000; stroke-width: 0.8; stroke-linejoin: miter; stroke-linecap: square"/>
   </g>
  </g>
  <g id="axes_2">
   <g id="matplotlib.axis_3">
    <g id="xtick_9">
     <g id="line2d_27">
      <g>
       <use xlink:href="#mba7b80bee9" x="130.826773" y="416.34" style="stroke: #000000; stroke-width: 0.8"/>
      </g>
     </g>
    </g>
    <g id="xtick_10">
     <g id="line2d_28">
      <g>
       <use xlink:href="#mba7b80bee9" x="130.826773" y="416.34" style="stroke: #000000; stroke-width: 0.8"/>
      </g>
     </g>
    </g>
   </g>
   <g id="patch_24">
    <path d="M 7.2 416.34 
L 537.2 416.34 
" style="fill: none; stroke: #000000; stroke-width: 0.8; stroke-linejoin: miter; stroke-linecap: square"/>
   </g>
  </g>
  <g id="axes_3">
   <g id="matplotlib.axis_4">
    <g id="xtick_11">
     <g id="line2d_29">
      <defs>
       <path id="m04572228c2" d="M 0 0 
L 0 -3.5 
" style="stroke: #000000; stroke-width: 0.8"/>
      </defs>
      <g>
       <use xlink:href="#m04572228c2" x="469.666468" y="7.2" style="stroke: #000000; stroke-width: 0.8"/>
      </g>
     </g>
    </g>
    <g id="xtick_12">
     <g id="line2d_30">
      <g>
       <use xlink:href="#m04572228c2" x="469.666468" y="7.2" style="stroke: #000000; stroke-width: 0.8"/>
      </g>
     </g>
    </g>
   </g>
   <g id="patch_25">
    <path d="M 7.2 416.34 
L 537.2 416.34 
" style="fill: none; stroke: #000000; stroke-width: 0.8; stroke-linejoin: miter; stroke-linecap: square"/>
   </g>
  </g>
 </g>
 <defs>
  <clipPath id="p47a980247e">
   <rect x="7.2" y="7.2" width="530" height="409.14"/>
  </clipPath>
 </defs>
</svg>
