<?xml version="1.0" encoding="utf-8" standalone="no"?>
<!DOCTYPE svg PUBLIC "-//W3C//DTD SVG 1.1//EN"
  "http://www.w3.org/Graphics/SVG/1.1/DTD/svg11.dtd">
<svg xmlns:xlink="http://www.w3.org/1999/xlink" width="544.4pt" height="427.04pt" viewBox="0 0 544.4 427.04" xmlns="http://www.w3.org/2000/svg" version="1.1">
 <metadata>
  <rdf:RDF xmlns:dc="http://purl.org/dc/elements/1.1/" xmlns:cc="http://creativecommons.org/ns#" xmlns:rdf="http://www.w3.org/1999/02/22-rdf-syntax-ns#">
   <cc:Work>
    <dc:type rdf:resource="http://purl.org/dc/dcmitype/StillImage"/>
    <dc:date>2026-06-21T11:46:11.397835</dc:date>
    <dc:format>image/svg+xml</dc:format>
    <dc:creator>
     <cc:Agent>
      <dc:title>Matplotlib v3.9.4, https://matplotlib.org/</dc:title>
     </cc:Agent>
    </dc:creator>
   </cc:Work>
  </rdf:RDF>
 </metadata>
 <defs>
  <style type="text/css">*{stroke-linejoin: round; stroke-linecap: butt}</style>
 </defs>
 <g id="figure_1">
  <g id="patch_1">
   <path d="M 0 427.04 
L 544.4 427.04 
L 544.4 0 
L 0 0 
z
" style="fill: #ffffff"/>
  </g>
  <g id="axes_1">
   <g id="patch_2">
    <path d="M 7.2 416.34 
L 537.2 416.34 
L 537.2 7.2 
L 7.2 7.2 
z
" style="fill: #ffffff"/>
   </g>
   <g id="line2d_1">
    <path d="M 312.481872 94.113785 
L 312.481872 25.797273 
" clip-path="url(#p0cbb6c0990)" style="fill: none; stroke-dasharray: 1.85,0.8; stroke-dashoffset: 0; stroke: #bbbbbb; stroke-width: 0.5"/>
   </g>
   <g id="line2d_2">
    <path d="M 192.817206 132.067403 
L 192.817206 63.750891 
" clip-path="url(#p0cbb6c0990)" style="fill: none; stroke-dasharray: 1.85,0.8; stroke-dashoffset: 0; stroke: #bbbbbb; stroke-width: 0.5"/>
   </g>
   <g id="line2d_3">
    <path d="M 74.733532 170.02102 
L 74.733532 101.704508 
" clip-path="url(#p0cbb6c0990)" style="fill: none; stroke-dasharray: 1.85,0.8; stroke-dashoffset: 0; stroke: #bbbbbb; stroke-width: 0.5"/>
   </g>
   <g id="line2d_4">
    <path d="M 181.268831 207.974638 
L 181.268831 139.658126 
" clip-path="url(#p0cbb6c0990)" style="fill: none; stroke-dasharray: 1.85,0.8; stroke-dashoffset: 0; stroke: #bbbbbb; stroke-width: 0.5"/>
   </g>
   <g id="line2d_5">
    <path d="M 271.533144 245.928256 
L 271.533144 177.611744 
" clip-path="url(#p0cbb6c0990)" style="fill: none; stroke-dasharray: 1.85,0.8; stroke-dashoffset: 0; stroke: #bbbbbb; stroke-width: 0.5"/>
   </g>
   <g id="line2d_6">
    <path d="M 235.495927 283.881874 
L 235.495927 215.565362 
" clip-path="url(#p0cbb6c0990)" style="fill: none; stroke-dasharray: 1.85,0.8; stroke-dashoffset: 0; stroke: #bbbbbb; stroke-width: 0.5"/>
   </g>
   <g id="line2d_7">
    <path d="M 7.2 382.56128 
L 537.2 382.56128 
" clip-path="url(#p0cbb6c0990)" style="fill: none; stroke-dasharray: 0.5,2.5; stroke-dashoffset: 0; stroke: #cccccc; stroke-width: 0.5"/>
   </g>
   <g id="line2d_8">
    <path d="M 7.2 344.607662 
L 537.2 344.607662 
" clip-path="url(#p0cbb6c0990)" style="fill: none; stroke-dasharray: 0.5,2.5; stroke-dashoffset: 0; stroke: #cccccc; stroke-width: 0.5"/>
   </g>
   <g id="line2d_9">
    <path d="M 7.2 306.654045 
L 537.2 306.654045 
" clip-path="url(#p0cbb6c0990)" style="fill: none; stroke-dasharray: 0.5,2.5; stroke-dashoffset: 0; stroke: #cccccc; stroke-width: 0.5"/>
   </g>
   <g id="line2d_10">
    <path d="M 7.2 268.700427 
L 537.2 268.700427 
" clip-path="url(#p0cbb6c0990)" style="fill: none; stroke-dasharray: 0.5,2.5; stroke-dashoffset: 0; stroke: #cccccc; stroke-width: 0.5"/>
   </g>
   <g id="line2d_11">
    <path d="M 7.2 230.746809 
L 537.2 230.746809 
" clip-path="url(#p0cbb6c0990)" style="fill: none; stroke-dasharray: 0.5,2.5; stroke-dashoffset: 0; stroke: #cccccc; stroke-width: 0.5"/>
   </g>
   <g id="line2d_12">
    <path d="M 7.2 192.793191 
L 537.2 192.793191 
" clip-path="url(#p0cbb6c0990)" style="fill: none; stroke-dasharray: 0.5,2.5; stroke-dashoffset: 0; stroke: #cccccc; stroke-width: 0.5"/>
   </g>
   <g id="line2d_13">
    <path d="M 7.2 154.839573 
L 537.2 154.839573 
" clip-path="url(#p0cbb6c0990)" style="fill: none; stroke-dasharray: 0.5,2.5; stroke-dashoffset: 0; stroke: #cccccc; stroke-width: 0.5"/>
   </g>
   <g id="line2d_14">
    <path d="M 7.2 116.885955 
L 537.2 116.885955 
" clip-path="url(#p0cbb6c0990)" style="fill: none; stroke-dasharray: 0.5,2.5; stroke-dashoffset: 0; stroke: #cccccc; stroke-width: 0.5"/>
   </g>
   <g id="line2d_15">
    <path d="M 7.2 78.932338 
L 537.2 78.932338 
" clip-path="url(#p0cbb6c0990)" style="fill: none; stroke-dasharray: 0.5,2.5; stroke-dashoffset: 0; stroke: #cccccc; stroke-width: 0.5"/>
   </g>
   <g id="line2d_16">
    <path d="M 7.2 40.97872 
L 537.2 40.97872 
" clip-path="url(#p0cbb6c0990)" style="fill: none; stroke-dasharray: 0.5,2.5; stroke-dashoffset: 0; stroke: #cccccc; stroke-width: 0.5"/>
   </g>
   <g id="line2d_17">
    <path d="M 287.977731 416.34 
L 287.977731 375.426 
" clip-path="url(#p0cbb6c0990)" style="fill: none; stroke-dasharray: 1.85,0.8; stroke-dashoffset: 0; stroke: #bbbbbb; stroke-width: 0.5"/>
   </g>
   <g id="line2d_18">
    <path d="M 469.666468 416.34 
L 469.666468 7.2 
" clip-path="url(#p0cbb6c0990)" style="fill: none; stroke-dasharray: 1.85,0.8; stroke-dashoffset: 0; stroke: #bbbbbb; stroke-width: 0.5"/>
   </g>
   <g id="patch_3">
    <path d="M 308.532543 56.160167 
L 513.109091 56.160167 
L 513.109091 25.797273 
L 308.532543 25.797273 
L 308.532543 56.160167 
z
" clip-path="url(#p0cbb6c0990)" style="fill: none; opacity: 0"/>
   </g>
   <g id="patch_4">
    <path d="M 188.867877 94.113785 
L 355.924495 94.113785 
L 355.924495 63.750891 
L 188.867877 63.750891 
L 188.867877 94.113785 
z
" clip-path="url(#p0cbb6c0990)" style="fill: none; opacity: 0"/>
   </g>
   <g id="patch_5">
    <path d="M 70.784203 132.067403 
L 236.259829 132.067403 
L 236.259829 101.704508 
L 70.784203 101.704508 
L 70.784203 132.067403 
z
" clip-path="url(#p0cbb6c0990)" style="fill: none; opacity: 0"/>
   </g>
   <g id="patch_6">
    <path d="M 231.546597 245.928256 
L 314.975766 245.928256 
L 314.975766 215.565362 
L 231.546597 215.565362 
L 231.546597 245.928256 
z
" clip-path="url(#p0cbb6c0990)" style="fill: none; opacity: 0"/>
   </g>
   <g id="patch_7">
    <path d="M 231.7236 321.835492 
L 312.409641 321.835492 
L 312.409641 291.472597 
L 231.7236 291.472597 
L 231.7236 321.835492 
z
" clip-path="url(#p0cbb6c0990)" style="fill: none; opacity: 0"/>
   </g>
   <g id="patch_8">
    <path d="M 185.218161 170.02102 
L 31.290909 170.02102 
L 31.290909 139.658126 
L 185.218161 139.658126 
L 185.218161 170.02102 
z
" clip-path="url(#p0cbb6c0990)" style="fill: none; opacity: 0"/>
   </g>
   <g id="patch_9">
    <path d="M 275.482473 207.974638 
L 137.826208 207.974638 
L 137.826208 177.611744 
L 275.482473 177.611744 
L 275.482473 207.974638 
z
" clip-path="url(#p0cbb6c0990)" style="fill: none; opacity: 0"/>
   </g>
   <g id="patch_10">
    <path d="M 272.916348 283.881874 
L 192.053304 283.881874 
L 192.053304 253.51898 
L 272.916348 253.51898 
L 272.916348 283.881874 
z
" clip-path="url(#p0cbb6c0990)" style="fill: none; opacity: 0"/>
   </g>
   <g id="patch_11">
    <path d="M 267.722003 359.789109 
L 192.230306 359.789109 
L 192.230306 329.426215 
L 267.722003 329.426215 
L 267.722003 359.789109 
z
" clip-path="url(#p0cbb6c0990)" style="fill: none; opacity: 0"/>
   </g>
   <g id="patch_12">
    <path d="M 291.92706 397.742727 
L 220.330051 397.742727 
L 220.330051 367.379833 
L 291.92706 367.379833 
L 291.92706 397.742727 
z
" clip-path="url(#p0cbb6c0990)" style="fill: none; opacity: 0"/>
   </g>
   <g id="patch_13">
    <path d="M 469.666468 40.97872 
L 462.827758 56.160167 
L 462.827758 56.160167 
L 312.481872 56.160167 
L 312.481872 25.797273 
L 462.827758 25.797273 
L 462.827758 25.797273 
z
" clip-path="url(#p0cbb6c0990)" style="fill: #ff0051; stroke: #ff0051; stroke-linejoin: miter"/>
   </g>
   <g id="patch_14">
    <path d="M 312.481872 78.932338 
L 305.643162 94.113785 
L 305.643162 94.113785 
L 192.817206 94.113785 
L 192.817206 63.750891 
L 305.643162 63.750891 
L 305.643162 63.750891 
z
" clip-path="url(#p0cbb6c0990)" style="fill: #ff0051; stroke: #ff0051; stroke-linejoin: miter"/>
   </g>
   <g id="patch_15">
    <path d="M 192.817206 116.885955 
L 185.978496 132.067403 
L 185.978496 132.067403 
L 74.733532 132.067403 
L 74.733532 101.704508 
L 185.978496 101.704508 
L 185.978496 101.704508 
z
" clip-path="url(#p0cbb6c0990)" style="fill: #ff0051; stroke: #ff0051; stroke-linejoin: miter"/>
   </g>
   <g id="patch_16">
    <path d="M 271.533144 230.746809 
L 264.694434 245.928256 
L 264.694434 245.928256 
L 235.495927 245.928256 
L 235.495927 215.565362 
L 264.694434 215.565362 
L 264.694434 215.565362 
z
" clip-path="url(#p0cbb6c0990)" style="fill: #ff0051; stroke: #ff0051; stroke-linejoin: miter"/>
   </g>
   <g id="patch_17">
    <path d="M 268.967018 306.654045 
L 262.128309 321.835492 
L 262.128309 321.835492 
L 235.672929 321.835492 
L 235.672929 291.472597 
L 262.128309 291.472597 
L 262.128309 291.472597 
z
" clip-path="url(#p0cbb6c0990)" style="fill: #ff0051; stroke: #ff0051; stroke-linejoin: miter"/>
   </g>
   <g id="patch_18">
    <path d="M 74.733532 154.839573 
L 81.572242 139.658126 
L 81.572242 139.658126 
L 181.268831 139.658126 
L 181.268831 170.02102 
L 81.572242 170.02102 
L 81.572242 170.02102 
z
" clip-path="url(#p0cbb6c0990)" style="fill: #008bfb; stroke: #008bfb; stroke-linejoin: miter"/>
   </g>
   <g id="patch_19">
    <path d="M 181.268831 192.793191 
L 188.107541 177.611744 
L 188.107541 177.611744 
L 271.533144 177.611744 
L 271.533144 207.974638 
L 188.107541 207.974638 
L 188.107541 207.974638 
z
" clip-path="url(#p0cbb6c0990)" style="fill: #008bfb; stroke: #008bfb; stroke-linejoin: miter"/>
   </g>
   <g id="patch_20">
    <path d="M 235.495927 268.700427 
L 242.334636 253.51898 
L 242.334636 253.51898 
L 268.967018 253.51898 
L 268.967018 283.881874 
L 242.334636 283.881874 
L 242.334636 283.881874 
z
" clip-path="url(#p0cbb6c0990)" style="fill: #008bfb; stroke: #008bfb; stroke-linejoin: miter"/>
   </g>
   <g id="patch_21">
    <path d="M 235.672929 344.607662 
L 242.511639 329.426215 
L 242.511639 329.426215 
L 263.772674 329.426215 
L 263.772674 359.789109 
L 242.511639 359.789109 
L 242.511639 359.789109 
z
" clip-path="url(#p0cbb6c0990)" style="fill: #008bfb; stroke: #008bfb; stroke-linejoin: miter"/>
   </g>
   <g id="patch_22">
    <path d="M 263.772674 382.56128 
L 270.611383 367.379833 
L 270.611383 367.379833 
L 287.977731 367.379833 
L 287.977731 397.742727 
L 270.611383 397.742727 
L 270.611383 397.742727 
z
" clip-path="url(#p0cbb6c0990)" style="fill: #008bfb; stroke: #008bfb; stroke-linejoin: miter"/>
   </g>
   <g id="matplotlib.axis_1">
    <g id="xtick_1">
     <g id="line2d_19">
      <defs>
       <path id="m0c3d397737" d="M 0 0 
L 0 3.5 
" style="stroke: #000000; stroke-width: 0.8"/>
      </defs>
      <g>
       <use xlink:href="#m0c3d397737" x="72.974594" y="416.34" style="stroke: #000000; stroke-width: 0.8"/>
      </g>
     </g>
    </g>
    <g id="xtick_2">
     <g id="line2d_20">
      <g>
       <use xlink:href="#m0c3d397737" x="183.648614" y="416.34" style="stroke: #000000; stroke-width: 0.8"/>
      </g>
     </g>
    </g>
    <g id="xtick_3">
     <g id="line2d_21">
      <g>
       <use xlink:href="#m0c3d397737" x="294.322634" y="416.34" style="stroke: #000000; stroke-width: 0.8"/>
      </g>
     </g>
    </g>
    <g id="xtick_4">
     <g id="line2d_22">
      <g>
       <use xlink:href="#m0c3d397737" x="404.996655" y="416.34" style="stroke: #000000; stroke-width: 0.8"/>
      </g>
     </g>
    </g>
    <g id="xtick_5">
     <g id="line2d_23">
      <g>
       <use xlink:href="#m0c3d397737" x="515.670675" y="416.34" style="stroke: #000000; stroke-width: 0.8"/>
      </g>
     </g>
    </g>
   </g>
   <g id="matplotlib.axis_2">
    <g id="ytick_1"/>
    <g id="ytick_2"/>
    <g id="ytick_3"/>
    <g id="ytick_4"/>
    <g id="ytick_5"/>
    <g id="ytick_6"/>
    <g id="ytick_7"/>
    <g id="ytick_8"/>
    <g id="ytick_9"/>
    <g id="ytick_10"/>
    <g id="ytick_11"/>
    <g id="ytick_12"/>
    <g id="ytick_13"/>
    <g id="ytick_14"/>
    <g id="ytick_15"/>
    <g id="ytick_16"/>
    <g id="ytick_17"/>
    <g id="ytick_18"/>
    <g id="ytick_19"/>
    <g id="ytick_20"/>
   </g>
   <g id="patch_23">
    <path d="M 7.2 416.34 
L 537.2 416.34 
" style="fill: none; stroke: #000000; stroke-width: 0.8; stroke-linejoin: miter; stroke-linecap: square"/>
   </g>
  </g>
  <g id="axes_2">
   <g id="matplotlib.axis_3">
    <g id="xtick_6">
     <g id="line2d_24">
      <g>
       <use xlink:href="#m0c3d397737" x="287.977731" y="416.34" style="stroke: #000000; stroke-width: 0.8"/>
      </g>
     </g>
    </g>
    <g id="xtick_7">
     <g id="line2d_25">
      <g>
       <use xlink:href="#m0c3d397737" x="287.977731" y="416.34" style="stroke: #000000; stroke-width: 0.8"/>
      </g>
     </g>
    </g>
   </g>
   <g id="patch_24">
    <path d="M 7.2 416.34 
L 537.2 416.34 
" style="fill: none; stroke: #000000; stroke-width: 0.8; stroke-linejoin: miter; stroke-linecap: square"/>
   </g>
  </g>
  <g id="axes_3">
   <g id="matplotlib.axis_4">
    <g id="xtick_8">
     <g id="line2d_26">
      <defs>
       <path id="m051ab8141f" d="M 0 0 
L 0 -3.5 
" style="stroke: #000000; stroke-width: 0.8"/>
      </defs>
      <g>
       <use xlink:href="#m051ab8141f" x="469.666468" y="7.2" style="stroke: #000000; stroke-width: 0.8"/>
      </g>
     </g>
    </g>
    <g id="xtick_9">
     <g id="line2d_27">
      <g>
       <use xlink:href="#m051ab8141f" x="469.666468" y="7.2" style="stroke: #000000; stroke-width: 0.8"/>
      </g>
     </g>
    </g>
   </g>
   <g id="patch_25">
    <path d="M 7.2 416.34 
L 537.2 416.34 
" style="fill: none; stroke: #000000; stroke-width: 0.8; stroke-linejoin: miter; stroke-linecap: square"/>
   </g>
  </g>
 </g>
 <defs>
  <clipPath id="p0cbb6c0990">
   <rect x="7.2" y="7.2" width="530" height="409.14"/>
  </clipPath>
 </defs>
</svg>
